<svg width="22" height="24" viewBox="0 0 22 24" fill="none" xmlns="http://www.w3.org/2000/svg">
<path d="M20.3542 16.4872C19.0162 15.9812 18.1212 14.7662 18.0202 13.3172C17.9212 11.9052 18.6132 10.6512 19.8712 9.96216L20.9172 9.38916L20.1702 8.45916C18.9152 6.89616 17.1192 5.96216 15.3662 5.96216C14.1512 5.96216 13.3082 6.28016 12.6312 6.53616C12.1532 6.71716 11.7762 6.85916 11.3622 6.85916C10.8902 6.85916 10.4242 6.69316 9.88422 6.50116C9.17622 6.24916 8.37422 5.96316 7.34422 5.96316C5.35422 5.96316 3.34722 7.15116 2.10722 9.06116C0.25622 11.9102 0.76422 16.7952 3.31522 20.6772C4.32622 22.2152 5.74322 23.9822 7.75022 24.0002C7.76322 24.0002 7.77622 24.0002 7.78922 24.0002C9.43222 24.0002 9.79222 23.1242 11.3872 23.1142C13.1292 23.1962 13.3492 24.0072 14.9762 23.9962C16.9372 23.9782 18.3512 22.2252 19.4752 20.5122C20.1392 19.5052 20.3962 18.9782 20.9132 17.8342L21.3512 16.8642L20.3542 16.4872Z" fill="#3b2186"/>
<path d="M14.1003 3.45008C14.7503 2.61608 15.2432 1.43908 15.0642 0.236084C14.0022 0.309084 12.7622 0.984084 12.0372 1.86408C11.3792 2.66308 10.8363 3.84708 11.0473 4.99908C12.2052 5.03508 13.4043 4.34308 14.1003 3.45008Z" fill="#3b2186"/>
</svg>
