<svg width="36" height="36" viewBox="0 0 36 36" fill="none" xmlns="http://www.w3.org/2000/svg">
<g clip-path="url(#clip0_156_813)">
<path d="M15.8884 29.6856C15.8223 29.6856 15.7581 29.6638 15.7057 29.6236C15.6534 29.5834 15.6157 29.5271 15.5986 29.4633C15.5815 29.3995 15.5859 29.3318 15.6112 29.2708C15.6365 29.2098 15.6812 29.1588 15.7384 29.1258L35.2318 17.8716C35.2999 17.8332 35.3804 17.823 35.456 17.843C35.5316 17.8631 35.5964 17.9119 35.6365 17.9791C35.6766 18.0462 35.689 18.1264 35.6709 18.2025C35.6528 18.2786 35.6056 18.3446 35.5396 18.3864L33.0796 19.9152L35.2312 18.6732C35.2993 18.634 35.3801 18.623 35.4562 18.6427C35.5323 18.6624 35.5977 18.7112 35.6382 18.7786C35.6787 18.846 35.6911 18.9266 35.6728 19.0031C35.6544 19.0795 35.6068 19.1457 35.5402 19.1874L32.8744 20.8584L35.2318 19.5C35.2996 19.4621 35.3794 19.452 35.4545 19.4718C35.5297 19.4916 35.5942 19.5397 35.6345 19.6061C35.6749 19.6725 35.6879 19.7519 35.6708 19.8277C35.6538 19.9035 35.608 19.9697 35.5432 20.0124L31.6228 22.5198L35.2318 20.4366C35.2989 20.3998 35.3775 20.3901 35.4516 20.4094C35.5257 20.4287 35.5896 20.4756 35.6302 20.5404C35.6708 20.6053 35.6852 20.6832 35.6702 20.7583C35.6552 20.8334 35.6122 20.8999 35.5498 20.9442L29.7124 24.8898L35.2324 21.7038C35.2994 21.6648 35.379 21.6533 35.4544 21.6717C35.5298 21.6901 35.5951 21.737 35.6366 21.8025C35.6782 21.868 35.6927 21.9471 35.6772 22.0232C35.6617 22.0992 35.6173 22.1662 35.5534 22.2102L30.8086 25.5L35.2318 22.9464C35.2989 22.9087 35.3781 22.8982 35.4528 22.9172C35.5274 22.9362 35.5919 22.9832 35.6329 23.0484C35.6739 23.1137 35.6882 23.1922 35.6728 23.2677C35.6574 23.3433 35.6136 23.41 35.5504 23.454L33.1834 25.062L35.2318 23.88C35.2989 23.8437 35.3774 23.8344 35.4512 23.8539C35.5251 23.8735 35.5886 23.9204 35.629 23.9852C35.6694 24.05 35.6836 24.1278 35.6686 24.2027C35.6537 24.2775 35.6108 24.3439 35.5486 24.3882L35.1412 24.6618L35.2318 24.6102C35.2986 24.574 35.3766 24.5645 35.4501 24.5836C35.5236 24.6027 35.5872 24.649 35.6279 24.7131C35.6687 24.7772 35.6836 24.8544 35.6696 24.9291C35.6557 25.0037 35.6139 25.0703 35.5528 25.1154L34.9192 25.5564L35.2318 25.3764C35.2976 25.3396 35.3748 25.3289 35.4482 25.3464C35.5215 25.364 35.5856 25.4085 35.6275 25.4711C35.6695 25.5338 35.6864 25.6099 35.6748 25.6845C35.6631 25.759 35.6239 25.8264 35.5648 25.8732L34.2484 26.8932L35.221 26.3322C35.2848 26.2961 35.3597 26.2847 35.4315 26.3001C35.5032 26.3155 35.5668 26.3567 35.6102 26.4158C35.6537 26.4749 35.674 26.5479 35.6672 26.6209C35.6605 26.694 35.6273 26.762 35.5738 26.8122L34.549 27.7488L34.8658 27.5688C34.8999 27.5488 34.9377 27.5358 34.9769 27.5304C35.0161 27.525 35.0559 27.5275 35.0942 27.5376C35.1324 27.5477 35.1683 27.5653 35.1997 27.5893C35.2311 27.6133 35.2575 27.6434 35.2773 27.6776C35.2971 27.7119 35.3099 27.7497 35.315 27.789C35.3201 27.8282 35.3174 27.868 35.307 27.9062C35.2966 27.9444 35.2788 27.9802 35.2546 28.0114C35.2303 28.0427 35.2002 28.0689 35.1658 28.0884L32.4658 29.6484C32.4019 29.6854 32.3266 29.6976 32.2543 29.6825C32.182 29.6674 32.1178 29.6263 32.074 29.5668C32.0301 29.5072 32.0098 29.4335 32.017 29.3598C32.0242 29.2862 32.0584 29.2178 32.113 29.1678L33.1384 28.23L30.6784 29.6484C30.6125 29.686 30.5349 29.6972 30.4611 29.6799C30.3874 29.6626 30.3229 29.618 30.2806 29.5551C30.2384 29.4922 30.2215 29.4156 30.2334 29.3408C30.2453 29.2659 30.2851 29.1983 30.3448 29.1516L31.6594 28.137L29.0398 29.64C28.973 29.6762 28.8949 29.6857 28.8214 29.6666C28.7479 29.6475 28.6844 29.6013 28.6436 29.5371C28.6029 29.473 28.588 29.3958 28.6019 29.3212C28.6159 29.2465 28.6576 29.1799 28.7188 29.1348L29.3494 28.6956L27.7138 29.64C27.6466 29.6763 27.5681 29.6857 27.4943 29.6661C27.4205 29.6466 27.3569 29.5996 27.3165 29.5348C27.2761 29.47 27.2619 29.3923 27.2769 29.3174C27.2918 29.2425 27.3348 29.1761 27.397 29.1318L27.811 28.854L26.4484 29.64C26.3813 29.6764 26.303 29.6859 26.2292 29.6666C26.1554 29.6473 26.0917 29.6006 26.0511 29.536C26.0106 29.4714 25.9961 29.3938 26.0107 29.319C26.0253 29.2441 26.0679 29.1776 26.1298 29.133L28.495 27.5232L24.8272 29.6406C24.7602 29.678 24.6815 29.6884 24.6072 29.6696C24.5329 29.6508 24.4686 29.6042 24.4275 29.5395C24.3865 29.4748 24.3717 29.3968 24.3863 29.3215C24.401 29.2463 24.4438 29.1795 24.5062 29.1348L29.251 25.8444L22.6744 29.6436C22.6072 29.6804 22.5286 29.6902 22.4545 29.6709C22.3805 29.6516 22.3166 29.6047 22.2759 29.5398C22.2353 29.475 22.221 29.397 22.2359 29.3219C22.2509 29.2469 22.294 29.1804 22.3564 29.136L28.1938 25.1898L20.4784 29.6442C20.4107 29.6814 20.3312 29.6911 20.2566 29.6712C20.1819 29.6514 20.1178 29.6035 20.0776 29.5375C20.0374 29.4715 20.0242 29.3926 20.0407 29.3172C20.0573 29.2417 20.1023 29.1755 20.1664 29.1324L24.088 26.6238L18.8566 29.6442C18.7886 29.6823 18.7085 29.6925 18.6331 29.6725C18.5578 29.6526 18.4932 29.6041 18.453 29.5374C18.4128 29.4707 18.4001 29.3909 18.4176 29.315C18.4352 29.2391 18.4815 29.1729 18.547 29.1306L21.2098 27.462L17.4298 29.6448C17.3617 29.6823 17.2819 29.6919 17.2069 29.6717C17.1319 29.6514 17.0677 29.6029 17.0278 29.5363C16.9878 29.4697 16.9753 29.3903 16.9927 29.3146C17.0102 29.2389 17.0563 29.173 17.1214 29.1306L19.5916 27.5946L16.0402 29.6448C15.9941 29.6717 15.9417 29.6858 15.8884 29.6856Z" fill="#E1EFFF"/>
<path d="M7.78864 35.6748C7.72568 35.6748 7.66431 35.655 7.61323 35.6182C7.56215 35.5813 7.52395 35.5294 7.50404 35.4697C7.48413 35.4099 7.48352 35.3454 7.50229 35.2853C7.52106 35.2252 7.55827 35.1726 7.60864 35.1348L10.4454 32.9796L6.65584 35.1672C6.5875 35.2061 6.50659 35.2167 6.43054 35.1965C6.3545 35.1764 6.2894 35.1272 6.24927 35.0596C6.20915 34.9919 6.19721 34.9112 6.21602 34.8348C6.23483 34.7584 6.28289 34.6925 6.34984 34.6512L12.456 30.9402L6.25024 34.5234C6.18218 34.5603 6.10248 34.5695 6.02781 34.549C5.95315 34.5285 5.8893 34.4799 5.84962 34.4134C5.80995 34.3469 5.79751 34.2677 5.81492 34.1922C5.83234 34.1168 5.87824 34.051 5.94304 34.0086L17.0736 27.1572L6.16564 33.4572C6.09763 33.4947 6.01773 33.5043 5.94276 33.484C5.86779 33.4638 5.80358 33.4153 5.76364 33.3487C5.7237 33.2821 5.71114 33.2026 5.72859 33.127C5.74605 33.0513 5.79217 32.9854 5.85724 32.943L20.3298 23.9118L6.16024 32.0922C6.09223 32.1297 6.01233 32.1393 5.93736 32.119C5.86239 32.0988 5.79818 32.0503 5.75824 31.9837C5.7183 31.9171 5.70574 31.8376 5.72319 31.762C5.74065 31.6863 5.78677 31.6204 5.85184 31.578L18.7884 23.5632L6.15544 30.8574C6.08718 30.8984 6.00543 30.9105 5.92818 30.8912C5.85094 30.8719 5.78452 30.8228 5.74354 30.7545C5.70257 30.6862 5.69039 30.6045 5.70969 30.5272C5.72898 30.45 5.77818 30.3836 5.84644 30.3426L19.938 21.5688L5.95564 29.64C5.8873 29.6807 5.80557 29.6926 5.72843 29.6731C5.6513 29.6536 5.58508 29.6042 5.54434 29.5359C5.50361 29.4675 5.49169 29.3858 5.51121 29.3087C5.53073 29.2315 5.5801 29.1653 5.64844 29.1246L15.6384 23.0046L4.14364 29.64C4.07553 29.6764 3.996 29.6851 3.92161 29.6644C3.84722 29.6436 3.7837 29.595 3.74427 29.5286C3.70485 29.4622 3.69255 29.3831 3.70994 29.3078C3.72733 29.2326 3.77307 29.167 3.83764 29.1246L14.7246 22.4724L2.66464 29.4324C2.59614 29.4729 2.51435 29.4845 2.43727 29.4647C2.3602 29.4449 2.29414 29.3953 2.25364 29.3268C2.21315 29.2583 2.20152 29.1765 2.22132 29.0994C2.24113 29.0223 2.29074 28.9563 2.35924 28.9158L12.3168 22.8684L1.82044 28.9284C1.75216 28.965 1.67237 28.9737 1.59778 28.9528C1.52319 28.9319 1.45958 28.8829 1.42027 28.8162C1.38096 28.7494 1.369 28.67 1.38689 28.5947C1.40478 28.5193 1.45113 28.4538 1.51624 28.4118L4.78744 26.448L1.35544 28.428C1.32148 28.448 1.28392 28.4611 1.24488 28.4666C1.20585 28.4721 1.16611 28.4699 1.12795 28.46C1.08978 28.4501 1.05394 28.4329 1.02245 28.4092C0.990964 28.3854 0.964458 28.3557 0.944444 28.3218C0.924431 28.2878 0.911302 28.2503 0.905808 28.2112C0.900314 28.1722 0.902562 28.1325 0.912423 28.0943C0.93234 28.0172 0.982059 27.9512 1.05064 27.9108L6.19204 24.822L1.00564 27.816C0.937579 27.8529 0.857879 27.8621 0.783213 27.8416C0.708548 27.8211 0.6447 27.7725 0.605023 27.706C0.565346 27.6395 0.552913 27.5603 0.570324 27.4848C0.587736 27.4094 0.633643 27.3436 0.698444 27.3012L16.7184 17.4504L0.768044 26.661C0.699849 26.6987 0.619659 26.7084 0.544446 26.688C0.469234 26.6676 0.4049 26.6188 0.365061 26.5518C0.325222 26.4849 0.313004 26.405 0.330993 26.3292C0.348982 26.2534 0.395766 26.1875 0.461444 26.1456L15.9936 16.62L0.768044 25.4088C0.699618 25.4494 0.617844 25.4613 0.54071 25.4416C0.463577 25.422 0.397402 25.3725 0.356744 25.3041C0.316087 25.2357 0.304276 25.1539 0.323911 25.0768C0.343546 24.9996 0.393018 24.9334 0.461444 24.8928L15.645 15.5892L0.768044 24.18C0.699757 24.2166 0.619967 24.2253 0.545376 24.2044C0.470786 24.1835 0.407179 24.1345 0.36787 24.0678C0.328562 24.001 0.3166 23.9216 0.33449 23.8463C0.352379 23.7709 0.398731 23.7054 0.463844 23.6634L4.38784 21.3096L0.768044 23.4C0.699804 23.4371 0.619829 23.4463 0.544947 23.4256C0.470066 23.405 0.406115 23.3561 0.36655 23.2892C0.326986 23.2224 0.314892 23.1428 0.332815 23.0672C0.350737 22.9916 0.397278 22.926 0.462644 22.884L11.0358 16.47L0.768044 22.398C0.699931 22.4344 0.620402 22.4431 0.546012 22.4224C0.471622 22.4016 0.408103 22.353 0.368675 22.2866C0.329247 22.2202 0.316949 22.1411 0.334341 22.0659C0.351733 21.9906 0.397474 21.925 0.462044 21.8826L13.1016 14.1726L0.768044 21.2928C0.699979 21.3297 0.620279 21.3389 0.545613 21.3184C0.470948 21.2979 0.4071 21.2493 0.367423 21.1828C0.327746 21.1163 0.315313 21.0371 0.332724 20.9616C0.350136 20.8862 0.396043 20.8204 0.460844 20.778L15.3486 11.6082L0.768044 20.0256C0.700002 20.061 0.620983 20.069 0.547226 20.0479C0.47347 20.0269 0.410578 19.9784 0.371477 19.9124C0.332377 19.8464 0.320036 19.768 0.336992 19.6931C0.353948 19.6183 0.398912 19.5529 0.462644 19.5102L9.60004 13.95L0.768044 19.0494C0.699979 19.0863 0.620279 19.0955 0.545613 19.075C0.470948 19.0545 0.4071 19.0059 0.367423 18.9394C0.327746 18.8729 0.315313 18.7937 0.332724 18.7182C0.350136 18.6428 0.396043 18.577 0.460844 18.5346L12.8256 10.893L0.765644 17.853C0.698248 17.8845 0.621547 17.8898 0.550433 17.868C0.479319 17.8461 0.418864 17.7986 0.380807 17.7347C0.342749 17.6708 0.329803 17.595 0.344483 17.522C0.359162 17.4491 0.400419 17.3842 0.460244 17.34L12.2766 9.98819L0.768044 16.6326C0.699539 16.6731 0.617751 16.6847 0.540674 16.6649C0.463596 16.6451 0.397543 16.5955 0.357044 16.527C0.316546 16.4585 0.30492 16.3767 0.324723 16.2996C0.344527 16.2225 0.394139 16.1565 0.462644 16.116L2.08684 15.1326L0.766844 15.8934C0.698604 15.9305 0.618629 15.9397 0.543747 15.919C0.468866 15.8984 0.404915 15.8495 0.36535 15.7826C0.325786 15.7158 0.313692 15.6362 0.331615 15.5606C0.349537 15.485 0.396078 15.4194 0.461444 15.3774L1.34464 14.8416L0.766844 15.1752C0.698899 15.2115 0.619597 15.2202 0.545366 15.1997C0.471135 15.1791 0.407664 15.1307 0.3681 15.0647C0.328537 14.9986 0.315913 14.9198 0.332843 14.8446C0.349773 14.7695 0.39496 14.7037 0.459044 14.661L7.32004 10.4058L0.768044 14.1888C0.700002 14.2242 0.620983 14.2322 0.547226 14.2111C0.47347 14.1901 0.410578 14.1416 0.371477 14.0756C0.332377 14.0096 0.320036 13.9312 0.336992 13.8563C0.353948 13.7815 0.398912 13.7161 0.462644 13.6734L0.717644 13.5174C0.647226 13.544 0.569378 13.5432 0.499549 13.515C0.429721 13.4869 0.373016 13.4336 0.340687 13.3656C0.308358 13.2976 0.302768 13.22 0.325026 13.1481C0.347284 13.0761 0.395764 13.0152 0.460844 12.9774L3.61504 11.0298L0.768044 12.675C0.70037 12.7107 0.621589 12.7193 0.547827 12.6989C0.474065 12.6784 0.4109 12.6306 0.371262 12.5651C0.331624 12.4996 0.31851 12.4215 0.334606 12.3467C0.350702 12.2718 0.39479 12.206 0.457844 12.1626L6.93784 8.05139L0.768044 11.6124C0.700096 11.6541 0.618368 11.6671 0.540841 11.6485C0.463313 11.6299 0.396336 11.5813 0.354644 11.5134C0.312952 11.4454 0.29996 11.3637 0.318526 11.2862C0.337092 11.2087 0.385696 11.1417 0.453644 11.1L8.10424 6.07319L0.768044 10.3104C0.700723 10.3481 0.621446 10.3585 0.546696 10.3393C0.471945 10.3201 0.407472 10.2728 0.366679 10.2073C0.325886 10.1418 0.311911 10.063 0.327661 9.98749C0.34341 9.91193 0.387672 9.84536 0.451244 9.80159L7.09084 5.349L0.768044 8.99999C0.700824 9.03901 0.621086 9.05041 0.545626 9.0318C0.470166 9.01319 0.404873 8.96602 0.363499 8.90023C0.322125 8.83443 0.3079 8.75515 0.32382 8.67908C0.339739 8.603 0.384561 8.53608 0.448844 8.49239L5.82304 4.818L0.768044 7.73639C0.700455 7.77482 0.620587 7.7855 0.545275 7.76619C0.469962 7.74689 0.405087 7.69909 0.364322 7.63289C0.323557 7.56669 0.310086 7.48724 0.326749 7.4113C0.343411 7.33536 0.388906 7.26885 0.453644 7.22579L2.14084 6.11999L0.768044 6.91079C0.700773 6.94913 0.621284 6.95998 0.546201 6.94106C0.471119 6.92214 0.406259 6.87492 0.365187 6.80929C0.324115 6.74365 0.310012 6.66467 0.325827 6.58887C0.341642 6.51308 0.386151 6.44633 0.450044 6.40259L2.41144 5.0754L0.768044 6.02339C0.700876 6.06117 0.621747 6.07165 0.547062 6.05266C0.472376 6.03367 0.407863 5.98666 0.366896 5.92139C0.325928 5.85612 0.311649 5.77759 0.327018 5.70208C0.342386 5.62656 0.386225 5.55986 0.449444 5.51579L1.36624 4.8906L0.766244 5.2362C0.699427 5.27472 0.620337 5.28604 0.545397 5.26779C0.470458 5.24954 0.405427 5.20312 0.363808 5.13818C0.322189 5.07325 0.30718 4.99477 0.321898 4.91906C0.336616 4.84335 0.379929 4.77621 0.442844 4.7316L1.27504 4.143L0.768044 4.44C0.734951 4.46155 0.697938 4.47637 0.659117 4.48361C0.620296 4.49086 0.580428 4.49038 0.54179 4.48222C0.503151 4.47406 0.466499 4.45837 0.433925 4.43604C0.401351 4.41371 0.373494 4.38519 0.351944 4.3521C0.308422 4.28526 0.293233 4.20387 0.309717 4.12584C0.326202 4.04781 0.37301 3.97952 0.439844 3.936L0.970844 3.5436L0.780044 3.654C0.718579 3.68933 0.646583 3.70176 0.576827 3.68907C0.507071 3.67639 0.444064 3.6394 0.398979 3.58468C0.353895 3.52996 0.329647 3.46104 0.330538 3.39015C0.331428 3.31925 0.357399 3.25097 0.403844 3.1974L1.58404 1.8426L1.53304 1.872C1.4989 1.8937 1.46072 1.90828 1.42079 1.91484C1.38087 1.92141 1.34003 1.91983 1.30073 1.91021C1.26143 1.90058 1.22448 1.88311 1.19211 1.85883C1.15974 1.83456 1.13262 1.80398 1.11237 1.76895C1.09212 1.73392 1.07917 1.69516 1.07429 1.655C1.06941 1.61483 1.07271 1.57409 1.08398 1.53524C1.09525 1.49638 1.11427 1.4602 1.13989 1.42888C1.16551 1.39756 1.19719 1.37175 1.23304 1.353L2.84224 0.423596C2.90371 0.388257 2.97571 0.375829 3.04546 0.388518C3.11522 0.401206 3.17823 0.438189 3.22331 0.492909C3.26839 0.547629 3.29264 0.616548 3.29175 0.687443C3.29086 0.758338 3.26489 0.826626 3.21844 0.880196L2.04004 2.2356L5.28904 0.359996C5.35539 0.32199 5.43375 0.310753 5.50811 0.328582C5.58246 0.34641 5.64721 0.391958 5.68911 0.45592C5.73101 0.519881 5.7469 0.597428 5.73355 0.672716C5.72019 0.748004 5.67859 0.815351 5.61724 0.860996L5.08864 1.251L6.63304 0.359996C6.69973 0.322855 6.77806 0.31253 6.8521 0.331123C6.92613 0.349717 6.99029 0.39583 7.03151 0.460072C7.07273 0.524315 7.08791 0.601854 7.07397 0.6769C7.06002 0.751945 7.01799 0.818853 6.95644 0.863996L6.12304 1.4532L8.01724 0.359996C8.08431 0.322697 8.16313 0.312519 8.23747 0.331556C8.31182 0.350594 8.37604 0.397399 8.41693 0.462343C8.45782 0.527287 8.47226 0.605432 8.45729 0.680701C8.44232 0.755971 8.39907 0.822641 8.33644 0.866996L7.42204 1.4892L9.38104 0.359996C9.44816 0.323201 9.52681 0.313454 9.60088 0.33275C9.67495 0.352046 9.73885 0.398926 9.77949 0.463792C9.82012 0.528658 9.83443 0.606603 9.81947 0.681672C9.80452 0.756741 9.76144 0.823255 9.69905 0.867596L7.74004 2.1948L10.92 0.359996C10.9875 0.322254 11.067 0.31202 11.1418 0.33143C11.2166 0.35084 11.2811 0.398395 11.3217 0.464175C11.3624 0.529955 11.376 0.608881 11.3599 0.684492C11.3437 0.760102 11.299 0.826557 11.235 0.869996L9.54304 1.98L12.348 0.359996C12.4151 0.322697 12.4939 0.312519 12.5683 0.331556C12.6426 0.350594 12.7068 0.397399 12.7477 0.462343C12.7886 0.527287 12.8031 0.605432 12.7881 0.680701C12.7731 0.755971 12.7299 0.822641 12.6672 0.866996L7.29544 4.539L14.5356 0.359996C14.6028 0.323676 14.6813 0.314337 14.7551 0.333882C14.8289 0.353427 14.8925 0.400385 14.9329 0.465186C14.9733 0.529987 14.9875 0.607753 14.9725 0.682635C14.9576 0.757518 14.9146 0.823879 14.8524 0.868196L8.21344 5.31899L16.8054 0.359996C16.8729 0.323309 16.9518 0.31386 17.026 0.333593C17.1001 0.353326 17.1639 0.40074 17.2042 0.466079C17.2445 0.531418 17.2582 0.60971 17.2425 0.684845C17.2268 0.75998 17.1829 0.826243 17.1198 0.869996L9.46804 5.89619L19.0608 0.359996C19.1285 0.324241 19.2073 0.315703 19.2811 0.336132C19.3548 0.35656 19.418 0.404409 19.4576 0.469885C19.4973 0.53536 19.5104 0.61351 19.4943 0.688338C19.4782 0.763165 19.4341 0.82901 19.371 0.872396L12.8922 4.98L20.9016 0.359996C20.9698 0.321602 21.0503 0.311345 21.1259 0.331412C21.2015 0.351479 21.2662 0.400283 21.3064 0.467421C21.3465 0.534559 21.3589 0.61472 21.3407 0.690819C21.3226 0.766917 21.2755 0.832934 21.2094 0.874796L18.06 2.82L22.32 0.359996C22.3882 0.323592 22.4677 0.314859 22.5421 0.335615C22.6165 0.35637 22.68 0.405015 22.7194 0.471423C22.7588 0.537832 22.7711 0.616888 22.7537 0.692135C22.7364 0.767383 22.6906 0.833024 22.626 0.875396L22.5594 0.916196L23.5236 0.359996C23.5917 0.322534 23.6716 0.312906 23.7465 0.333136C23.8215 0.353366 23.8857 0.401878 23.9256 0.468472C23.9656 0.535065 23.9782 0.614552 23.9607 0.690217C23.9432 0.765882 23.8971 0.831831 23.832 0.874196L16.965 5.1342L25.2324 0.359996C25.3006 0.324059 25.38 0.315727 25.4541 0.336727C25.5283 0.357726 25.5915 0.406448 25.6307 0.472792C25.6699 0.539137 25.682 0.618017 25.6646 0.693083C25.6472 0.76815 25.6016 0.833646 25.5372 0.875996L24.66 1.407L26.4762 0.359996C26.5445 0.322886 26.6245 0.313691 26.6993 0.334346C26.7742 0.355002 26.8382 0.403897 26.8777 0.470745C26.9173 0.537592 26.9294 0.61718 26.9115 0.692763C26.8936 0.768346 26.847 0.83403 26.7816 0.875996L25.1598 1.86L27.756 0.359996C27.824 0.323706 27.9033 0.314941 27.9775 0.335519C28.0518 0.356097 28.1152 0.404439 28.1548 0.470533C28.1944 0.536626 28.207 0.615406 28.19 0.690553C28.1731 0.765699 28.1279 0.831454 28.0638 0.874196L16.2444 8.22599L29.8722 0.359996C29.9404 0.321602 30.0209 0.311345 30.0965 0.331412C30.1721 0.351479 30.2368 0.400283 30.277 0.467421C30.3171 0.534559 30.3295 0.61472 30.3113 0.690819C30.2932 0.766917 30.2461 0.832934 30.18 0.874796L17.8122 8.51639L31.9428 0.359996C32.011 0.323592 32.0905 0.314859 32.1649 0.335615C32.2393 0.35637 32.3028 0.405015 32.3422 0.471423C32.3816 0.537832 32.3939 0.616888 32.3765 0.692135C32.3592 0.767383 32.3134 0.833024 32.2488 0.875396L23.121 6.42719L33.3 0.550796C33.3682 0.512402 33.4487 0.502145 33.5243 0.522212C33.5999 0.542279 33.6646 0.591083 33.7048 0.658221C33.7449 0.725359 33.7573 0.80552 33.7391 0.881619C33.721 0.957717 33.6739 1.02373 33.6078 1.0656L18.7152 10.2384L34.3416 1.2168C34.4101 1.17614 34.4918 1.16433 34.569 1.18396C34.6461 1.2036 34.7123 1.25307 34.7529 1.3215C34.7936 1.38992 34.8054 1.4717 34.7858 1.54883C34.7661 1.62596 34.7167 1.69214 34.6482 1.7328L22.014 9.43859L34.9098 1.9938C34.9782 1.9557 35.0588 1.94585 35.1343 1.96633C35.2099 1.98681 35.2744 2.03601 35.3142 2.10343C35.354 2.17085 35.3658 2.25114 35.3472 2.32717C35.3286 2.40321 35.2811 2.46896 35.2146 2.5104L24.6312 8.92799L35.1846 2.8356C35.2529 2.8001 35.3321 2.79214 35.406 2.81338C35.4799 2.83461 35.5428 2.88341 35.5818 2.94971C35.6208 3.016 35.6328 3.09473 35.6154 3.16963C35.5979 3.24452 35.5524 3.30988 35.4882 3.3522L31.593 5.68859L35.232 3.5886C35.3005 3.54794 35.3822 3.53613 35.4594 3.55576C35.5365 3.5754 35.6027 3.62487 35.6433 3.6933C35.684 3.76172 35.6958 3.8435 35.6762 3.92063C35.6565 3.99776 35.6071 4.06394 35.5386 4.1046L20.3454 13.413L35.232 4.8186C35.3002 4.78089 35.3804 4.7712 35.4556 4.79158C35.5309 4.81195 35.5952 4.86079 35.635 4.92776C35.6749 4.99473 35.6871 5.07458 35.6691 5.1504C35.6511 5.22622 35.6043 5.29206 35.5386 5.334L20.0154 14.8554L35.232 6.07019C35.3002 6.03249 35.3804 6.0228 35.4556 6.04318C35.5309 6.06355 35.5952 6.11239 35.635 6.17936C35.6749 6.24633 35.6871 6.32618 35.6691 6.402C35.6511 6.47782 35.6043 6.54366 35.5386 6.58559L19.515 16.44L35.235 7.36559C35.269 7.34558 35.3066 7.33245 35.3456 7.32696C35.3846 7.32146 35.4244 7.32371 35.4625 7.33357C35.5007 7.34343 35.5366 7.36072 35.568 7.38443C35.5995 7.40815 35.626 7.43783 35.646 7.47179C35.6661 7.50575 35.6792 7.54332 35.6847 7.58236C35.6902 7.62139 35.6879 7.66112 35.6781 7.69929C35.6682 7.73745 35.6509 7.7733 35.6272 7.80479C35.6035 7.83627 35.5738 7.86278 35.5398 7.88279L30.3912 10.9776L35.235 8.18159C35.3033 8.14501 35.3831 8.13627 35.4577 8.15718C35.5323 8.1781 35.5959 8.22706 35.6352 8.29382C35.6745 8.36057 35.6865 8.43994 35.6686 8.51532C35.6507 8.59069 35.6044 8.65622 35.5392 8.69819L32.2536 10.6698L35.232 8.94599C35.3006 8.9055 35.3823 8.89387 35.4594 8.91367C35.5365 8.93348 35.6025 8.98309 35.643 9.05159C35.6835 9.1201 35.6952 9.20189 35.6754 9.27896C35.6556 9.35604 35.6059 9.4221 35.5374 9.46259L25.5822 15.5112L35.232 9.93959C35.3004 9.90065 35.3813 9.8901 35.4573 9.91023C35.5334 9.93036 35.5985 9.97956 35.6386 10.0472C35.6787 10.1149 35.6907 10.1956 35.6719 10.272C35.6531 10.3484 35.605 10.4143 35.538 10.4556L24.663 17.1L35.232 10.9998C35.3002 10.9621 35.3804 10.9524 35.4556 10.9728C35.5309 10.9932 35.5952 11.042 35.635 11.109C35.6749 11.1759 35.6871 11.2558 35.6691 11.3316C35.6511 11.4074 35.6043 11.4733 35.5386 11.5152L25.5396 17.64L35.232 12.0462C35.3003 12.0053 35.382 11.9932 35.4592 12.0125C35.5364 12.0319 35.6027 12.0811 35.6436 12.1494C35.6845 12.2177 35.6966 12.2994 35.6773 12.3766C35.6579 12.4538 35.6087 12.5201 35.5404 12.561L21.4482 21.3354L35.232 13.38C35.3 13.3437 35.3793 13.3349 35.4535 13.3555C35.5278 13.3761 35.5912 13.4244 35.6308 13.4905C35.6704 13.5566 35.683 13.6354 35.666 13.7105C35.6491 13.7857 35.6039 13.8514 35.5398 13.8942L22.6002 21.9084L35.232 14.6154C35.3001 14.5779 35.38 14.5683 35.4549 14.5885C35.5299 14.6088 35.5941 14.6573 35.634 14.7239C35.674 14.7905 35.6866 14.8699 35.6691 14.9456C35.6516 15.0213 35.6055 15.0872 35.5404 15.1296L21.0726 24.1554L35.2326 15.981C35.3006 15.9452 35.3798 15.9368 35.4538 15.9576C35.5278 15.9784 35.5909 16.0268 35.6303 16.0929C35.6696 16.1589 35.6821 16.2375 35.6651 16.3125C35.6482 16.3875 35.6031 16.4531 35.5392 16.4958L24.4098 23.346L35.232 17.1C35.3003 17.0629 35.3803 17.0537 35.4551 17.0743C35.53 17.095 35.594 17.1439 35.6335 17.2107C35.6731 17.2776 35.6852 17.3572 35.6673 17.4328C35.6494 17.5083 35.6028 17.574 35.5374 17.616L14.7 30.2778C14.713 30.3341 14.7093 30.3929 14.6897 30.4472C14.67 30.5014 14.635 30.5489 14.589 30.5838L9.57304 34.3938C9.59952 34.4607 9.60106 34.5349 9.57738 34.6029C9.5537 34.6708 9.50638 34.728 9.44404 34.764L7.93624 35.6346C7.89144 35.6608 7.84053 35.6746 7.78864 35.6748Z" fill="#E1EFFF"/>
<path d="M26.6999 23.0821C26.6339 23.0821 26.5697 23.0603 26.5173 23.0201C26.4649 22.9799 26.4272 22.9236 26.4101 22.8598C26.393 22.796 26.3975 22.7283 26.4227 22.6673C26.448 22.6063 26.4927 22.5554 26.5499 22.5223L29.2109 20.9863C29.2794 20.9505 29.3592 20.9425 29.4335 20.964C29.5078 20.9856 29.5709 21.035 29.6097 21.102C29.6484 21.169 29.6597 21.2484 29.6413 21.3235C29.6229 21.3987 29.5762 21.4638 29.5109 21.5053L26.8499 23.0401C26.8045 23.0671 26.7527 23.0816 26.6999 23.0821Z" fill="white"/>
<path d="M27.9001 19.4821C27.834 19.4821 27.7699 19.4603 27.7175 19.4201C27.6651 19.3799 27.6274 19.3235 27.6103 19.2597C27.5932 19.1959 27.5977 19.1283 27.6229 19.0673C27.6482 19.0063 27.6929 18.9553 27.7501 18.9223L29.7079 17.7919C29.7768 17.7527 29.8583 17.7424 29.9348 17.7632C30.0112 17.7839 30.0764 17.8341 30.116 17.9027C30.1556 17.9713 30.1665 18.0528 30.1462 18.1294C30.126 18.206 30.0762 18.2714 30.0079 18.3115L28.0501 19.4401C28.0047 19.4671 27.9529 19.4815 27.9001 19.4821Z" fill="white"/>
<path d="M19.3067 26.682C19.2425 26.682 19.1799 26.6615 19.1282 26.6234C19.0765 26.5852 19.0384 26.5315 19.0196 26.4701C19.0007 26.4087 19.002 26.3429 19.0233 26.2823C19.0447 26.2217 19.0849 26.1696 19.1381 26.1336L21.8639 24.2874L18.1121 26.4534C18.045 26.4942 17.9645 26.5071 17.888 26.4892C17.8115 26.4714 17.745 26.4242 17.7029 26.3579C17.6608 26.2916 17.6464 26.2114 17.6627 26.1345C17.6791 26.0577 17.725 25.9903 17.7905 25.947L21.8399 23.1402L17.0579 25.9002C17.0244 25.9209 16.9872 25.9349 16.9483 25.9413C16.9094 25.9476 16.8696 25.9463 16.8313 25.9373C16.7929 25.9283 16.7567 25.9118 16.7247 25.8888C16.6927 25.8658 16.6656 25.8368 16.6448 25.8033C16.624 25.7698 16.6101 25.7325 16.6037 25.6936C16.5973 25.6548 16.5987 25.615 16.6077 25.5766C16.6167 25.5383 16.6332 25.5021 16.6561 25.4701C16.6791 25.4381 16.7082 25.4109 16.7417 25.3902L21.5963 22.1772L16.0979 25.3512C16.0299 25.3892 15.9498 25.3994 15.8745 25.3795C15.7992 25.3595 15.7345 25.3111 15.6943 25.2443C15.6541 25.1776 15.6414 25.0978 15.6589 25.0219C15.6765 24.946 15.7229 24.8799 15.7883 24.8376L16.2305 24.5592L15.4745 24.9954C15.4072 25.0331 15.3279 25.0434 15.2531 25.0242C15.1784 25.005 15.1139 24.9578 15.0731 24.8922C15.0323 24.8267 15.0184 24.748 15.0341 24.6725C15.0499 24.5969 15.0941 24.5303 15.1577 24.4866L21.0125 20.5734L14.3543 24.42C14.2867 24.4566 14.2076 24.466 14.1334 24.446C14.0591 24.4261 13.9954 24.3784 13.9552 24.3128C13.9151 24.2472 13.9017 24.1687 13.9178 24.0935C13.9339 24.0183 13.9783 23.9522 14.0417 23.9088L18.6683 20.9292L12.9185 24.246C12.8512 24.2822 12.7726 24.2914 12.6987 24.2716C12.6248 24.2519 12.5613 24.2046 12.5211 24.1396C12.4809 24.0746 12.467 23.9967 12.4823 23.9217C12.4976 23.8468 12.541 23.7806 12.6035 23.7366L20.6639 18.42L11.5667 23.6706C11.4988 23.7059 11.42 23.714 11.3464 23.6931C11.2727 23.6723 11.2098 23.624 11.1706 23.5583C11.1313 23.4926 11.1187 23.4144 11.1352 23.3397C11.1517 23.265 11.1962 23.1994 11.2595 23.1564L12.0893 22.6416L11.5655 22.9416C11.498 22.9778 11.4193 22.9868 11.3453 22.9668C11.2714 22.9469 11.2079 22.8994 11.1679 22.8341C11.1279 22.7688 11.1143 22.6907 11.13 22.6158C11.1457 22.5408 11.1894 22.4747 11.2523 22.431L18.1721 17.928L11.5637 21.7452C11.4964 21.7814 11.4178 21.7906 11.3439 21.7708C11.27 21.7511 11.2065 21.7038 11.1663 21.6388C11.1261 21.5738 11.1122 21.4959 11.1275 21.4209C11.1428 21.346 11.1862 21.2798 11.2487 21.2358L17.2709 17.2566L11.5625 20.5524C11.4953 20.5922 11.4153 20.6042 11.3394 20.586C11.2635 20.5677 11.1977 20.5205 11.156 20.4545C11.1142 20.3885 11.0999 20.3089 11.116 20.2325C11.1321 20.1561 11.1773 20.0889 11.2421 20.0454L16.9463 16.1316L11.5601 19.2408C11.4935 19.2768 11.4158 19.2864 11.3425 19.2675C11.2692 19.2487 11.2057 19.2028 11.1648 19.1391C11.1239 19.0754 11.1086 18.9986 11.1219 18.9241C11.1352 18.8496 11.1762 18.7829 11.2367 18.7374L15.8315 15.4746L11.5583 17.94C11.4917 17.9768 11.4136 17.9869 11.3398 17.9683C11.266 17.9497 11.2021 17.9037 11.1609 17.8398C11.1197 17.7758 11.1044 17.6985 11.118 17.6237C11.1317 17.5488 11.1732 17.4819 11.2343 17.4366L15.7199 14.241L11.5571 16.641C11.4902 16.6789 11.4113 16.6897 11.3367 16.6712C11.2621 16.6526 11.1975 16.6062 11.1561 16.5413C11.1148 16.4765 11.0999 16.3983 11.1146 16.3228C11.1292 16.2474 11.1723 16.1804 11.2349 16.1358L15.5735 13.0878L11.5535 15.408C11.4926 15.4432 11.4213 15.4559 11.352 15.4438C11.2827 15.4318 11.2198 15.3958 11.1744 15.3421C11.1289 15.2885 11.1038 15.2205 11.1033 15.1502C11.1029 15.0799 11.1271 15.0116 11.1719 14.9574L12.2051 13.707L11.5511 14.0844C11.5001 14.1138 11.4415 14.1276 11.3827 14.1239C11.3239 14.1203 11.2675 14.0994 11.2205 14.064C11.1736 14.0286 11.1382 13.9802 11.1186 13.9248C11.0989 13.8695 11.096 13.8096 11.1101 13.7526L11.2799 13.0632C11.2289 13.0411 11.185 13.0052 11.1532 12.9596C11.1213 12.914 11.1028 12.8605 11.0996 12.805C11.0964 12.7495 11.1088 12.6942 11.1352 12.6453C11.1616 12.5963 11.2011 12.5557 11.2493 12.528L11.5493 12.3552C11.6005 12.3262 11.6589 12.3127 11.7176 12.3163C11.7763 12.3199 11.8327 12.3405 11.8799 12.3756C11.9268 12.411 11.9622 12.4593 11.9818 12.5147C12.0015 12.5701 12.0044 12.63 11.9903 12.687L11.8613 13.2126L13.3469 12.36C13.4077 12.3247 13.4791 12.3119 13.5484 12.3239C13.6177 12.3358 13.6806 12.3717 13.7261 12.4254C13.7713 12.4794 13.7961 12.5475 13.7961 12.618C13.7961 12.6884 13.7713 12.7566 13.7261 12.8106L12.6929 14.0604L21.1199 9.19556C21.1868 9.15763 21.2656 9.14681 21.3403 9.16534C21.4149 9.18388 21.4795 9.23036 21.5209 9.29518C21.5622 9.36 21.5771 9.43822 21.5624 9.51369C21.5478 9.58917 21.5047 9.65613 21.4421 9.70076L17.0999 12.75L20.8445 10.59C20.9112 10.5519 20.99 10.5409 21.0646 10.5592C21.1392 10.5775 21.2039 10.6237 21.2455 10.6883C21.287 10.7529 21.3022 10.831 21.2879 10.9065C21.2735 10.982 21.2308 11.0491 21.1685 11.094L16.6865 14.289L21.0665 11.7606C21.1332 11.7234 21.2115 11.7131 21.2855 11.7317C21.3596 11.7503 21.4237 11.7964 21.465 11.8606C21.5062 11.9249 21.5214 12.0024 21.5074 12.0775C21.4935 12.1525 21.4514 12.2194 21.3899 12.2646L16.7951 15.5268L23.3207 11.76C23.3877 11.7231 23.4662 11.7132 23.5402 11.7322C23.6143 11.7513 23.6782 11.7979 23.7191 11.8626C23.7599 11.9272 23.7745 12.005 23.7599 12.0801C23.7453 12.1551 23.7026 12.2217 23.6405 12.2664L17.9399 16.179L25.5941 11.76C25.6615 11.7228 25.7405 11.7129 25.815 11.7324C25.8894 11.7518 25.9536 11.7992 25.9941 11.8646C26.0346 11.93 26.0485 12.0085 26.0328 12.0838C26.017 12.1592 25.973 12.2256 25.9097 12.2694L19.8857 16.248L27.6257 11.7804C27.6932 11.7442 27.7719 11.7351 27.8458 11.7551C27.9198 11.7751 27.9832 11.8226 28.0233 11.8878C28.0633 11.9531 28.0769 12.0312 28.0612 12.1062C28.0455 12.1811 28.0017 12.2472 27.9389 12.291L21.0191 16.791L28.7339 12.3372C28.802 12.3003 28.8817 12.2911 28.9563 12.3116C29.031 12.3321 29.0948 12.3807 29.1345 12.4472C29.1742 12.5136 29.1866 12.5929 29.1692 12.6683C29.1518 12.7438 29.1059 12.8096 29.0411 12.852L28.2095 13.3674L29.0879 12.8598C29.1554 12.8206 29.2356 12.8093 29.3113 12.8283C29.387 12.8473 29.4524 12.895 29.4935 12.9614C29.5345 13.0278 29.5481 13.1076 29.5313 13.1839C29.5145 13.2601 29.4687 13.3268 29.4035 13.3698L21.3479 18.687L29.0999 14.2122C29.1675 14.1755 29.2465 14.1662 29.3208 14.1861C29.3951 14.206 29.4588 14.2537 29.4989 14.3193C29.539 14.3849 29.5524 14.4634 29.5364 14.5386C29.5203 14.6138 29.4759 14.6799 29.4125 14.7234L24.7799 17.7072L28.6331 15.483C28.7004 15.4452 28.7797 15.4349 28.8544 15.4541C28.9292 15.4733 28.9937 15.5206 29.0344 15.5861C29.0752 15.6516 29.0892 15.7303 29.0735 15.8059C29.0577 15.8814 29.0135 15.948 28.9499 15.9918L23.0969 19.9038L29.5397 16.1838C29.6075 16.1475 29.6866 16.1387 29.7607 16.1591C29.8348 16.1795 29.8982 16.2275 29.9379 16.2933C29.9777 16.3591 29.9906 16.4377 29.9741 16.5127C29.9576 16.5878 29.9129 16.6537 29.8493 16.6968L29.3999 16.98L29.7893 16.7556C29.8567 16.7184 29.9357 16.7085 30.0102 16.728C30.0846 16.7474 30.1488 16.7948 30.1893 16.8602C30.2298 16.9256 30.2437 17.0041 30.228 17.0794C30.2122 17.1548 30.1682 17.2212 30.1049 17.265L25.2551 20.4756L27.8141 18.9984C27.8811 18.9593 27.9607 18.9478 28.0361 18.9662C28.1115 18.9846 28.1768 19.0315 28.2184 19.097C28.2599 19.1626 28.2744 19.2417 28.2589 19.3177C28.2434 19.3937 28.199 19.4608 28.1351 19.5048L24.0863 22.3122L28.8071 19.587C28.8744 19.5486 28.9538 19.5378 29.0289 19.5567C29.104 19.5756 29.1689 19.6228 29.2099 19.6885C29.251 19.7541 29.2651 19.8331 29.2493 19.9089C29.2335 19.9847 29.189 20.0514 29.1251 20.0952L26.3981 21.9426L29.1881 20.3322C29.2548 20.2941 29.3336 20.2831 29.4082 20.3014C29.4828 20.3197 29.5475 20.3659 29.5891 20.4305C29.6306 20.4951 29.6458 20.5732 29.6315 20.6487C29.6171 20.7242 29.5744 20.7913 29.5121 20.8362L26.5085 22.9752L26.9699 22.7088C27.0358 22.6709 27.1136 22.6595 27.1876 22.6768C27.2616 22.6942 27.3262 22.7389 27.3685 22.8021C27.4108 22.8652 27.4275 22.942 27.4154 23.017C27.4032 23.0921 27.363 23.1596 27.3029 23.2062L26.4701 23.844L27.6053 23.1888C27.6692 23.1511 27.7448 23.1384 27.8175 23.1533C27.8902 23.1681 27.9548 23.2093 27.9989 23.269C28.043 23.3286 28.0634 23.4025 28.0562 23.4764C28.049 23.5502 28.0147 23.6187 27.9599 23.6688L26.7455 24.798L28.0055 24.0696C28.0659 24.0348 28.1366 24.0221 28.2053 24.0338C28.274 24.0454 28.3366 24.0807 28.3821 24.1334C28.4277 24.1862 28.4535 24.2532 28.4551 24.3229C28.4566 24.3926 28.4339 24.4606 28.3907 24.5154L27.7457 25.332C27.8162 25.3088 27.8927 25.3127 27.9606 25.3427C28.0284 25.3727 28.0827 25.4268 28.113 25.4946C28.1433 25.5623 28.1474 25.6389 28.1246 25.7094C28.1017 25.78 28.0535 25.8396 27.9893 25.8768L26.6999 26.6232C26.6395 26.6579 26.5688 26.6706 26.5001 26.6589C26.4313 26.6473 26.3688 26.6121 26.3232 26.5593C26.2776 26.5065 26.2519 26.4396 26.2503 26.3699C26.2487 26.3002 26.2715 26.2321 26.3147 26.1774L26.9513 25.3728L24.7511 26.64C24.6872 26.6776 24.6116 26.6903 24.5389 26.6755C24.4662 26.6607 24.4016 26.6194 24.3575 26.5598C24.3134 26.5001 24.293 26.4262 24.3002 26.3524C24.3074 26.2785 24.3417 26.21 24.3965 26.16L25.6109 25.0308L22.8251 26.64C22.7592 26.6778 22.6814 26.6892 22.6074 26.6719C22.5334 26.6546 22.4687 26.6098 22.4264 26.5467C22.3842 26.4835 22.3674 26.4067 22.3796 26.3317C22.3918 26.2567 22.432 26.1891 22.4921 26.1426L23.3237 25.5036L21.3551 26.64C21.2885 26.6768 21.2104 26.6869 21.1366 26.6683C21.0628 26.6497 20.9989 26.6037 20.9577 26.5398C20.9165 26.4758 20.9012 26.3985 20.9148 26.3237C20.9284 26.2488 20.97 26.1819 21.0311 26.1366L24.0311 23.9982L19.4543 26.6382C19.4097 26.6654 19.3589 26.6805 19.3067 26.682Z" fill="white"/>
<path d="M15.3101 12.1855C15.2465 12.1855 15.1845 12.1654 15.1331 12.1279C15.0817 12.0905 15.0435 12.0377 15.0241 11.9771C15.0047 11.9166 15.005 11.8514 15.025 11.791C15.045 11.7307 15.0837 11.6782 15.1355 11.6413L16.5503 10.6273L16.0943 10.8901C16.028 10.9281 15.9496 10.9393 15.8752 10.9215C15.8009 10.9037 15.7361 10.8581 15.6942 10.7941C15.6523 10.7302 15.6364 10.6526 15.6498 10.5774C15.6632 10.5021 15.7048 10.4347 15.7661 10.3891L17.3735 9.20647L16.7033 9.59287C16.6368 9.63069 16.5584 9.64169 16.4841 9.6236C16.4097 9.60552 16.3451 9.55973 16.3034 9.49559C16.2618 9.43145 16.2461 9.35381 16.2598 9.27855C16.2735 9.20328 16.3153 9.13608 16.3769 9.09067L17.2373 8.46667L17.2307 8.47027C17.1651 8.50838 17.0876 8.52025 17.0136 8.50349C16.9397 8.48673 16.8748 8.44259 16.8321 8.37994C16.7894 8.3173 16.772 8.2408 16.7833 8.16583C16.7947 8.09087 16.8341 8.023 16.8935 7.97587L18.7709 6.48367L17.9375 6.96367C17.8736 7.00079 17.7982 7.01301 17.7259 6.99799C17.6535 6.98298 17.5893 6.94179 17.5454 6.88231C17.5015 6.82284 17.4812 6.74927 17.4882 6.6757C17.4952 6.60214 17.5292 6.53376 17.5835 6.48367L19.2911 4.90508L18.7595 5.21167C18.6973 5.24774 18.6242 5.26027 18.5536 5.24699C18.4829 5.23371 18.4194 5.19549 18.3745 5.1393C18.3297 5.08311 18.3065 5.01269 18.3092 4.94085C18.3119 4.86901 18.3403 4.80053 18.3893 4.74787L19.1009 3.98348C19.0503 3.96107 19.0068 3.92509 18.9754 3.87953C18.944 3.83396 18.9258 3.78058 18.9228 3.72531C18.9198 3.67003 18.9322 3.615 18.9585 3.56632C18.9849 3.51764 19.0242 3.4772 19.0721 3.44948L20.2487 2.76968C20.311 2.7336 20.3841 2.72111 20.4548 2.73446C20.5255 2.74782 20.589 2.78614 20.6338 2.84243C20.6786 2.89873 20.7017 2.96925 20.6989 3.04114C20.696 3.11303 20.6674 3.18151 20.6183 3.23408L20.1905 3.69308L21.3167 3.04328C21.3806 3.00616 21.456 2.99394 21.5283 3.00896C21.6007 3.02397 21.6649 3.06516 21.7088 3.12464C21.7527 3.18411 21.773 3.25768 21.766 3.33124C21.759 3.40481 21.725 3.47319 21.6707 3.52328L19.9625 5.10307L21.9695 3.94448C22.0351 3.90637 22.1126 3.8945 22.1866 3.91126C22.2605 3.92802 22.3254 3.97216 22.3681 4.0348C22.4108 4.09745 22.4282 4.17395 22.4169 4.24891C22.4055 4.32388 22.3661 4.39175 22.3067 4.43888L20.4317 5.92987L21.9317 5.06287C21.9982 5.02505 22.0766 5.01406 22.1509 5.03214C22.2253 5.05022 22.2899 5.09602 22.3316 5.16015C22.3733 5.22429 22.3889 5.30193 22.3752 5.3772C22.3616 5.45246 22.3197 5.51967 22.2581 5.56507L21.3953 6.19087L21.7499 5.98687C21.8162 5.94887 21.8946 5.93763 21.969 5.95546C22.0433 5.97329 22.1081 6.01884 22.15 6.0828C22.1919 6.14676 22.2078 6.22431 22.1944 6.29959C22.181 6.37488 22.1394 6.44223 22.0781 6.48787L20.4737 7.66867L21.5399 7.05307C21.6065 7.01542 21.685 7.00465 21.7594 7.02298C21.8337 7.04131 21.8982 7.08735 21.9396 7.15167C21.9811 7.216 21.9964 7.29374 21.9825 7.369C21.9685 7.44425 21.9263 7.51132 21.8645 7.55647L20.4485 8.57107L21.3431 8.05507C21.3772 8.03337 21.4154 8.01879 21.4554 8.01222C21.4953 8.00566 21.5361 8.00724 21.5754 8.01686C21.6147 8.02649 21.6517 8.04396 21.684 8.06824C21.7164 8.09251 21.7435 8.12308 21.7638 8.15811C21.784 8.19314 21.797 8.23191 21.8019 8.27207C21.8067 8.31224 21.8034 8.35297 21.7922 8.39183C21.7809 8.43069 21.7619 8.46687 21.7363 8.49819C21.7106 8.5295 21.679 8.55532 21.6431 8.57407L15.4601 12.1447C15.4146 12.1712 15.3628 12.1853 15.3101 12.1855Z" fill="white"/>
<path d="M8.84875 25.4819C8.78671 25.4819 8.7262 25.4626 8.67555 25.4268C8.62491 25.391 8.58662 25.3403 8.56595 25.2818C8.54529 25.2233 8.54327 25.1599 8.56018 25.1002C8.57709 25.0405 8.61208 24.9875 8.66035 24.9485L8.82895 24.8123L7.76335 25.4267C7.69717 25.4641 7.61927 25.4749 7.5454 25.4571C7.47152 25.4393 7.40717 25.394 7.36535 25.3306C7.32353 25.2671 7.30735 25.1901 7.32008 25.1152C7.33281 25.0403 7.37351 24.973 7.43395 24.9269L7.75975 24.6833L7.09135 25.0685C7.02534 25.1054 6.94785 25.1159 6.87438 25.0981C6.80092 25.0802 6.7369 25.0353 6.69512 24.9723C6.65335 24.9093 6.6369 24.8329 6.64906 24.7583C6.66123 24.6837 6.70112 24.6164 6.76075 24.5699L7.94515 23.6735L6.77515 24.3491C6.70889 24.3868 6.63077 24.3978 6.55666 24.38C6.48255 24.3621 6.41802 24.3168 6.37616 24.2531C6.3343 24.1894 6.31826 24.1121 6.3313 24.037C6.34434 23.9619 6.38547 23.8946 6.44635 23.8487L7.57135 23.0153L6.76795 23.4791C6.70231 23.5156 6.62539 23.5261 6.55239 23.5085C6.47938 23.491 6.4156 23.4468 6.37362 23.3845C6.33165 23.3223 6.31454 23.2466 6.32567 23.1723C6.3368 23.0981 6.37537 23.0307 6.43375 22.9835L8.41375 21.4367L6.76795 22.3865C6.7026 22.4247 6.62524 22.4368 6.55138 22.4203C6.47751 22.4038 6.4126 22.3601 6.36964 22.2977C6.32669 22.2354 6.30887 22.1592 6.31976 22.0843C6.33064 22.0094 6.36943 21.9414 6.42835 21.8939L8.91475 19.8635L6.76795 21.1031C6.70207 21.1402 6.62462 21.151 6.5511 21.1335C6.47757 21.1159 6.41339 21.0712 6.37139 21.0084C6.32938 20.9455 6.31266 20.8691 6.32455 20.7945C6.33645 20.7198 6.37609 20.6524 6.43555 20.6057L8.21155 19.2389L6.76795 20.0717C6.70194 20.1086 6.62445 20.1191 6.55098 20.1013C6.47752 20.0835 6.4135 20.0385 6.37172 19.9755C6.32995 19.9125 6.3135 19.8361 6.32566 19.7615C6.33783 19.6869 6.37772 19.6196 6.43735 19.5731L7.94875 18.4295L6.76795 19.1111C6.70247 19.149 6.6251 19.1607 6.55133 19.144C6.47757 19.1272 6.41285 19.0832 6.37014 19.0208C6.32743 18.9584 6.30988 18.8821 6.32101 18.8073C6.33214 18.7325 6.37112 18.6646 6.43015 18.6173L8.78455 16.7195L6.76795 17.8835C6.70132 17.9212 6.62281 17.9319 6.5485 17.9136C6.47419 17.8953 6.40969 17.8492 6.36822 17.7849C6.32674 17.7206 6.31142 17.6429 6.32538 17.5676C6.33935 17.4923 6.38155 17.4253 6.44335 17.3801L6.81715 17.1125L6.76795 17.1401C6.70194 17.177 6.62445 17.1875 6.55098 17.1697C6.47752 17.1519 6.4135 17.1069 6.37172 17.0439C6.32995 16.9809 6.3135 16.9045 6.32566 16.8299C6.33783 16.7553 6.37772 16.688 6.43735 16.6415L7.92955 15.5135L6.76795 16.1843C6.70132 16.222 6.62281 16.2327 6.5485 16.2144C6.47419 16.1961 6.40969 16.15 6.36822 16.0857C6.32674 16.0214 6.31142 15.9437 6.32538 15.8684C6.33935 15.7932 6.38155 15.7261 6.44335 15.6809L6.73375 15.4733C6.66652 15.502 6.59114 15.5051 6.52176 15.4822C6.45238 15.4592 6.39377 15.4117 6.35694 15.3486C6.32011 15.2854 6.30759 15.211 6.32173 15.1393C6.33588 15.0676 6.37571 15.0035 6.43375 14.9591L7.63015 14.0339L6.76675 14.5319C6.70328 14.5701 6.62792 14.5835 6.55519 14.5695C6.48245 14.5554 6.41747 14.515 6.37277 14.4559C6.32808 14.3968 6.30682 14.3233 6.31309 14.2495C6.31936 14.1757 6.35272 14.1068 6.40675 14.0561L7.60015 12.9071L6.76435 13.3871C6.70559 13.4207 6.63721 13.4334 6.57032 13.4232C6.50343 13.413 6.44196 13.3805 6.39588 13.3309C6.3498 13.2814 6.32183 13.2177 6.31651 13.1502C6.31118 13.0828 6.32882 13.0155 6.36655 12.9593L6.82315 12.2885C6.75462 12.2969 6.6853 12.2814 6.62688 12.2446C6.56845 12.2079 6.5245 12.152 6.50244 12.0866C6.48037 12.0212 6.48154 11.9502 6.50576 11.8855C6.52997 11.8209 6.57574 11.7666 6.63535 11.7317L7.62955 11.1581C7.68831 11.1246 7.75668 11.1119 7.82357 11.1221C7.89046 11.1323 7.95194 11.1648 7.99802 11.2144C8.04409 11.2639 8.07207 11.3276 8.07739 11.395C8.08272 11.4625 8.06508 11.5298 8.02735 11.5859L7.60135 12.2117L9.43315 11.1599C9.49661 11.1217 9.57197 11.1083 9.64471 11.1224C9.71745 11.1364 9.78243 11.1769 9.82712 11.2359C9.87182 11.295 9.89308 11.3685 9.88681 11.4423C9.88054 11.5162 9.84717 11.585 9.79315 11.6357L8.59795 12.7829L11.1875 11.2877C11.2535 11.2499 11.3313 11.2385 11.4053 11.2558C11.4792 11.2731 11.5439 11.3179 11.5862 11.381C11.6285 11.4442 11.6452 11.521 11.633 11.596C11.6208 11.671 11.5806 11.7386 11.5205 11.7851L10.3241 12.7103L11.7401 11.8925C11.8068 11.8549 11.8853 11.8441 11.9596 11.8624C12.0339 11.8808 12.0984 11.9268 12.1399 11.9911C12.1814 12.0555 12.1967 12.1332 12.1827 12.2085C12.1687 12.2837 12.1265 12.3508 12.0647 12.3959L11.7959 12.5885L11.8319 12.5681C11.898 12.5313 11.9755 12.5207 12.0489 12.5386C12.1224 12.5564 12.1864 12.6013 12.2282 12.6643C12.27 12.7273 12.2864 12.8038 12.2742 12.8784C12.2621 12.953 12.2222 13.0203 12.1625 13.0667L10.6703 14.1947L11.8319 13.5245C11.8986 13.4869 11.9771 13.4761 12.0514 13.4944C12.1257 13.5128 12.1902 13.5588 12.2317 13.6231C12.2732 13.6875 12.2885 13.7652 12.2745 13.8404C12.2605 13.9157 12.2183 13.9828 12.1565 14.0279L11.7869 14.2925L11.8319 14.2667C11.8974 14.2289 11.9748 14.2171 12.0486 14.2339C12.1223 14.2506 12.187 14.2946 12.2298 14.357C12.2725 14.4195 12.29 14.4957 12.2789 14.5705C12.2678 14.6454 12.2288 14.7132 12.1697 14.7605L9.81355 16.6601L11.8319 15.4949C11.898 15.4581 11.9755 15.4475 12.0489 15.4654C12.1224 15.4832 12.1864 15.5281 12.2282 15.5911C12.27 15.6541 12.2864 15.7306 12.2742 15.8052C12.2621 15.8798 12.2222 15.9471 12.1625 15.9935L10.6511 17.1377L11.8319 16.4561C11.8978 16.419 11.9753 16.4082 12.0488 16.4258C12.1223 16.4433 12.1865 16.488 12.2285 16.5509C12.2705 16.6137 12.2872 16.6901 12.2753 16.7648C12.2634 16.8394 12.2238 16.9068 12.1643 16.9535L10.3883 18.3197L11.8319 17.4875C11.8972 17.4503 11.9741 17.4388 12.0473 17.4555C12.1206 17.4722 12.1849 17.5158 12.2276 17.5776C12.2703 17.6395 12.2882 17.7151 12.2779 17.7895C12.2675 17.8639 12.2295 17.9317 12.1715 17.9795L9.68695 20.0087L11.8319 18.7697C11.8976 18.7333 11.9745 18.7228 12.0475 18.7403C12.1205 18.7578 12.1843 18.8021 12.2263 18.8643C12.2682 18.9265 12.2854 19.0023 12.2742 19.0765C12.2631 19.1508 12.2245 19.2181 12.1661 19.2653L10.1861 20.8133L11.8319 19.8599C11.8982 19.8222 11.9763 19.8112 12.0504 19.8291C12.1245 19.8469 12.1891 19.8923 12.2309 19.956C12.2728 20.0197 12.2888 20.0969 12.2758 20.172C12.2628 20.2471 12.2216 20.3145 12.1607 20.3603L11.0399 21.1949L11.8343 20.7371C11.9004 20.7003 11.9778 20.6897 12.0513 20.7076C12.1248 20.7254 12.1888 20.7703 12.2306 20.8333C12.2724 20.8963 12.2888 20.9728 12.2766 21.0474C12.2645 21.122 12.2246 21.1893 12.1649 21.2357L10.9775 22.1357L11.8343 21.6407C11.9006 21.6025 11.9789 21.591 12.0533 21.6086C12.1277 21.6262 12.1925 21.6715 12.2347 21.7353C12.2768 21.799 12.293 21.8765 12.2799 21.9518C12.2668 22.0272 12.2255 22.0946 12.1643 22.1405L11.8385 22.3841C11.9042 22.3477 11.9811 22.3372 12.0541 22.3547C12.1271 22.3722 12.1909 22.4164 12.2329 22.4787C12.2748 22.5409 12.292 22.6167 12.2808 22.6909C12.2697 22.7651 12.2311 22.8325 12.1727 22.8797L11.9255 23.0801C11.9843 23.0691 12.0451 23.0758 12.1 23.0995C12.1549 23.1233 12.2014 23.1628 12.2337 23.2132C12.2659 23.2636 12.2824 23.3224 12.2809 23.3822C12.2795 23.442 12.2602 23.5 12.2255 23.5487L11.7371 24.2297C11.807 24.1955 11.8874 24.1898 11.9614 24.2137C12.0354 24.2377 12.0972 24.2894 12.1338 24.3581C12.1704 24.4267 12.1789 24.5069 12.1575 24.5817C12.1361 24.6565 12.0865 24.72 12.0191 24.7589L10.8347 25.4399C10.7754 25.4741 10.7062 25.4869 10.6386 25.4763C10.571 25.4657 10.5091 25.4323 10.463 25.3817C10.417 25.331 10.3897 25.2662 10.3856 25.1979C10.3815 25.1296 10.4009 25.0619 10.4405 25.0061L10.9277 24.3269L8.99995 25.4399C8.95425 25.4673 8.90201 25.4818 8.84875 25.4819Z" fill="#3B2186"/>
<path d="M5.71175 34.5547C7.71275 38.1973 13.474 30.8239 15.7318 29.6011C37.8688 28.6363 35.9578 35.1667 35.8318 11.9143C35.728 0.583866 37.7397 -0.0389336 25.3132 0.399066H8.16875C5.11595 0.347466 -0.117245 -0.277733 0.165355 4.21207V25.7827C-0.241445 29.1457 2.88155 29.8723 5.56535 29.6011C5.66375 31.2373 5.35175 32.9587 5.71175 34.5547ZM2.49276 28.8337C-0.0344443 27.0937 1.38336 23.4337 1.03416 20.8333V5.29987C1.03416 3.49507 0.903955 0.911466 3.42815 0.799866C9.84395 0.778866 16.2646 0.813666 22.6822 0.799866C26.2516 1.09267 30.1737 0.165066 33.5883 1.21507C36.1936 2.57467 34.5172 11.4637 34.9683 14.5147C34.9683 18.4837 35.0565 22.4641 34.9683 26.4319C34.9371 27.8281 34.0492 29.1355 32.5618 29.1967C27.3574 29.2015 22.1522 29.2015 16.9462 29.1967C16.4245 29.1064 15.8881 29.1591 15.394 29.3493C14.8999 29.5395 14.4665 29.8599 14.14 30.2767L8.67995 34.7167C7.79135 35.7643 6.37775 34.7641 6.43535 33.5725C6.26915 26.9209 7.53515 30.3259 2.49276 28.8337Z" fill="black"/>
<path d="M6.1656 22.6349C6.1656 23.7689 5.9466 25.2893 7.5258 25.4051C9.0258 25.2251 11.7762 26.0999 12.3336 24.2009C14.9136 23.9609 16.5984 26.8223 19.1736 26.6009C21.7662 26.1395 27.9618 28.0523 28.6254 24.6275C28.6509 24.2902 28.5811 23.9525 28.4241 23.6529C28.2672 23.3532 28.0292 23.1036 27.7374 22.9325C29.7534 22.8275 30.6666 20.2001 28.7514 19.2449C29.2218 19.1845 29.6525 18.9499 29.9585 18.5874C30.2644 18.2249 30.4232 17.7609 30.4037 17.287C30.3842 16.8131 30.1877 16.3637 29.853 16.0276C29.5184 15.6915 29.0698 15.4931 28.596 15.4715C29.5716 14.9723 30.2508 13.9661 29.601 12.8213C28.1922 10.8599 23.52 12.1499 21.2238 11.7971C21.2964 9.68574 23.733 4.30374 21.8442 3.10014C21.3675 2.83726 20.8156 2.74425 20.2791 2.83638C19.7426 2.92851 19.2533 3.2003 18.8916 3.60714C17.4732 6.18714 16.3824 8.97774 15.0606 11.6201C14.5434 12.5921 13.3752 12.4325 12.4122 12.4001C12.0642 10.4345 9.3948 11.3861 7.9872 11.1887C7.71871 11.175 7.45063 11.2228 7.20341 11.3284C6.95619 11.434 6.73635 11.5947 6.56065 11.7982C6.38495 12.0017 6.25803 12.2426 6.18956 12.5026C6.1211 12.7625 6.1129 13.0347 6.1656 13.2983V22.6349ZM15.9402 11.4479C17.2002 8.96574 18.2202 6.35694 19.4922 3.88134C20.0472 2.86494 21.2028 3.17814 21.6276 4.10754C21.8514 6.73734 20.6496 9.43014 20.3352 12.0677C22.1352 12.7877 27.6216 11.2115 28.7352 13.0559C29.2092 13.8563 28.9002 15.3359 27.7812 15.3959C27.525 15.4097 26.832 15.8015 27.4212 15.8015C28.3812 15.8015 29.3526 16.1399 29.5416 17.2139C29.5972 17.4575 29.5904 17.7112 29.5219 17.9515C29.4535 18.1917 29.3255 18.4109 29.1499 18.5886C28.9743 18.7663 28.7567 18.8968 28.5172 18.9681C28.2778 19.0394 28.0242 19.0492 27.78 18.9965C27.5952 18.9965 26.874 19.3751 27.3234 19.4003C29.9394 19.8305 29.2368 23.1557 26.58 22.5965C26.3952 22.5965 25.674 22.9751 26.1234 23.0003C28.2528 23.0975 28.3092 26.3987 26.0418 26.1971C23.7846 26.1779 21.525 26.2319 19.269 26.1971C16.7946 25.9517 15.0636 23.2943 12.4044 23.7935C12.4932 20.1335 12.3888 16.4735 12.4506 12.8135C13.8 12.8333 15.24 12.8225 15.9402 11.4479ZM7.0398 12.4199C7.257 10.9889 9.4398 11.7965 10.467 11.6069C11.6322 11.6561 11.5656 12.7391 11.5656 13.5869C11.5158 17.1359 11.6466 20.7095 11.5554 24.2441C11.2866 25.6091 9.0804 24.7805 8.0586 24.9923C6.8394 24.8891 7.0344 23.5493 7.0344 22.6805C7.0626 19.2599 6.99 15.8315 7.0398 12.4199Z" fill="black"/>
</g>
<defs>
<clipPath id="clip0_156_813">
<rect width="36" height="36" fill="white"/>
</clipPath>
</defs>
</svg>
