<svg width="32" height="44" viewBox="0 0 32 44" fill="none" xmlns="http://www.w3.org/2000/svg">
<path d="M16.6689 43.6033C16.5915 43.6031 16.5161 43.5784 16.4536 43.5328C16.391 43.4871 16.3446 43.4229 16.3208 43.3492C16.297 43.2755 16.2972 43.1962 16.3212 43.1227C16.3453 43.0491 16.392 42.985 16.4547 42.9396L20.5467 39.9865L14.4241 43.5234C14.3418 43.5711 14.2441 43.5849 14.1517 43.5619C14.0594 43.5389 13.9796 43.4809 13.9292 43.4002C13.8788 43.3194 13.8618 43.2222 13.8818 43.1292C13.9017 43.0361 13.9571 42.9545 14.0362 42.9015L16.1812 41.4634L12.7785 43.428C12.6974 43.4738 12.6018 43.487 12.5113 43.4649C12.4208 43.4428 12.342 43.387 12.2912 43.3089C12.2403 43.2309 12.221 43.1364 12.2373 43.0446C12.2536 42.9528 12.3042 42.8707 12.3789 42.8149L17.7755 38.8667L10.3446 43.1538C10.2619 43.1999 10.1646 43.2124 10.073 43.1884C9.98136 43.1644 9.90257 43.106 9.8531 43.0252C9.80363 42.9445 9.78731 42.8477 9.80757 42.7552C9.82784 42.6627 9.8831 42.5816 9.9618 42.529L10.1649 42.3962L9.18226 42.9638C9.0995 43.0119 9.00121 43.0258 8.90837 43.0024C8.81554 42.979 8.73553 42.9203 8.68545 42.8387C8.63537 42.7571 8.61918 42.6591 8.64035 42.5658C8.66151 42.4724 8.71836 42.391 8.79873 42.339L9.35826 41.9724L8.04926 42.7284C7.96685 42.7753 7.86948 42.7884 7.7776 42.7651C7.68571 42.7417 7.60645 42.6836 7.55644 42.6031C7.50644 42.5225 7.48959 42.4257 7.50941 42.333C7.52924 42.2403 7.58422 42.1589 7.6628 42.1058L9.26366 41.0373L6.85979 42.4256C6.7777 42.4717 6.68099 42.4845 6.58971 42.4613C6.49842 42.4381 6.41957 42.3807 6.3695 42.3009C6.31943 42.2211 6.30198 42.1251 6.32076 42.0328C6.33955 41.9405 6.39313 41.859 6.47039 41.8052L8.5846 40.3678L5.67766 42.0457C5.59674 42.0924 5.50104 42.1064 5.41011 42.085C5.31918 42.0635 5.23988 42.0081 5.1884 41.9301C5.13691 41.8522 5.11714 41.7575 5.13311 41.6654C5.14908 41.5734 5.19959 41.4909 5.27433 41.4348L9.26586 38.4435L4.16993 41.3857C4.08918 41.4327 3.99354 41.447 3.90254 41.4259C3.81154 41.4047 3.73205 41.3497 3.6803 41.2719C3.62854 41.1941 3.60842 41.0995 3.62405 41.0074C3.63968 40.9153 3.68988 40.8326 3.76439 40.7763L7.08126 38.2477L3.02006 40.5944C2.94056 40.6401 2.84681 40.6544 2.75731 40.6344C2.66781 40.6144 2.58906 40.5616 2.53658 40.4863C2.48411 40.4111 2.46172 40.319 2.47384 40.2281C2.48597 40.1372 2.53171 40.0541 2.60206 39.9953L5.54786 37.5518L2.29553 39.4291C2.21745 39.4732 2.12593 39.4872 2.03826 39.4684C1.95059 39.4496 1.87286 39.3993 1.81976 39.327C1.76665 39.2548 1.74186 39.1656 1.75008 39.0763C1.75829 38.987 1.79893 38.9038 1.86433 38.8425L2.80006 37.9823C2.71424 38.0222 2.61632 38.0273 2.52679 37.9967C2.43725 37.966 2.36303 37.9019 2.31966 37.8178C2.27628 37.7337 2.26709 37.6361 2.29403 37.5454C2.32097 37.4547 2.38194 37.3779 2.46419 37.3311L5.30586 35.6906C5.38395 35.6459 5.47576 35.6315 5.5638 35.65C5.65184 35.6686 5.72998 35.719 5.78333 35.7914C5.83668 35.8639 5.86152 35.9534 5.85313 36.043C5.84473 36.1326 5.80368 36.216 5.7378 36.2773L4.80793 37.1309L8.93293 34.7505C9.01243 34.7048 9.10618 34.6905 9.19568 34.7105C9.28518 34.7305 9.36393 34.7833 9.41641 34.8585C9.46888 34.9338 9.49127 35.0259 9.47915 35.1168C9.46702 35.2077 9.42128 35.2908 9.35093 35.3496L6.40733 37.7916L11.6807 34.7468C11.7613 34.7012 11.8562 34.6878 11.9463 34.7093C12.0365 34.7308 12.1151 34.7855 12.1664 34.8626C12.2178 34.9397 12.2381 35.0334 12.2232 35.1248C12.2083 35.2162 12.1594 35.2986 12.0863 35.3555L8.76866 37.8855L14.2093 34.7446C14.2902 34.6989 14.3854 34.6857 14.4756 34.7075C14.5659 34.7293 14.6446 34.7846 14.6957 34.8621C14.7468 34.9397 14.7666 35.0337 14.751 35.1253C14.7355 35.2169 14.6857 35.2992 14.6119 35.3555L10.6189 38.3475L16.8661 34.7417C16.9482 34.6955 17.0449 34.6827 17.1362 34.7059C17.2275 34.7291 17.3064 34.7866 17.3564 34.8663C17.4065 34.9461 17.4239 35.0421 17.4052 35.1344C17.3864 35.2267 17.3328 35.3082 17.2555 35.3621L15.1421 36.7987L18.709 34.7395C18.7915 34.6905 18.8899 34.6758 18.9831 34.6985C19.0764 34.7212 19.1569 34.7796 19.2076 34.8611C19.2583 34.9426 19.275 35.0407 19.2542 35.1343C19.2333 35.228 19.1766 35.3098 19.0962 35.3621L17.5012 36.4254L20.4257 34.7387C20.5086 34.6878 20.6083 34.6718 20.7029 34.6944C20.7975 34.7169 20.8793 34.7762 20.9303 34.859C20.9812 34.9419 20.9972 35.0416 20.9746 35.1362C20.9521 35.2308 20.8929 35.3126 20.81 35.3635L20.2431 35.7302L21.9694 34.7336C22.0521 34.6874 22.1494 34.675 22.241 34.699C22.3326 34.7229 22.4114 34.7814 22.4609 34.8621C22.5104 34.9429 22.5267 35.0397 22.5064 35.1322C22.4862 35.2247 22.4309 35.3057 22.3522 35.3584L22.1586 35.4845L23.2652 34.8458C23.3462 34.8013 23.441 34.789 23.5307 34.8115C23.6204 34.8339 23.6983 34.8894 23.7488 34.9668C23.7993 35.0442 23.8187 35.1378 23.8032 35.2289C23.7876 35.32 23.7382 35.4019 23.6649 35.4581L18.2661 39.413L25.3061 35.3467C25.3884 35.2989 25.4861 35.2851 25.5785 35.3081C25.6708 35.3311 25.7507 35.3891 25.801 35.4698C25.8514 35.5506 25.8684 35.6478 25.8484 35.7409C25.8285 35.8339 25.7731 35.9156 25.694 35.9685L23.5424 37.411L26.4581 35.7243C26.5395 35.6788 26.6351 35.6659 26.7256 35.6883C26.8161 35.7107 26.8947 35.7668 26.9453 35.8451C26.9959 35.9234 27.0148 36.018 26.9982 36.1097C26.9815 36.2015 26.9305 36.2834 26.8556 36.3389L22.7673 39.292L27.8632 36.3499C27.9445 36.3037 28.0403 36.2902 28.1312 36.3123C28.222 36.3344 28.301 36.3904 28.3519 36.4688C28.4029 36.5472 28.422 36.6421 28.4053 36.7341C28.3886 36.826 28.3374 36.9082 28.2621 36.9637L25.0413 39.3023L28.9214 37.0619C29.0009 37.017 29.0943 37.0033 29.1833 37.0236C29.2723 37.0439 29.3506 37.0966 29.4028 37.1716C29.455 37.2465 29.4773 37.3382 29.4655 37.4287C29.4536 37.5193 29.4084 37.6021 29.3387 37.6611L26.2491 40.2277L29.7134 38.2265C29.792 38.1811 29.8846 38.1665 29.9734 38.1854C30.0621 38.2044 30.1407 38.2556 30.1939 38.3291C30.247 38.4026 30.2711 38.4933 30.2613 38.5835C30.2515 38.6737 30.2086 38.7571 30.1409 38.8175L29.1011 39.7467L29.3387 39.6103C29.3804 39.5838 29.4271 39.5659 29.4759 39.5579C29.5247 39.5499 29.5746 39.5518 29.6226 39.5636C29.6706 39.5753 29.7158 39.5967 29.7554 39.6264C29.7949 39.656 29.8281 39.6934 29.8528 39.7362C29.8776 39.779 29.8934 39.8264 29.8994 39.8755C29.9053 39.9246 29.9013 39.9744 29.8875 40.0219C29.8738 40.0694 29.8505 40.1136 29.8192 40.1519C29.7879 40.1901 29.7492 40.2217 29.7053 40.2446L26.3753 42.1667C26.2967 42.2121 26.2041 42.2267 26.1153 42.2077C26.0266 42.1888 25.948 42.1376 25.8948 42.0641C25.8416 41.9905 25.8176 41.8999 25.8274 41.8097C25.8372 41.7194 25.88 41.636 25.9477 41.5756L26.9861 40.6509L22.8736 43.0247C22.7941 43.0696 22.7007 43.0833 22.6117 43.063C22.5227 43.0428 22.4444 42.99 22.3922 42.9151C22.34 42.8401 22.3177 42.7484 22.3296 42.6579C22.3414 42.5674 22.3866 42.4845 22.4563 42.4256L25.5466 39.8589L19.3257 43.4522C19.2445 43.4984 19.1486 43.5119 19.0578 43.4898C18.9669 43.4677 18.888 43.4117 18.837 43.3333C18.7861 43.2549 18.767 43.16 18.7837 43.068C18.8004 42.9761 18.8516 42.8939 18.9268 42.8384L22.1476 40.5005L16.8522 43.5578C16.7962 43.589 16.7329 43.6047 16.6689 43.6033Z" fill="#BFDBF0"/>
<path d="M16.2133 40.6641C16.137 40.6641 16.0627 40.6403 16.0006 40.596C15.9385 40.5518 15.8918 40.4893 15.8668 40.4173C15.8419 40.3453 15.8401 40.2672 15.8615 40.1941C15.883 40.121 15.9267 40.0563 15.9867 40.0092L18.2857 38.2067L14.8793 40.1727C14.7978 40.2181 14.7021 40.2307 14.6116 40.208C14.5211 40.1853 14.4427 40.1289 14.3923 40.0504C14.3419 39.9719 14.3234 39.8771 14.3404 39.7854C14.3575 39.6937 14.4088 39.6119 14.4841 39.5567L18.4309 36.7576L13.8446 39.4057C13.7628 39.4514 13.6666 39.464 13.5758 39.441C13.4849 39.4181 13.4064 39.3612 13.3562 39.2821C13.3059 39.2029 13.2879 39.1076 13.3058 39.0156C13.3237 38.9237 13.3761 38.842 13.4523 38.7875L19.3057 34.7446L12.7461 38.5315C12.6638 38.5784 12.5667 38.5916 12.4749 38.5685C12.3832 38.5454 12.3039 38.4877 12.2537 38.4075C12.2035 38.3272 12.1862 38.2307 12.2056 38.1381C12.2249 38.0454 12.2793 37.9639 12.3574 37.9104L19.5683 33.0403L11.6615 37.6017C11.5787 37.6472 11.4816 37.659 11.3904 37.6347C11.2992 37.6104 11.2208 37.5519 11.1717 37.4712C11.1225 37.3906 11.1064 37.2942 11.1266 37.2019C11.1468 37.1097 11.2018 37.0288 11.2801 36.9761L15.6552 34.1733L10.9054 36.9153C10.8221 36.9655 10.7223 36.9807 10.6279 36.9574C10.5335 36.9341 10.4522 36.8742 10.402 36.791C10.3517 36.7077 10.3365 36.6079 10.3598 36.5135C10.3832 36.4191 10.443 36.3378 10.5263 36.2875L13.4596 34.441L10.2513 36.2927C10.1684 36.3364 10.0719 36.3467 9.98158 36.3215C9.8913 36.2963 9.81411 36.2375 9.76585 36.1571C9.7176 36.0767 9.70196 35.981 9.72213 35.8894C9.7423 35.7979 9.79676 35.7176 9.87432 35.6649L12.0061 34.3332L9.64846 35.6943C9.56551 35.7451 9.46575 35.761 9.37113 35.7383C9.27651 35.7156 9.19478 35.6562 9.14392 35.5733C9.09307 35.4903 9.07724 35.3906 9.09993 35.2959C9.12263 35.2013 9.18197 35.1196 9.26493 35.0687L18.6648 28.9725L8.71272 34.716C8.6298 34.7616 8.53245 34.7734 8.44104 34.7489C8.34963 34.7243 8.27125 34.6654 8.22228 34.5844C8.17331 34.5035 8.15755 34.4067 8.17829 34.3143C8.19904 34.222 8.25469 34.1413 8.33359 34.089L16.1209 29.1449L7.94859 33.8631C7.86534 33.9111 7.76657 33.9245 7.67354 33.9005C7.58051 33.8764 7.50065 33.8167 7.45115 33.7344C7.40165 33.652 7.38647 33.5535 7.40887 33.46C7.43127 33.3666 7.48946 33.2856 7.57093 33.2347L14.0595 29.1654L7.28566 33.0733C7.20236 33.1203 7.10403 33.1328 7.01162 33.1083C6.91922 33.0837 6.84004 33.0241 6.79098 32.942C6.74192 32.86 6.72685 32.762 6.74898 32.669C6.77111 32.576 6.82869 32.4953 6.90946 32.4441L11.517 29.5841L6.71586 32.3598C6.63256 32.4067 6.53423 32.4193 6.44182 32.3947C6.34941 32.3702 6.27024 32.3106 6.22118 32.2285C6.17212 32.1464 6.15705 32.0485 6.17918 31.9555C6.20131 31.8625 6.25889 31.7818 6.33966 31.7306L9.84866 29.5651L6.19666 31.6734C6.11379 31.7197 6.01618 31.7321 5.92438 31.7079C5.83257 31.6837 5.75372 31.6249 5.70441 31.5438C5.65511 31.4626 5.63919 31.3655 5.66002 31.2729C5.68084 31.1803 5.73677 31.0994 5.81606 31.0471L16.5403 24.233L5.45672 30.6321C5.37329 30.6821 5.27341 30.6968 5.17907 30.6732C5.08472 30.6495 5.00364 30.5894 4.95366 30.5059C4.90367 30.4225 4.88888 30.3226 4.91254 30.2283C4.93619 30.1339 4.99635 30.0529 5.07979 30.0029L10.7881 26.4689L4.93972 29.8423C4.85665 29.8888 4.75872 29.9012 4.66666 29.8768C4.5746 29.8525 4.49563 29.7932 4.44647 29.7117C4.3973 29.6301 4.3818 29.5326 4.40324 29.4399C4.42467 29.3471 4.48137 29.2663 4.56132 29.2145L13.2682 23.7666L4.36626 28.9087C4.28323 28.9562 4.18496 28.9693 4.09239 28.9453C3.99981 28.9214 3.92027 28.8622 3.87072 28.7804C3.82117 28.6986 3.80553 28.6007 3.82714 28.5075C3.84875 28.4144 3.90589 28.3334 3.98639 28.2817L15.763 20.8017L3.72459 27.7537C3.64144 27.8042 3.54165 27.8196 3.44717 27.7965C3.35269 27.7734 3.27126 27.7137 3.22079 27.6305C3.17032 27.5474 3.15494 27.4476 3.17805 27.3531C3.20115 27.2586 3.26084 27.1772 3.34399 27.1267L15.3465 19.5067L3.13059 26.5555C3.04734 26.6 2.95014 26.6106 2.85922 26.5853C2.7683 26.5599 2.69066 26.5004 2.64247 26.4193C2.59428 26.3381 2.57925 26.2415 2.60051 26.1495C2.62176 26.0576 2.67767 25.9773 2.75659 25.9255L3.00152 25.7789L2.82406 25.8815C2.74113 25.9271 2.64378 25.9389 2.55237 25.9144C2.46096 25.8899 2.38258 25.831 2.33361 25.75C2.28464 25.669 2.26888 25.5722 2.28962 25.4799C2.31037 25.3875 2.36602 25.3068 2.44492 25.2545L13.8116 18.0679L2.34226 24.6891C2.25891 24.7352 2.1609 24.7471 2.06897 24.7222C1.97704 24.6973 1.89841 24.6376 1.84972 24.5557C1.80103 24.4739 1.7861 24.3763 1.80808 24.2836C1.83007 24.1909 1.88725 24.1105 1.96752 24.0592L4.72412 22.3725L2.06286 23.9125C1.9796 23.9605 1.88084 23.9739 1.7878 23.9499C1.69477 23.9258 1.61491 23.8661 1.56541 23.7838C1.51591 23.7014 1.50073 23.6029 1.52313 23.5094C1.54553 23.416 1.60372 23.335 1.68519 23.2841L10.7426 17.6L1.72259 22.8067C1.63956 22.8541 1.54129 22.8673 1.44872 22.8433C1.35615 22.8193 1.27661 22.7601 1.22705 22.6783C1.1775 22.5965 1.16187 22.4986 1.18347 22.4055C1.20508 22.3123 1.26223 22.2313 1.34272 22.1797L12.8627 14.8507L1.37426 21.4815C1.29106 21.5266 1.19365 21.5378 1.1024 21.5128C1.01114 21.4877 0.933101 21.4284 0.884607 21.3471C0.836113 21.2658 0.820917 21.169 0.842198 21.0768C0.863478 20.9845 0.919586 20.9041 0.998788 20.8523L4.35526 18.7858L1.19606 20.6067C1.11431 20.6435 1.02192 20.649 0.936342 20.6224C0.850765 20.5957 0.777932 20.5385 0.731611 20.4618C0.68529 20.385 0.668691 20.294 0.68495 20.2058C0.70121 20.1177 0.749202 20.0385 0.819855 19.9833L11.5038 13.1773L0.985588 19.2471C0.902339 19.2916 0.805137 19.3022 0.714216 19.2769C0.623295 19.2515 0.545659 19.192 0.49747 19.1109C0.44928 19.0297 0.434249 18.9331 0.455506 18.8411C0.476763 18.7491 0.532669 18.6689 0.611588 18.6171L0.852855 18.4705C0.768122 18.5053 0.673414 18.5072 0.587378 18.4757C0.501343 18.4442 0.430214 18.3816 0.387995 18.3003C0.345777 18.219 0.335527 18.1248 0.359266 18.0363C0.383004 17.9479 0.439008 17.8715 0.516255 17.8222L10.5153 11.418L0.819855 17.0133C0.737246 17.0603 0.63963 17.0734 0.547581 17.0498C0.455532 17.0262 0.37624 16.9677 0.326416 16.8868C0.276592 16.8059 0.260128 16.7088 0.280494 16.616C0.300859 16.5232 0.356464 16.4419 0.435588 16.3893L11.3065 9.28987L0.846988 15.3267C0.764061 15.3723 0.666712 15.384 0.575305 15.3595C0.483897 15.335 0.40551 15.2761 0.35654 15.1951C0.30757 15.1141 0.29181 15.0173 0.312557 14.925C0.333303 14.8327 0.388949 14.7519 0.467855 14.6997L5.72072 11.3821L0.981922 14.1196C0.89937 14.1675 0.801412 14.1813 0.708852 14.1581C0.616292 14.1349 0.536424 14.0765 0.48621 13.9953C0.435997 13.9142 0.419395 13.8167 0.43993 13.7235C0.460465 13.6303 0.51652 13.5488 0.596188 13.4963L9.66753 7.48293L1.38085 12.2679C1.29826 12.3128 1.20161 12.3242 1.11085 12.2998C1.02009 12.2754 0.942151 12.2171 0.893124 12.137C0.844098 12.0568 0.827726 11.9609 0.847389 11.869C0.867052 11.7771 0.921247 11.6962 0.998788 11.6431L5.43692 8.78313L1.85386 10.8533C1.7711 10.9015 1.6728 10.9153 1.57996 10.8919C1.48713 10.8685 1.40712 10.8098 1.35704 10.7282C1.30696 10.6466 1.29077 10.5487 1.31194 10.4553C1.33311 10.3619 1.38995 10.2805 1.47032 10.2285L4.97492 7.94713L2.53366 9.3566C2.4509 9.40472 2.3526 9.41858 2.25976 9.39519C2.16693 9.37181 2.08692 9.31304 2.03684 9.23145C1.98676 9.14986 1.97057 9.05192 1.99174 8.95856C2.01291 8.86519 2.06975 8.78381 2.15012 8.7318L3.35352 7.9486C3.27273 7.98945 3.17968 7.99897 3.09229 7.97532C3.00489 7.95167 2.92934 7.89652 2.88018 7.8205C2.83101 7.74448 2.81171 7.65295 2.82599 7.56355C2.84027 7.47415 2.88712 7.39319 2.95752 7.33626L6.49073 4.50046C6.4047 4.53691 6.30801 4.53913 6.2204 4.5067C6.13279 4.47426 6.06086 4.40961 6.01931 4.32594C5.97775 4.24227 5.9697 4.14589 5.9968 4.05648C6.0239 3.96707 6.08411 3.89138 6.16512 3.84487L10.263 1.47913C10.3429 1.43471 10.4365 1.42172 10.5254 1.44272C10.6144 1.46371 10.6923 1.51718 10.7439 1.59263C10.7955 1.66809 10.817 1.76009 10.8043 1.8506C10.7916 1.94112 10.7455 2.02362 10.6751 2.08193L7.15512 4.9082L14.8302 0.475931C14.913 0.427805 15.0112 0.413955 15.1041 0.437339C15.1969 0.460724 15.2769 0.519489 15.327 0.601078C15.3771 0.682666 15.3933 0.780607 15.3721 0.873972C15.3509 0.967336 15.2941 1.04872 15.2137 1.10073L14.0323 1.87L16.4787 0.457598C16.5615 0.409472 16.6598 0.395621 16.7526 0.419006C16.8455 0.442391 16.9255 0.501156 16.9755 0.582745C17.0256 0.664333 17.0418 0.762274 17.0206 0.855638C16.9995 0.949003 16.9426 1.03039 16.8623 1.0824L13.3533 3.36747L18.1199 0.615265C18.2025 0.571549 18.2985 0.56097 18.3886 0.585684C18.4787 0.610398 18.5559 0.668544 18.6045 0.748258C18.6532 0.827971 18.6696 0.923244 18.6504 1.01464C18.6312 1.10603 18.5779 1.18666 18.5013 1.24006L14.0551 4.10666L19.5859 0.912265C19.6684 0.864401 19.7664 0.850605 19.8589 0.873807C19.9515 0.897009 20.0314 0.95538 20.0816 1.03652C20.1318 1.11767 20.1484 1.21519 20.1279 1.30838C20.1073 1.40156 20.0513 1.48308 19.9716 1.5356L10.9047 7.54453L21.3767 1.49893C21.4596 1.45333 21.5569 1.44156 21.6483 1.46608C21.7398 1.4906 21.8181 1.54951 21.8671 1.6305C21.9161 1.71148 21.9318 1.80826 21.9111 1.9006C21.8903 1.99294 21.8347 2.07368 21.7558 2.12593L16.5132 5.43913L22.4884 1.99246C22.5709 1.94701 22.6678 1.93507 22.7589 1.95913C22.85 1.98319 22.9283 2.04139 22.9777 2.12166C23.027 2.20193 23.0435 2.29812 23.0239 2.39026C23.0042 2.4824 22.9498 2.56343 22.8719 2.61653L11.9966 9.72033L23.9433 2.827C24.0261 2.7815 24.1231 2.76967 24.2144 2.79396C24.3056 2.81826 24.384 2.87681 24.4331 2.95742C24.4823 3.03804 24.4984 3.1345 24.4782 3.22673C24.458 3.31896 24.403 3.39984 24.3247 3.45253L14.3235 9.8494L25.0807 3.6388C25.1641 3.59272 25.2621 3.58087 25.354 3.60578C25.4459 3.63068 25.5246 3.69037 25.5733 3.77223C25.622 3.85408 25.6369 3.95167 25.6149 4.04433C25.5929 4.137 25.5357 4.21748 25.4555 4.26873L25.3359 4.34207L25.6872 4.13967C25.7701 4.09334 25.8677 4.08097 25.9595 4.10515C26.0513 4.12933 26.1301 4.18817 26.1794 4.2693C26.2287 4.35043 26.2447 4.44752 26.2238 4.54014C26.203 4.63277 26.1471 4.71371 26.0678 4.76593L15.3809 11.5735L26.6596 5.06C26.701 5.03535 26.7468 5.01908 26.7944 5.01213C26.8421 5.00518 26.8906 5.00769 26.9373 5.0195C26.984 5.03132 27.0279 5.05221 27.0665 5.08099C27.1051 5.10977 27.1376 5.14587 27.1623 5.18723C27.187 5.22859 27.2032 5.27441 27.2102 5.32205C27.2171 5.3697 27.2146 5.41825 27.2028 5.46493C27.191 5.51161 27.1701 5.55551 27.1413 5.59411C27.1125 5.63272 27.0764 5.66528 27.0351 5.68993L23.6581 7.77333L27.2419 5.70093C27.283 5.67594 27.3287 5.6593 27.3763 5.65197C27.4239 5.64464 27.4725 5.64675 27.5193 5.65819C27.5661 5.66963 27.6101 5.69017 27.649 5.71865C27.6878 5.74712 27.7207 5.78296 27.7457 5.82413C27.7707 5.8653 27.7873 5.91099 27.7946 5.95859C27.802 6.00619 27.7998 6.05477 27.7884 6.10155C27.777 6.14833 27.7564 6.1924 27.728 6.23124C27.6995 6.27009 27.6636 6.30294 27.6225 6.32793L16.1128 13.6495L28.0727 6.74667C28.1561 6.69649 28.2559 6.68147 28.3503 6.70492C28.4448 6.72837 28.526 6.78836 28.5762 6.8717C28.6263 6.95504 28.6414 7.0549 28.6179 7.14931C28.5945 7.24372 28.5345 7.32495 28.4511 7.37513L19.3842 13.0533L28.6975 7.67653C28.7809 7.63045 28.8789 7.61861 28.9708 7.64351C29.0627 7.66841 29.1414 7.72811 29.1901 7.80996C29.2388 7.89181 29.2537 7.9894 29.2317 8.08207C29.2097 8.17474 29.1525 8.25521 29.0723 8.30646L26.3186 9.99313L29.1148 8.3798C29.1977 8.3342 29.2951 8.32242 29.3865 8.34694C29.4779 8.37146 29.5563 8.43038 29.6052 8.51136C29.6542 8.59235 29.67 8.68913 29.6492 8.78147C29.6285 8.87381 29.5728 8.95454 29.4939 9.0068L18.1273 16.1935L29.6905 9.52013C29.774 9.47253 29.8729 9.45964 29.9658 9.48425C30.0588 9.50885 30.1383 9.56898 30.1874 9.65168C30.2364 9.73437 30.251 9.83303 30.228 9.92638C30.205 10.0197 30.1463 10.1003 30.0645 10.1508L29.8159 10.3026L29.9845 10.2051C30.0677 10.1546 30.1675 10.1392 30.262 10.1623C30.3564 10.1854 30.4379 10.2451 30.4883 10.3283C30.5388 10.4114 30.5542 10.5112 30.5311 10.6057C30.508 10.7002 30.4483 10.7816 30.3651 10.8321L18.3597 18.4587L30.4509 11.4767C30.534 11.4292 30.6322 11.4161 30.7248 11.4401C30.8174 11.464 30.8969 11.5232 30.9465 11.605C30.996 11.6868 31.0117 11.7847 30.9901 11.8779C30.9684 11.971 30.9113 12.052 30.8308 12.1037L19.0593 19.58L30.7993 12.8025C30.8825 12.7545 30.9813 12.7411 31.0743 12.7652C31.1674 12.7893 31.2472 12.8489 31.2967 12.9313C31.3462 13.0137 31.3614 13.1122 31.339 13.2056C31.3166 13.2991 31.2584 13.38 31.1769 13.431L22.4627 18.8811L31.0141 13.9451C31.0972 13.9007 31.1941 13.89 31.2848 13.9151C31.3756 13.9403 31.4531 13.9994 31.5015 14.0802C31.5498 14.1609 31.5653 14.2572 31.5446 14.3491C31.5239 14.4409 31.4687 14.5213 31.3903 14.5735L25.6872 18.1045L31.13 14.96C31.213 14.9126 31.3113 14.8994 31.4039 14.9234C31.4964 14.9474 31.576 15.0066 31.6255 15.0884C31.6751 15.1701 31.6907 15.268 31.6691 15.3612C31.6475 15.4544 31.5904 15.5354 31.5099 15.587L20.7893 22.4019L31.1945 16.3944C31.2359 16.3697 31.2817 16.3535 31.3294 16.3465C31.377 16.3396 31.4256 16.3421 31.4722 16.3539C31.5189 16.3657 31.5628 16.3866 31.6014 16.4154C31.64 16.4442 31.6726 16.4803 31.6972 16.5216C31.7219 16.563 31.7382 16.6088 31.7451 16.6565C31.7521 16.7041 31.7495 16.7527 31.7377 16.7993C31.7259 16.846 31.705 16.8899 31.6762 16.9285C31.6475 16.9671 31.6114 16.9997 31.57 17.0243L28.05 19.195L31.1557 17.4013C31.2391 17.3513 31.339 17.3365 31.4333 17.3601C31.5277 17.3838 31.6088 17.444 31.6587 17.5274C31.7087 17.6108 31.7235 17.7107 31.6999 17.8051C31.6762 17.8994 31.616 17.9805 31.5326 18.0305L26.9324 20.8846L31.0486 18.5079C31.1319 18.4577 31.2318 18.4427 31.3262 18.4661C31.373 18.4777 31.417 18.4984 31.4557 18.5271C31.4945 18.5557 31.5272 18.5916 31.552 18.6329C31.5769 18.6742 31.5934 18.7199 31.6005 18.7676C31.6077 18.8152 31.6054 18.8638 31.5938 18.9105C31.5822 18.9573 31.5615 19.0013 31.5329 19.04C31.5042 19.0788 31.4683 19.1115 31.427 19.1363L24.9355 23.2071L30.8543 19.7905C30.9372 19.7449 31.0345 19.7331 31.126 19.7576C31.2174 19.7821 31.2957 19.841 31.3447 19.922C31.3937 20.003 31.4094 20.0998 31.3887 20.1921C31.368 20.2845 31.3123 20.3652 31.2334 20.4175L23.4461 25.3631L30.5411 21.2667C30.5822 21.2415 30.6278 21.2246 30.6754 21.2171C30.723 21.2095 30.7716 21.2114 30.8185 21.2227C30.8653 21.2339 30.9095 21.2543 30.9485 21.2826C30.9875 21.3109 31.0205 21.3466 31.0457 21.3877C31.0709 21.4287 31.0877 21.4744 31.0952 21.522C31.1028 21.5695 31.1009 21.6181 31.0897 21.665C31.0784 21.7118 31.0581 21.756 31.0298 21.795C31.0015 21.834 30.9657 21.867 30.9247 21.8922L21.5277 27.9877L30.0065 23.0912C30.0897 23.0454 30.1873 23.0336 30.2789 23.0584C30.3706 23.0831 30.4491 23.1424 30.4979 23.2238C30.5467 23.3052 30.562 23.4023 30.5407 23.4948C30.5194 23.5873 30.463 23.6679 30.3835 23.7197L28.2465 25.0551L29.5665 24.2946C29.6495 24.249 29.7468 24.2372 29.8382 24.2617C29.9296 24.2863 30.008 24.3452 30.057 24.4262C30.106 24.5071 30.1217 24.6039 30.101 24.6963C30.0802 24.7886 30.0246 24.8693 29.9457 24.9216L27.0123 26.7703L29.0026 25.6212C29.0855 25.5749 29.1831 25.5625 29.2749 25.5867C29.3667 25.6109 29.4455 25.6697 29.4948 25.7508C29.5441 25.832 29.5601 25.9291 29.5392 26.0217C29.5184 26.1143 29.4625 26.1952 29.3832 26.2475L25.0111 29.0495L28.2135 27.2008C28.2956 27.1546 28.3923 27.1418 28.4836 27.165C28.5749 27.1882 28.6538 27.2457 28.7038 27.3255C28.7539 27.4052 28.7714 27.5012 28.7526 27.5935C28.7338 27.6858 28.6802 27.7673 28.6029 27.8212L21.3899 32.692L26.796 29.5709C26.8779 29.5247 26.9745 29.5117 27.0657 29.5346C27.1569 29.5576 27.2358 29.6147 27.2861 29.6942C27.3364 29.7737 27.3543 29.8694 27.3359 29.9617C27.3176 30.054 27.2645 30.1357 27.1876 30.1899L21.3334 34.2327L24.8805 32.1853C24.962 32.1399 25.0578 32.1273 25.1483 32.15C25.2387 32.1727 25.3172 32.2291 25.3675 32.3076C25.4179 32.3861 25.4365 32.4809 25.4194 32.5726C25.4024 32.6643 25.351 32.7461 25.2758 32.8013L21.3312 35.5982L22.3784 34.9939C22.4587 34.9477 22.5535 34.9336 22.6438 34.9544C22.7341 34.9752 22.8131 35.0294 22.865 35.1062C22.917 35.1829 22.9379 35.2765 22.9237 35.368C22.9095 35.4596 22.8611 35.5423 22.7883 35.5997L18.6743 38.83C18.6823 38.8408 18.6897 38.8521 18.6963 38.8637C18.7449 38.9479 18.7581 39.048 18.733 39.142C18.7078 39.2359 18.6463 39.316 18.5621 39.3646L16.3966 40.6113C16.3413 40.645 16.278 40.6633 16.2133 40.6641Z" fill="#3B2186"/>
<path d="M17.3844 26.0113C17.3061 26.0115 17.2299 25.9865 17.1668 25.9401C17.1037 25.8938 17.0571 25.8284 17.0338 25.7537C17.0106 25.6789 17.0118 25.5987 17.0374 25.5247C17.063 25.4507 17.1117 25.3869 17.1762 25.3425L17.6037 25.0492L16.0219 25.96C15.9418 26.0057 15.8474 26.0195 15.7576 25.9987C15.6678 25.9779 15.5891 25.9241 15.5372 25.8478C15.4853 25.7716 15.464 25.6786 15.4776 25.5874C15.4912 25.4962 15.5386 25.4135 15.6105 25.3557L19.0645 22.6109L13.2624 25.96C13.1823 26.0063 13.0878 26.0206 12.9976 26.0002C12.9075 25.9797 12.8284 25.9259 12.7761 25.8496C12.7239 25.7733 12.7025 25.6801 12.7161 25.5887C12.7297 25.4972 12.7773 25.4143 12.8495 25.3565L16.3365 22.5698L10.4698 25.9578C10.3883 26.0032 10.2926 26.0158 10.2021 25.9931C10.1116 25.9704 10.0332 25.914 9.98281 25.8355C9.93243 25.757 9.91387 25.6622 9.93092 25.5705C9.94796 25.4788 9.99933 25.397 10.0746 25.3418L11.8052 24.1179L8.77583 25.8661C8.69439 25.9122 8.59843 25.9253 8.50761 25.9029C8.41679 25.8805 8.33796 25.8242 8.28726 25.7456C8.23657 25.667 8.21784 25.572 8.23491 25.48C8.25198 25.388 8.30356 25.3061 8.37909 25.2509L10.1296 24.0042L7.68096 25.4181C7.60044 25.4634 7.50578 25.4766 7.41592 25.4552C7.32605 25.4337 7.24761 25.3791 7.19627 25.3023C7.14493 25.2254 7.12449 25.1321 7.13903 25.0408C7.15357 24.9496 7.20202 24.8672 7.27469 24.8101L9.74676 22.9086L6.77163 24.6261C6.69304 24.6715 6.60041 24.6861 6.51167 24.6671C6.42292 24.6482 6.34436 24.597 6.29117 24.5234C6.23798 24.4499 6.21396 24.3593 6.22373 24.269C6.23351 24.1788 6.27639 24.0954 6.34409 24.035L8.71349 21.9267L6.11529 23.4227C6.03724 23.4662 5.94599 23.4797 5.85868 23.4606C5.77137 23.4416 5.69402 23.3913 5.64116 23.3193C5.58829 23.2473 5.56356 23.1584 5.5716 23.0694C5.57964 22.9804 5.6199 22.8974 5.68482 22.836L6.77676 21.8423L5.93856 22.3256C5.86727 22.3669 5.78415 22.383 5.7026 22.3713C5.62104 22.3596 5.54581 22.3208 5.48902 22.2611C5.43214 22.2012 5.39713 22.1239 5.38968 22.0416C5.38223 21.9594 5.40276 21.877 5.44796 21.8079L6.05296 20.8839C5.97588 20.9015 5.89518 20.8942 5.82254 20.863C5.74989 20.8317 5.68908 20.7782 5.64889 20.7101C5.60044 20.626 5.58728 20.5262 5.6123 20.4324C5.63732 20.3387 5.69847 20.2587 5.78236 20.2099L6.99896 19.5081C7.07033 19.4669 7.15351 19.4509 7.23509 19.4627C7.31666 19.4746 7.39186 19.5136 7.44856 19.5734C7.50526 19.6332 7.54014 19.7104 7.54758 19.7925C7.55502 19.8746 7.53458 19.9568 7.48956 20.0259L6.90289 20.9227L9.35663 19.5067C9.43468 19.4632 9.52593 19.4497 9.61324 19.4687C9.70055 19.4877 9.7779 19.538 9.83076 19.61C9.88362 19.6821 9.90836 19.7709 9.90032 19.8599C9.89228 19.9489 9.85201 20.0319 9.78709 20.0933L8.69516 21.087L11.4356 19.5067C11.5136 19.4653 11.6038 19.4535 11.6898 19.4733C11.7758 19.4932 11.8517 19.5434 11.9037 19.6147C11.9557 19.686 11.9802 19.7736 11.9727 19.8616C11.9653 19.9495 11.9264 20.0318 11.8632 20.0933L9.49083 22.2097L14.1842 19.503C14.2647 19.4577 14.3593 19.4444 14.4492 19.4659C14.5391 19.4874 14.6175 19.542 14.6689 19.6188C14.7202 19.6956 14.7406 19.789 14.7261 19.8802C14.7116 19.9715 14.6631 20.0539 14.5904 20.1109L12.1132 22.0139L16.4619 19.5067C16.5434 19.4601 16.6397 19.4467 16.7309 19.469C16.8221 19.4914 16.9012 19.5479 16.952 19.6269C17.0028 19.7059 17.0213 19.8013 17.0038 19.8935C16.9863 19.9858 16.9341 20.0678 16.8579 20.1227L15.106 21.3693L18.3326 19.5074C18.4141 19.462 18.5099 19.4494 18.6004 19.4721C18.6908 19.4948 18.7693 19.5512 18.8196 19.6297C18.87 19.7082 18.8886 19.803 18.8715 19.8947C18.8545 19.9864 18.8031 20.0682 18.7279 20.1234L16.9928 21.3473L20.1858 19.5067C20.2658 19.4604 20.3604 19.446 20.4505 19.4665C20.5407 19.487 20.6198 19.5407 20.672 19.617C20.7242 19.6933 20.7456 19.7866 20.732 19.878C20.7184 19.9695 20.6708 20.0524 20.5986 20.1102L17.1131 22.8969L22.9798 19.5096C23.0599 19.4639 23.1542 19.4501 23.2441 19.4709C23.3339 19.4917 23.4126 19.5455 23.4645 19.6218C23.5164 19.698 23.5377 19.791 23.5241 19.8822C23.5105 19.9734 23.463 20.0561 23.3912 20.1139L19.9364 22.8595L25.3631 19.7259C25.445 19.6797 25.5416 19.6667 25.6328 19.6896C25.724 19.7126 25.8029 19.7697 25.8532 19.8492C25.9035 19.9287 25.9214 20.0244 25.903 20.1167C25.8847 20.209 25.8316 20.2907 25.7547 20.3449L25.3279 20.6382L25.9028 20.3067C25.9828 20.2621 26.0766 20.249 26.1657 20.27C26.2549 20.2911 26.3329 20.3447 26.3845 20.4204C26.4361 20.4961 26.4575 20.5883 26.4445 20.679C26.4315 20.7696 26.385 20.8521 26.3142 20.9103L23.8466 22.8749L26.0612 21.5967C26.1394 21.5483 26.2328 21.5311 26.323 21.5484C26.4133 21.5656 26.4937 21.6162 26.5485 21.6899C26.6033 21.7637 26.6284 21.8553 26.6188 21.9467C26.6092 22.0381 26.5657 22.1225 26.4968 22.1833L24.8102 23.7967L25.6975 23.2833C25.7813 23.2395 25.8788 23.2297 25.9696 23.2561C26.0605 23.2824 26.1376 23.3429 26.1849 23.4247C26.2322 23.5066 26.2461 23.6036 26.2236 23.6955C26.2011 23.7873 26.144 23.8669 26.0642 23.9177L22.5119 25.96C22.4341 26.0184 22.3363 26.0434 22.24 26.0297C22.1438 26.0159 22.0569 25.9645 21.9986 25.8867C21.9402 25.8089 21.9152 25.7111 21.9289 25.6148C21.9427 25.5186 21.9941 25.4317 22.0719 25.3733L23.7637 23.76L19.9658 25.96C19.8858 26.0046 19.792 26.0177 19.7029 25.9967C19.6137 25.9757 19.5357 25.922 19.4841 25.8463C19.4325 25.7707 19.4111 25.6784 19.4241 25.5878C19.4371 25.4971 19.4836 25.4146 19.5544 25.3565L22.025 23.3875L17.5678 25.96C17.5122 25.993 17.449 26.0107 17.3844 26.0113Z" fill="#D3B571"/>
<path d="M15.129 20.1447C15.0558 20.1446 14.9843 20.1225 14.9237 20.0814C14.8631 20.0403 14.8162 19.9819 14.7891 19.9139C14.762 19.8459 14.7558 19.7714 14.7714 19.6998C14.787 19.6283 14.8237 19.5631 14.8767 19.5126L15.6878 18.7382L13.3367 20.0934C13.2594 20.1379 13.1685 20.1528 13.081 20.1352C12.9936 20.1175 12.9155 20.0686 12.8615 19.9975C12.8076 19.9264 12.7814 19.8381 12.7878 19.7491C12.7943 19.6601 12.833 19.5765 12.8967 19.514L13.7657 18.6663L11.2929 20.0934C11.2165 20.137 11.1269 20.1517 11.0405 20.1347C10.9541 20.1178 10.8767 20.0703 10.8225 20.001C10.7682 19.9317 10.7407 19.8452 10.7449 19.7572C10.7492 19.6693 10.7849 19.5859 10.8456 19.5221L11.8268 18.5035L9.07239 20.0934C8.99804 20.1364 8.91093 20.152 8.82627 20.1374C8.7416 20.1228 8.66475 20.0789 8.60913 20.0134C8.55351 19.948 8.52266 19.865 8.52195 19.7791C8.52124 19.6932 8.55072 19.6098 8.60525 19.5434L9.69792 18.2138L6.72132 19.932C6.64256 19.9777 6.54964 19.9924 6.46062 19.9734C6.37161 19.9543 6.29287 19.9028 6.23972 19.8289C6.18657 19.755 6.16282 19.6639 6.17309 19.5735C6.18335 19.483 6.2269 19.3996 6.29525 19.3395L6.64725 19.0286L6.11559 19.3351C6.04556 19.3756 5.96411 19.3918 5.88393 19.3811C5.80374 19.3705 5.72932 19.3337 5.67226 19.2763C5.61519 19.219 5.57867 19.1444 5.5684 19.0642C5.55813 18.984 5.57467 18.9026 5.61545 18.8328L6.16252 17.9L6.14932 17.9073C6.06552 17.9511 5.96803 17.9609 5.8772 17.9345C5.78637 17.9082 5.70924 17.8478 5.66191 17.7659C5.61458 17.684 5.60072 17.587 5.62322 17.4952C5.64572 17.4033 5.70284 17.3237 5.78265 17.273L6.99779 16.5719C7.06725 16.5315 7.14817 16.5153 7.22782 16.5259C7.30748 16.5366 7.38134 16.5734 7.43779 16.6306C7.49482 16.6879 7.53128 16.7625 7.5415 16.8428C7.55171 16.923 7.5351 17.0044 7.49425 17.0742L6.94719 18.007L9.43979 16.5734C9.51844 16.5285 9.6109 16.5144 9.69935 16.5337C9.78781 16.5529 9.86602 16.6042 9.91891 16.6777C9.97181 16.7512 9.99565 16.8416 9.98586 16.9316C9.97606 17.0216 9.93332 17.1048 9.86585 17.1652L9.51385 17.4761L11.0788 16.5734C11.1531 16.5303 11.2402 16.5147 11.3249 16.5293C11.4096 16.5439 11.4864 16.5878 11.542 16.6533C11.5977 16.7188 11.6285 16.8017 11.6292 16.8876C11.6299 16.9735 11.6005 17.057 11.5459 17.1234L10.4533 18.4529L13.71 16.5734C13.7864 16.5297 13.876 16.515 13.9624 16.532C14.0488 16.549 14.1262 16.5964 14.1804 16.6657C14.2347 16.735 14.2622 16.8216 14.258 16.9095C14.2538 16.9974 14.218 17.0809 14.1573 17.1446L13.1761 18.1632L15.9305 16.5734C16.0078 16.5288 16.0987 16.5139 16.1862 16.5316C16.2737 16.5492 16.3517 16.5982 16.4057 16.6692C16.4597 16.7403 16.4859 16.8286 16.4794 16.9176C16.4729 17.0066 16.4342 17.0902 16.3705 17.1527L15.5008 18.0004L17.9743 16.5734C18.0519 16.5291 18.143 16.5147 18.2305 16.5329C18.3179 16.5511 18.3958 16.6005 18.4493 16.672C18.5029 16.7435 18.5285 16.8321 18.5214 16.9211C18.5143 17.0102 18.4749 17.0936 18.4107 17.1556L17.5996 17.93L19.9507 16.5734C20.0259 16.5302 20.1141 16.5151 20.1994 16.5308C20.2847 16.5465 20.3617 16.592 20.4167 16.6591C20.4717 16.7262 20.5011 16.8107 20.4997 16.8974C20.4982 16.9842 20.4661 17.0676 20.409 17.1329L19.3427 18.3414L22.4059 16.5734C22.4796 16.5308 22.5659 16.5153 22.6499 16.5294C22.7339 16.5435 22.8104 16.5865 22.8662 16.6509C22.9219 16.7152 22.9536 16.797 22.9556 16.8822C22.9577 16.9673 22.93 17.0505 22.8774 17.1175L21.7818 18.5108L25.029 16.6372C25.1032 16.5949 25.1899 16.5799 25.274 16.5948C25.3582 16.6097 25.4345 16.6534 25.4898 16.7185C25.5451 16.7837 25.5759 16.8661 25.5769 16.9515C25.5779 17.0369 25.5491 17.12 25.4954 17.1864L24.4541 18.4602L25.9904 17.5736C26.0656 17.5305 26.1536 17.5153 26.2389 17.5309C26.3242 17.5465 26.4012 17.5919 26.4563 17.6589C26.5113 17.7259 26.5408 17.8102 26.5396 17.8969C26.5383 17.9836 26.5064 18.067 26.4495 18.1324L26.1517 18.4734C26.216 18.4731 26.2791 18.4899 26.3347 18.5221C26.3902 18.5544 26.4362 18.6008 26.4678 18.6568C26.5162 18.7408 26.5294 18.8407 26.5044 18.9344C26.4794 19.0281 26.4182 19.1082 26.3343 19.1569L24.7056 20.0934C24.6305 20.1361 24.5427 20.1509 24.4577 20.1352C24.3727 20.1195 24.296 20.0743 24.2411 20.0076C24.1862 19.9409 24.1566 19.8569 24.1576 19.7705C24.1586 19.684 24.1901 19.6008 24.2465 19.5353L24.4438 19.3094L23.0842 20.0934C23.0099 20.136 22.9231 20.1513 22.8387 20.1367C22.7543 20.122 22.6777 20.0782 22.6222 20.013C22.5667 19.9477 22.5358 19.8651 22.5349 19.7795C22.5339 19.6938 22.563 19.6105 22.6171 19.5441L23.6584 18.2703L20.4999 20.0934C20.4261 20.1359 20.3398 20.1515 20.2558 20.1373C20.1719 20.1232 20.0954 20.0802 20.0396 20.0159C19.9838 19.9515 19.9522 19.8697 19.9502 19.7846C19.9481 19.6994 19.9758 19.6162 20.0284 19.5492L21.124 18.1559L17.7683 20.0934C17.693 20.1365 17.6049 20.1516 17.5195 20.1359C17.4342 20.1202 17.3572 20.0747 17.3022 20.0076C17.2472 19.9405 17.2178 19.8561 17.2193 19.7693C17.2207 19.6826 17.2528 19.5991 17.3099 19.5338L18.3762 18.3253L15.3123 20.0934C15.2569 20.1266 15.1936 20.1444 15.129 20.1447Z" fill="#925C4C"/>
<path d="M18.1025 17.2151C18.0218 17.2151 17.9433 17.1885 17.8793 17.1393C17.8153 17.0902 17.7692 17.0213 17.7483 16.9433C17.7274 16.8654 17.7329 16.7827 17.7637 16.7081C17.7946 16.6336 17.8493 16.5713 17.9192 16.5309L22.93 13.6401C23.0048 13.5973 23.0922 13.5821 23.1771 13.5973C23.2619 13.6125 23.3387 13.6571 23.3939 13.7233C23.4491 13.7894 23.4793 13.8729 23.479 13.9591C23.4788 14.0453 23.4483 14.1286 23.3928 14.1945L22.3067 15.4683L25.46 13.6504C25.5369 13.606 25.6273 13.5911 25.7144 13.6084C25.8015 13.6256 25.8794 13.6739 25.9336 13.7442C25.9878 13.8145 26.0146 13.9021 26.0091 13.9907C26.0036 14.0794 25.9662 14.163 25.9037 14.2261L24.9826 15.1545L26.0635 14.5304C26.1401 14.4862 26.23 14.4711 26.3168 14.488C26.4035 14.5048 26.4813 14.5524 26.5357 14.622C26.5902 14.6917 26.6176 14.7786 26.6131 14.8669C26.6085 14.9551 26.5722 15.0388 26.5109 15.1024L26.2549 15.3678C26.335 15.3696 26.4122 15.3975 26.4749 15.4472C26.5376 15.497 26.5823 15.5659 26.6022 15.6434C26.6221 15.721 26.616 15.8029 26.585 15.8767C26.5539 15.9505 26.4996 16.0121 26.4302 16.052L24.5067 17.1601C24.4302 17.2043 24.3404 17.2194 24.2537 17.2026C24.167 17.1859 24.0893 17.1384 24.0348 17.0689C23.9803 16.9994 23.9527 16.9126 23.9571 16.8244C23.9614 16.7362 23.9975 16.6526 24.0586 16.5888L24.1818 16.4612L22.9667 17.1601C22.8898 17.2019 22.8006 17.2148 22.7151 17.1965C22.6296 17.1783 22.5534 17.1301 22.5003 17.0606C22.4472 16.9911 22.4207 16.905 22.4255 16.8176C22.4303 16.7303 22.4662 16.6476 22.5267 16.5844L23.4485 15.656L20.84 17.1601C20.7653 17.203 20.6778 17.2181 20.593 17.2029C20.5081 17.1877 20.4314 17.1431 20.3762 17.077C20.3209 17.0108 20.2908 16.9273 20.291 16.8411C20.2912 16.755 20.3218 16.6716 20.3773 16.6057L21.4604 15.3305L18.2844 17.1638C18.2293 17.1965 18.1666 17.2142 18.1025 17.2151Z" fill="#F9D990"/>
<path d="M12.9282 21.6003C12.8539 21.6003 12.7813 21.5777 12.7201 21.5356C12.659 21.4935 12.612 21.4337 12.5856 21.3643C12.5591 21.2949 12.5543 21.2191 12.5719 21.1469C12.5895 21.0747 12.6285 21.0096 12.684 20.9601L13.3227 20.3888L12.1912 21.0415C12.1105 21.0881 12.0152 21.1022 11.9244 21.0811C11.8337 21.0599 11.7545 21.005 11.7028 20.9276C11.6511 20.8501 11.6308 20.7559 11.646 20.664C11.6613 20.5721 11.7109 20.4895 11.7849 20.4328L16.1365 17.1064L11.2393 19.9334C11.1588 19.9803 11.0635 19.9948 10.9727 19.974C10.8819 19.9532 10.8025 19.8986 10.7505 19.8213C10.6985 19.744 10.6778 19.6498 10.6928 19.5579C10.7077 19.4659 10.7571 19.3831 10.8308 19.3262L13.9013 16.94L10.4026 18.9596C10.3217 19.007 10.2258 19.0216 10.1345 19.0005C10.0431 18.9794 9.96338 18.9241 9.91156 18.846C9.85974 18.7679 9.8398 18.6729 9.85583 18.5806C9.87186 18.4882 9.92265 18.4055 9.99776 18.3494L11.4806 17.2282L9.76676 18.2174C9.68946 18.262 9.59855 18.2769 9.51107 18.2592C9.4236 18.2416 9.34556 18.1926 9.29158 18.1216C9.23761 18.0505 9.2114 17.9622 9.21788 17.8732C9.22436 17.7842 9.26307 17.7006 9.32676 17.6381L11.2789 15.7314L8.65943 17.2443C8.58517 17.2865 8.49849 17.3015 8.41437 17.2867C8.33024 17.2718 8.25394 17.228 8.19865 17.1629C8.14335 17.0978 8.11253 17.0154 8.1115 16.93C8.11048 16.8446 8.13931 16.7615 8.19303 16.695L9.35316 15.2775L6.27903 17.0522C6.202 17.095 6.11214 17.1086 6.02588 17.0906C5.93962 17.0726 5.86275 17.0241 5.80932 16.954C5.75589 16.8839 5.72949 16.7969 5.73495 16.709C5.7404 16.621 5.77735 16.538 5.83903 16.475L6.64056 15.675L5.94023 16.0798C5.87204 16.1197 5.79276 16.1366 5.71421 16.1278C5.63566 16.1191 5.56204 16.0852 5.50433 16.0312C5.44661 15.9772 5.4079 15.9059 5.39394 15.8282C5.37999 15.7504 5.39155 15.6701 5.42689 15.5994L5.81483 14.8133C5.74664 14.8197 5.67807 14.8058 5.61778 14.7733C5.55749 14.7408 5.50816 14.6912 5.47603 14.6307C5.45198 14.589 5.4364 14.5429 5.43017 14.4951C5.42394 14.4474 5.42718 14.3988 5.43971 14.3523C5.45224 14.3058 5.47382 14.2622 5.5032 14.224C5.53258 14.1859 5.5692 14.1539 5.61096 14.1298L6.46676 13.64C6.53495 13.6 6.61423 13.5832 6.69278 13.5919C6.77133 13.6007 6.84495 13.6346 6.90266 13.6886C6.96037 13.7426 6.99909 13.8138 7.01305 13.8916C7.027 13.9694 7.01544 14.0496 6.98009 14.1203L6.6237 14.8419L8.70636 13.6407C8.78339 13.5979 8.87325 13.5843 8.95951 13.6023C9.04576 13.6203 9.12264 13.6688 9.17607 13.7389C9.2295 13.809 9.2559 13.896 9.25044 13.9839C9.24499 14.0719 9.20804 14.1549 9.14636 14.2178L8.34483 15.0172L10.7267 13.64C10.801 13.5977 10.8876 13.5828 10.9718 13.5976C11.0559 13.6125 11.1322 13.6562 11.1875 13.7214C11.2428 13.7865 11.2736 13.8689 11.2746 13.9543C11.2756 14.0397 11.2468 14.1228 11.1931 14.1892L10.033 15.606L13.44 13.64C13.5173 13.5954 13.6082 13.5805 13.6957 13.5982C13.7832 13.6158 13.8612 13.6648 13.9152 13.7358C13.9692 13.8069 13.9954 13.8952 13.9889 13.9842C13.9824 14.0732 13.9437 14.1568 13.88 14.2193L11.9286 16.126L16.2333 13.6422C16.314 13.5962 16.4092 13.5826 16.4995 13.6041C16.5899 13.6256 16.6687 13.6806 16.7201 13.758C16.7715 13.8353 16.7916 13.9293 16.7764 14.0209C16.7612 14.1125 16.7117 14.195 16.6381 14.2516L15.159 15.3699L18.1524 13.64C18.2328 13.5952 18.327 13.5822 18.4164 13.6037C18.5058 13.6251 18.5839 13.6794 18.6352 13.7557C18.6866 13.832 18.7073 13.9248 18.6934 14.0157C18.6795 14.1066 18.6319 14.189 18.5602 14.2464L15.4868 16.6342L20.678 13.64C20.7587 13.5934 20.854 13.5792 20.9447 13.6004C21.0354 13.6216 21.1147 13.6764 21.1664 13.7539C21.2181 13.8314 21.2384 13.9256 21.2232 14.0175C21.2079 14.1094 21.1583 14.192 21.0843 14.2486L16.2582 17.938C16.3275 17.9477 16.3925 17.977 16.4457 18.0224C16.4989 18.0679 16.5379 18.1276 16.5583 18.1945C16.5786 18.2614 16.5794 18.3327 16.5606 18.4001C16.5417 18.4674 16.504 18.528 16.4518 18.5746L14.7168 20.1248C14.7309 20.1417 14.7434 20.1599 14.7542 20.1791C14.8025 20.2633 14.8156 20.3632 14.7904 20.4569C14.7653 20.5507 14.704 20.6306 14.62 20.6792L13.1115 21.5512C13.0558 21.5836 12.9926 21.6005 12.9282 21.6003Z" fill="#F9D990"/>
<path d="M8.75597 14.278C8.67767 14.2779 8.60146 14.2527 8.53851 14.2061C8.47556 14.1595 8.42918 14.094 8.40614 14.0192C8.38311 13.9444 8.38464 13.8641 8.41051 13.7902C8.43638 13.7163 8.48523 13.6526 8.54991 13.6085L11.1122 11.8624L7.07884 14.1922C6.99757 14.2384 6.90172 14.2519 6.81088 14.2298C6.72003 14.2077 6.64106 14.1517 6.59011 14.0733C6.53916 13.9949 6.52008 13.9 6.53677 13.808C6.55347 13.7161 6.60467 13.6339 6.67991 13.5784L11.0337 10.4089L6.03677 13.2939C5.95568 13.3403 5.85991 13.3541 5.76903 13.3323C5.67815 13.3105 5.59902 13.2548 5.54781 13.1766C5.4966 13.0985 5.47717 13.0037 5.49349 12.9117C5.50982 12.8197 5.56066 12.7373 5.63564 12.6815L9.00017 10.197L6.00671 11.924C5.92509 11.9699 5.82903 11.9828 5.73821 11.9601C5.64739 11.9374 5.56869 11.8808 5.51824 11.8019C5.4678 11.7231 5.44942 11.6279 5.46689 11.5359C5.48435 11.444 5.53633 11.3622 5.61217 11.3073L6.18637 10.9017C6.11421 10.9226 6.03744 10.9212 5.96611 10.8976C5.89479 10.874 5.83225 10.8295 5.78671 10.7697C5.73278 10.6975 5.70737 10.6078 5.71535 10.518C5.72334 10.4282 5.76414 10.3445 5.82997 10.2828L7.56651 8.64602C7.48258 8.65645 7.39762 8.63754 7.32603 8.5925C7.25444 8.54746 7.20063 8.47906 7.1737 8.39888C7.14678 8.31871 7.14839 8.23169 7.17828 8.15257C7.20817 8.07345 7.26449 8.0071 7.33771 7.96475L9.83984 6.52008C9.91797 6.47333 10.0107 6.45732 10.1 6.47516C10.1893 6.493 10.2687 6.54342 10.3229 6.61661C10.377 6.68979 10.402 6.78051 10.393 6.87111C10.3839 6.96171 10.3415 7.0457 10.274 7.10675L8.62397 8.65922L12.6998 6.30668C12.7813 6.26227 12.8766 6.25038 12.9664 6.27343C13.0563 6.29647 13.1341 6.35272 13.1841 6.43085C13.2342 6.50897 13.2527 6.60317 13.2361 6.69444C13.2194 6.78571 13.1688 6.86727 13.0944 6.92268L12.6111 7.26442L14.2736 6.30668C14.3546 6.26126 14.4499 6.2483 14.5401 6.27043C14.6304 6.29255 14.7089 6.34811 14.7597 6.42588C14.8106 6.50364 14.83 6.59781 14.8141 6.68935C14.7982 6.78089 14.7481 6.86298 14.674 6.91902L11.3065 9.40208L16.6745 6.30668C16.7558 6.26046 16.8516 6.24702 16.9425 6.26912C17.0333 6.29122 17.1123 6.34719 17.1632 6.42558C17.2142 6.50397 17.2333 6.59886 17.2166 6.69086C17.1999 6.78285 17.1487 6.86499 17.0734 6.92048L12.7196 10.0892L19.272 6.30668C19.3539 6.26218 19.4497 6.25055 19.5399 6.27416C19.6301 6.29777 19.7079 6.35485 19.7575 6.43378C19.8071 6.51272 19.8247 6.60758 19.8069 6.69908C19.789 6.79058 19.737 6.87185 19.6614 6.92635L17.0947 8.67388L21.0782 6.37488C21.1603 6.3272 21.2578 6.31327 21.35 6.33601C21.4422 6.35876 21.5221 6.41641 21.5726 6.49682C21.6232 6.57724 21.6406 6.67414 21.6211 6.76711C21.6017 6.86009 21.5469 6.94189 21.4683 6.99528L18.9515 8.71128L22.3879 6.73128C22.4693 6.68324 22.5662 6.6685 22.6582 6.69013C22.7502 6.71177 22.8303 6.76812 22.8818 6.84742C22.9333 6.92671 22.9521 7.02283 22.9344 7.11569C22.9167 7.20856 22.8639 7.291 22.7868 7.34582L19.0322 10.0679L23.6302 7.41328C23.7119 7.36864 23.8076 7.35678 23.8977 7.38011C23.9879 7.40344 24.0658 7.4602 24.1157 7.53888C24.1655 7.61756 24.1835 7.71225 24.1661 7.80374C24.1487 7.89523 24.0971 7.97665 24.0218 8.03148L22.4532 9.11462L24.3525 8.01902C24.4326 7.97416 24.5266 7.96096 24.6159 7.98203C24.7052 8.0031 24.7834 8.0569 24.835 8.13281C24.8866 8.20871 24.9078 8.30121 24.8945 8.39202C24.8812 8.48282 24.8344 8.56535 24.7632 8.62328L21.6296 11.1107L25.1768 9.06328C25.2566 9.01663 25.3512 9.00189 25.4415 9.02201C25.5318 9.04213 25.6111 9.09562 25.6636 9.17178C25.7161 9.24793 25.7379 9.34111 25.7246 9.43264C25.7113 9.52417 25.6639 9.6073 25.5918 9.66535L23.5664 11.3168L25.6886 10.0921C25.7658 10.0488 25.856 10.0348 25.9426 10.0527C26.0293 10.0706 26.1065 10.1192 26.1601 10.1896C26.2137 10.26 26.24 10.3474 26.2343 10.4357C26.2285 10.524 26.191 10.6072 26.1286 10.67L24.6092 12.1733L26.0025 11.3667C26.0806 11.3199 26.1734 11.3039 26.2626 11.3218C26.3519 11.3396 26.4314 11.39 26.4855 11.4632C26.5397 11.5364 26.5647 11.6271 26.5557 11.7177C26.5466 11.8083 26.5042 11.8923 26.4366 11.9533L26.2298 12.1477C26.2943 12.1527 26.3569 12.1717 26.4132 12.2034C26.4696 12.235 26.5184 12.2786 26.5562 12.331C26.6049 12.4151 26.6181 12.5152 26.5931 12.6091C26.5681 12.703 26.5068 12.7831 26.4227 12.8319L24.0027 14.2252C23.9246 14.2727 23.8315 14.2893 23.7418 14.2718C23.652 14.2542 23.5721 14.2037 23.5176 14.1303C23.4632 14.0568 23.4381 13.9657 23.4474 13.8747C23.4567 13.7837 23.4997 13.6995 23.5678 13.6385L23.6324 13.5784L22.5155 14.223C22.4384 14.2664 22.3482 14.2804 22.2615 14.2625C22.1749 14.2446 22.0977 14.1959 22.0441 14.1255C21.9905 14.0552 21.9641 13.9678 21.9699 13.8795C21.9757 13.7912 22.0132 13.708 22.0755 13.6451L23.5957 12.1396L19.9884 14.2267C19.9087 14.2722 19.8147 14.2862 19.7252 14.2658C19.6356 14.2454 19.557 14.1922 19.5048 14.1166C19.4527 14.041 19.4308 13.9486 19.4434 13.8576C19.4561 13.7667 19.5025 13.6838 19.5734 13.6253L21.5988 11.9731L17.6953 14.2267C17.6152 14.2724 17.5208 14.2862 17.431 14.2654C17.3412 14.2446 17.2625 14.1907 17.2106 14.1145C17.1587 14.0383 17.1374 13.9453 17.151 13.8541C17.1646 13.7629 17.212 13.6802 17.2839 13.6224L20.4167 11.1357L15.0612 14.2267C14.9794 14.2713 14.8838 14.2832 14.7936 14.2599C14.7034 14.2365 14.6255 14.1798 14.5757 14.1011C14.5258 14.0224 14.5078 13.9277 14.5253 13.8362C14.5427 13.7447 14.5943 13.6633 14.6696 13.6085L16.2382 12.5224L13.2865 14.2267C13.2051 14.2747 13.1083 14.2895 13.0162 14.2678C12.9242 14.2462 12.8441 14.1898 12.7926 14.1105C12.7411 14.0313 12.7223 13.9351 12.74 13.8423C12.7577 13.7494 12.8105 13.667 12.8876 13.6121L16.6437 10.89L10.8606 14.2267C10.7787 14.2723 10.6823 14.2847 10.5915 14.2614C10.5006 14.2382 10.4221 14.181 10.3721 14.1016C10.3222 14.0222 10.3045 13.9267 10.3228 13.8347C10.3411 13.7427 10.394 13.6612 10.4705 13.607L12.9873 11.891L8.93931 14.2267C8.88378 14.2596 8.82054 14.2773 8.75597 14.278Z" fill="#D3B571"/>
<path d="M25.4253 19.1972C24.7998 19.8 18.3926 19.5507 15.7196 19.5507L17.4664 17.5157C18.3237 16.7178 24.4067 17.3096 25.0931 17.2509C25.274 17.3278 25.4327 17.4489 25.5546 17.6031C25.6764 17.7573 25.7577 17.9396 25.7907 18.1333C25.8238 18.3271 25.8077 18.526 25.7438 18.7119C25.68 18.8978 25.5705 19.0647 25.4253 19.1972ZM25.7832 8.99946C25.1737 8.11464 24.3534 7.39563 23.3963 6.90743C22.4392 6.41922 21.3756 6.17721 20.3015 6.20326C17.4202 6.18346 14.5302 6.15046 11.6482 6.20326C10.4442 6.21492 9.26636 6.55525 8.24174 7.1875C7.21711 7.81975 6.38467 8.71989 5.8343 9.79072C5.2205 11.0235 4.86117 12.9243 5.79617 13.8241C5.58074 13.9925 5.41231 14.2135 5.30712 14.4659C5.20192 14.7183 5.16351 14.9935 5.19557 15.2651C5.19557 16.0798 5.18237 16.8843 5.93917 17.1439C5.74482 17.3241 5.59442 17.5466 5.49955 17.7942C5.40468 18.0417 5.36787 18.3077 5.39196 18.5717C5.41604 18.8357 5.50037 19.0907 5.63847 19.317C5.77656 19.5433 5.96473 19.7348 6.1885 19.877C5.7653 20.0815 5.43911 20.4438 5.2799 20.8861C5.04272 21.8586 5.15162 22.8833 5.5879 23.7842C7.0201 26.6383 10.9882 25.9153 13.6142 25.9153C16.527 25.9153 19.4516 25.9886 22.3644 25.9153C24.4632 25.8595 26.5349 24.5073 26.771 22.2911C26.8649 21.4111 26.8927 20.3713 26.0648 19.8315C26.0266 19.8066 25.9856 19.7949 25.9467 19.7743C26.2547 19.5794 26.4856 19.2837 26.6001 18.9376C26.7249 18.6008 26.7365 18.2325 26.6333 17.8885C26.5301 17.5445 26.3177 17.2434 26.0281 17.0309C26.2781 16.9184 26.4868 16.7308 26.6253 16.4943C26.7638 16.2578 26.8252 15.984 26.8011 15.7109C26.8011 14.9402 26.8803 14.0646 26.2063 13.7207C27.2711 12.6067 26.639 10.2945 25.7832 8.99946ZM6.5163 10.7668C6.8855 9.55664 7.66637 8.51375 8.72364 7.81879C10.0011 6.99159 11.3842 6.99672 12.8303 6.99672H17.6336C18.9697 6.88851 20.314 6.94739 21.6354 7.17199C22.9787 7.53569 24.135 8.39319 24.8731 9.57292C25.3754 10.3671 26.5965 13.3951 24.8423 13.5329C19.6657 13.5329 7.39264 13.5535 7.25844 13.5329C5.92597 13.3335 6.2369 11.6747 6.5163 10.7668ZM6.98124 17.2414C7.31415 17.1888 7.65478 17.2161 7.97507 17.3211C8.29535 17.426 8.58611 17.6056 8.82337 17.8449C9.30224 18.3649 9.75984 18.9061 10.2167 19.4487C9.76277 19.4487 7.6999 19.4539 7.28777 19.4487C6.24644 19.437 5.45737 17.5003 6.97977 17.2414H6.98124ZM25.1679 20.2664C25.9174 20.7966 25.8279 22.0359 25.6372 22.814C25.4905 23.4621 25.1359 24.0444 24.6276 24.4723C24.1192 24.9002 23.4849 25.1502 22.8212 25.1841C20.5692 25.2765 9.84857 25.2743 9.0485 25.1174C8.41012 24.9919 7.82004 24.689 7.34595 24.2435C6.87186 23.7979 6.53298 23.2278 6.36817 22.5984C5.84383 20.515 6.62924 20.1784 7.1147 20.1469C8.3335 20.0699 9.58457 20.1615 10.8107 20.1505C10.884 20.2305 10.9522 20.3126 11.0241 20.3918C11.7156 21.1625 12.4299 21.8196 13.6047 21.4639C14.2952 21.1648 14.8854 20.6738 15.3053 20.0493C17.5728 20.0493 24.5989 20.1227 24.8284 20.1036C24.9485 20.1409 25.0624 20.1958 25.1665 20.2664H25.1679ZM25.1188 14.2956C25.7597 14.3689 25.7311 14.861 25.7311 15.4477C25.7311 15.6867 25.8081 16.3834 25.6526 16.5044C25.5412 16.5902 24.9971 16.5044 24.8599 16.5044H21.7542C20.2648 16.5044 17.9871 16.1018 16.7375 17.1307C16.682 17.1576 16.6322 17.1949 16.5908 17.2407C16.1611 17.7408 14.3102 20.097 13.7125 20.5935C12.8582 21.3033 12.2392 20.2268 11.7508 19.6607L9.91017 17.5164C9.70631 17.2257 9.4403 16.9841 9.13143 16.8091C8.82257 16.634 8.4786 16.53 8.1245 16.5044C7.72997 16.4831 7.3281 16.5396 6.93504 16.5044C6.35424 16.4516 6.27504 16.1671 6.27504 15.6193C6.27504 15.4579 6.15404 14.4107 6.28457 14.2993C6.31097 14.267 25.077 14.2912 25.118 14.2956H25.1188Z" fill="#2A2A38"/>
<path d="M19.8325 0.841856C16.1064 -0.00475234 12.2012 0.483127 8.79789 2.22045C5.39453 3.95778 2.70879 6.83436 1.20881 10.3488C-1.87119 17.8633 1.48454 26.5555 6.25047 32.5615C6.90021 33.3799 7.59614 34.1587 8.3126 34.9199C6.58949 35.2159 4.92682 35.7934 3.39121 36.6293C2.52367 37.1426 1.43687 37.9823 1.54101 39.1175C1.63634 40.1537 2.66667 40.8577 3.49681 41.3175C4.97626 42.0676 6.56013 42.591 8.19527 42.8699C12.7581 43.7587 17.441 43.8446 22.0333 43.1237C23.8879 42.8766 25.7043 42.3984 27.4401 41.7003C28.5336 41.3294 29.4925 40.6423 30.1953 39.7261C32.0403 36.7407 25.8026 35.2565 23.5953 34.8201C27.9073 30.2507 31.1537 24.6334 31.8438 18.3333C32.594 10.4764 27.6777 2.69792 19.8325 0.841856ZM27.6741 36.9263C28.4741 37.3663 29.5925 38.1355 29.4033 39.1996C29.2368 40.1397 28.1683 40.7227 27.391 41.0923C26.0006 41.7117 24.5352 42.1468 23.0321 42.3867C19.0545 43.0926 14.9916 43.1782 10.9878 42.6404C9.33862 42.448 7.71296 42.0903 6.13534 41.5727C5.01703 41.2657 3.98838 40.6957 3.13527 39.9102C0.698407 37.2856 6.86427 35.7764 8.76434 35.3943C9.98179 36.6495 11.2785 37.8253 12.6466 38.9143C13.5266 39.6117 14.5159 40.5761 15.6855 40.6347C17.0444 40.7029 18.0762 39.7496 19.0728 38.9591C20.46 37.8583 21.7778 36.6729 23.0189 35.4097C24.6395 35.6722 26.2098 36.1837 27.6741 36.9263ZM30.7797 18.4595C29.9804 25.7569 25.7197 32.0833 20.3899 36.9255C19.5138 37.7214 18.6057 38.4792 17.6655 39.1989C17.0576 39.6638 16.4636 40.205 15.6371 39.9014C15.1428 39.6663 14.6849 39.3613 14.2775 38.9957C12.2344 37.4448 10.3437 35.7029 8.63087 33.7935C3.87741 28.4834 0.256207 21.197 1.28214 13.8857C1.8047 10.1943 3.69043 6.83227 6.56799 4.46179C9.44555 2.09131 13.1064 0.884134 16.8295 1.07799C25.5731 1.64779 31.5842 10.0342 30.7797 18.4595Z" fill="#2A2A38"/>
<path d="M16.5348 9.70202C16.5348 9.40636 16.2953 9.16669 15.9998 9.16669C15.7044 9.16669 15.4648 9.40636 15.4648 9.70202V10.098C15.4648 10.3937 15.7044 10.6334 15.9998 10.6334C16.2953 10.6334 16.5348 10.3937 16.5348 10.098V9.70202Z" fill="#2A2A38"/>
<path d="M20.2152 9.30362C20.0061 9.09456 19.6673 9.09445 19.4584 9.30336C19.2494 9.51228 19.2496 9.85112 19.4586 10.0602L19.9476 10.5492C20.1567 10.7582 20.4955 10.7583 20.7044 10.5494C20.9133 10.3405 20.9132 10.0017 20.7042 9.79261L20.2152 9.30362Z" fill="#2A2A38"/>
<path d="M11.5531 9.79331C11.3441 10.0024 11.344 10.3412 11.5529 10.5501C11.7618 10.759 12.1006 10.7589 12.3097 10.5499L12.7987 10.0609C13.0077 9.85182 13.0079 9.51298 12.7989 9.30407C12.59 9.09515 12.2512 9.09526 12.0421 9.30433L11.5531 9.79331Z" fill="#2A2A38"/>
</svg>
