<svg width="34" height="44" viewBox="0 0 34 44" fill="none" xmlns="http://www.w3.org/2000/svg">
<path d="M6.98722 31.9C6.90818 31.9 6.83124 31.8745 6.76788 31.8272C6.70452 31.78 6.65813 31.7135 6.63562 31.6377C6.61311 31.5619 6.61569 31.4809 6.64297 31.4067C6.67026 31.3325 6.72078 31.2692 6.78702 31.226L17.446 24.3078L4.73882 31.6411C4.65617 31.6853 4.55971 31.6963 4.46926 31.6716C4.37881 31.6469 4.30126 31.5885 4.25252 31.5084C4.20379 31.4283 4.18759 31.3326 4.20725 31.241C4.22691 31.1493 4.28093 31.0686 4.35822 31.0156L15.9361 23.5957L4.73882 30.06C4.65617 30.1043 4.55971 30.1152 4.46926 30.0905C4.37881 30.0658 4.30126 30.0075 4.25252 29.9274C4.20379 29.8473 4.18759 29.7516 4.20725 29.6599C4.22691 29.5682 4.28093 29.4876 4.35822 29.4345L15.7396 22.1503L4.73956 28.501C4.65651 28.5453 4.55959 28.556 4.46886 28.5309C4.37813 28.5057 4.30056 28.4466 4.2522 28.3659C4.20385 28.2851 4.18842 28.1888 4.20911 28.097C4.2298 28.0051 4.28503 27.9247 4.36336 27.8725L10.1369 24.2836L4.73956 27.3988C4.6569 27.443 4.56044 27.4539 4.46999 27.4292C4.37955 27.4046 4.30199 27.3462 4.25326 27.2661C4.20453 27.186 4.18832 27.0903 4.20798 26.9986C4.22764 26.907 4.28167 26.8263 4.35896 26.7732L15.4477 19.6907L4.74102 25.8727C4.65783 25.9178 4.56042 25.929 4.46916 25.904C4.37791 25.8789 4.29987 25.8195 4.25138 25.7383C4.20288 25.657 4.18768 25.5601 4.20897 25.4679C4.23025 25.3757 4.28635 25.2953 4.36556 25.2435L7.46022 23.3368L4.73882 24.9062C4.65547 24.9523 4.55746 24.9641 4.46554 24.9392C4.37361 24.9143 4.29498 24.8546 4.24629 24.7727C4.1976 24.6909 4.18266 24.5933 4.20465 24.5006C4.22664 24.408 4.28382 24.3275 4.36409 24.2762L6.47902 22.976L4.73882 23.98C4.65572 24.0238 4.55897 24.034 4.46855 24.0086C4.37812 23.9831 4.30091 23.9239 4.25284 23.8432C4.20478 23.7625 4.18952 23.6664 4.21022 23.5748C4.23092 23.4832 4.286 23.403 4.36409 23.3508L5.82636 22.4532L4.73882 23.0809C4.6561 23.1264 4.55901 23.1382 4.46777 23.1139C4.37654 23.0896 4.29819 23.0311 4.24905 22.9505C4.1999 22.8699 4.18375 22.7734 4.20395 22.6812C4.22415 22.5889 4.27915 22.5081 4.35749 22.4554L16.5697 14.5933L4.73882 21.4199C4.65585 21.4685 4.55709 21.4826 4.46383 21.4591C4.37057 21.4356 4.29028 21.3764 4.24026 21.2942C4.19024 21.2121 4.1745 21.1136 4.19643 21.02C4.21836 20.9263 4.2762 20.845 4.35749 20.7936L16.3299 13.0973L4.73882 19.789C4.65578 19.8333 4.55885 19.844 4.46813 19.8189C4.3774 19.7937 4.29983 19.7346 4.25147 19.6539C4.20311 19.5731 4.18768 19.4768 4.20838 19.385C4.22907 19.2931 4.2843 19.2127 4.36262 19.1605L9.67636 15.8605L4.73882 18.7132C4.65574 18.7597 4.55782 18.7721 4.46576 18.7477C4.3737 18.7234 4.29473 18.6641 4.24557 18.5826C4.1964 18.501 4.1809 18.4035 4.20234 18.3108C4.22377 18.218 4.28047 18.1372 4.36042 18.0854L13.0006 12.6463L4.73882 17.413C4.65572 17.4568 4.55897 17.467 4.46855 17.4416C4.37812 17.4161 4.30091 17.3569 4.25284 17.2762C4.20478 17.1955 4.18952 17.0994 4.21022 17.0078C4.23092 16.9162 4.286 16.836 4.36409 16.7838L6.91902 15.21L4.73882 16.4714C4.65569 16.5172 4.55804 16.5289 4.46641 16.5042C4.37478 16.4795 4.2963 16.4202 4.24748 16.3388C4.19867 16.2574 4.18331 16.1602 4.20465 16.0678C4.22599 15.9753 4.28235 15.8947 4.36189 15.8429L10.5043 12.0054L4.73882 15.3332C4.65598 15.3775 4.5593 15.3883 4.46873 15.3634C4.37816 15.3385 4.3006 15.2797 4.25207 15.1993C4.20353 15.1189 4.18771 15.0229 4.20787 14.9312C4.22803 14.8394 4.28264 14.7589 4.36042 14.7062L11.289 10.3312L4.73882 14.1122C4.65635 14.1584 4.55925 14.1709 4.46778 14.1472C4.37631 14.1234 4.29753 14.0653 4.24787 13.9849C4.19821 13.9045 4.18151 13.808 4.20125 13.7156C4.22099 13.6232 4.27565 13.542 4.35382 13.4889L13.7354 7.31131L4.73882 12.5048C4.65615 12.551 4.55882 12.5634 4.46721 12.5394C4.37559 12.5155 4.2968 12.457 4.24732 12.3762C4.19785 12.2955 4.18154 12.1987 4.2018 12.1062C4.22206 12.0137 4.27733 11.9326 4.35602 11.88L10.4566 7.90677L4.73662 11.2068C4.6537 11.2524 4.55635 11.2641 4.46494 11.2396C4.37353 11.2151 4.29515 11.1562 4.24618 11.0752C4.19721 10.9942 4.18145 10.8974 4.20219 10.8051C4.22294 10.7128 4.27858 10.632 4.35749 10.5798L5.19276 10.051L4.73662 10.3136C4.65441 10.3585 4.55812 10.3702 4.46754 10.3463C4.37695 10.3225 4.29893 10.2648 4.24949 10.1853C4.20004 10.1057 4.18293 10.0103 4.20164 9.91847C4.22036 9.82669 4.2735 9.74555 4.35016 9.69171L8.60349 6.86324L4.73882 9.09331C4.65679 9.13828 4.56066 9.15019 4.47013 9.12661C4.3796 9.10302 4.30151 9.04573 4.25184 8.96644C4.20217 8.88716 4.18469 8.7919 4.20296 8.70015C4.22124 8.6084 4.2739 8.5271 4.35016 8.47291L7.64062 6.24797L4.73882 7.92584C4.65685 7.97354 4.55959 7.98762 4.46746 7.96514C4.37533 7.94265 4.29549 7.88533 4.24471 7.80523C4.19394 7.72513 4.17618 7.62847 4.19515 7.53556C4.21413 7.44264 4.26837 7.36068 4.34649 7.30691L6.95349 5.49997L4.73882 6.77744C4.6583 6.82275 4.56365 6.836 4.47378 6.81453C4.38392 6.79306 4.30547 6.73845 4.25413 6.66163C4.2028 6.58481 4.18235 6.49144 4.19689 6.4002C4.21143 6.30896 4.25989 6.22656 4.33256 6.16951L7.37002 3.83017L4.73882 5.34817C4.66069 5.39569 4.56762 5.41229 4.47788 5.39473C4.38814 5.37716 4.3082 5.3267 4.25374 5.25323C4.19929 5.17977 4.17425 5.08861 4.18354 4.99764C4.19283 4.90666 4.23578 4.82245 4.30396 4.76151L6.55162 2.64731L4.73882 3.69377C4.66587 3.73541 4.58084 3.75074 4.49794 3.73719C4.41505 3.72365 4.33931 3.68206 4.28341 3.61937C4.22751 3.55668 4.19482 3.4767 4.19082 3.3928C4.18681 3.3089 4.21174 3.22617 4.26142 3.15844L5.14142 1.96971C5.05612 2.0098 4.95865 2.0155 4.86926 1.98562C4.77987 1.95575 4.70541 1.8926 4.66134 1.80928C4.61728 1.72597 4.60699 1.62888 4.63261 1.53817C4.65824 1.44747 4.71781 1.37012 4.79896 1.32217L6.30156 0.454641C6.37458 0.412677 6.45983 0.397132 6.54296 0.410619C6.6261 0.424105 6.70206 0.465801 6.75807 0.528698C6.81408 0.591595 6.84674 0.671858 6.85054 0.755995C6.85434 0.840132 6.82907 0.923014 6.77896 0.990708L5.89896 2.17724L8.91296 0.439975C8.99108 0.393222 9.08381 0.377208 9.17309 0.395049C9.26237 0.41289 9.34182 0.46331 9.39598 0.536498C9.45014 0.609685 9.47513 0.700405 9.4661 0.791002C9.45706 0.8816 9.41464 0.965594 9.34709 1.02664L7.10016 3.13864L11.7781 0.439975C11.8586 0.393737 11.9537 0.379792 12.0442 0.400955C12.1346 0.422119 12.2136 0.476813 12.2653 0.553993C12.317 0.631172 12.3374 0.725085 12.3225 0.816762C12.3077 0.90844 12.2585 0.99105 12.1851 1.04791L9.14762 3.38724L14.2538 0.439975C14.3356 0.39427 14.4318 0.381612 14.5226 0.404599C14.6135 0.427587 14.6921 0.484475 14.7423 0.563586C14.7925 0.642696 14.8105 0.738025 14.7926 0.830002C14.7747 0.921979 14.7223 1.00362 14.6462 1.05817L12.0443 2.85997L16.2412 0.439975C16.3232 0.395003 16.4193 0.38309 16.5098 0.406674C16.6004 0.430258 16.6785 0.487555 16.7281 0.566836C16.7778 0.646116 16.7953 0.741383 16.777 0.833134C16.7587 0.924885 16.7061 1.00618 16.6298 1.06037L13.3335 3.28531L18.2681 0.439975C18.3504 0.393849 18.4473 0.381209 18.5386 0.404682C18.63 0.428155 18.7088 0.485935 18.7586 0.56601C18.8085 0.646085 18.8256 0.742295 18.8063 0.834639C18.7871 0.926983 18.733 1.00836 18.6553 1.06184L14.4027 3.88664L20.3794 0.439975C20.4624 0.392527 20.5607 0.379392 20.6532 0.40337C20.7458 0.427347 20.8253 0.48654 20.8749 0.568327C20.9244 0.650114 20.9401 0.748023 20.9185 0.841175C20.8969 0.934328 20.8397 1.01535 20.7592 1.06697L19.9225 1.59644L21.9267 0.439975C22.0092 0.395713 22.1054 0.384661 22.1958 0.409083C22.2861 0.433504 22.3637 0.49155 22.4126 0.571328C22.4616 0.651107 22.4782 0.746579 22.459 0.838184C22.4398 0.929789 22.3863 1.01059 22.3095 1.06404L16.2082 5.03651L24.1729 0.439975C24.2554 0.392111 24.3534 0.378315 24.446 0.401517C24.5385 0.424719 24.6184 0.483091 24.6686 0.564234C24.7188 0.645377 24.7354 0.742899 24.7149 0.836087C24.6943 0.929275 24.6383 1.01079 24.5586 1.06331L15.1764 7.24017L26.9581 0.439975C27.041 0.394372 27.1384 0.382599 27.2298 0.407119C27.3212 0.43164 27.3996 0.490553 27.4485 0.571538C27.4975 0.652523 27.5133 0.749306 27.4925 0.841644C27.4718 0.933981 27.4161 1.01472 27.3372 1.06697L20.4124 5.43764L28.3566 0.851375C28.4397 0.805588 28.5373 0.793819 28.629 0.818545C28.7206 0.843271 28.7991 0.902563 28.8479 0.983956C28.8967 1.06535 28.9121 1.1625 28.8907 1.25498C28.8694 1.34746 28.813 1.42806 28.7335 1.47984L22.5999 5.31224L29.0122 1.61331C29.0957 1.56352 29.1956 1.54895 29.2899 1.57281C29.3841 1.59667 29.4651 1.65701 29.5149 1.74054C29.5646 1.82408 29.5792 1.92397 29.5553 2.01824C29.5315 2.11252 29.4712 2.19345 29.3876 2.24324L26.8268 3.81917L29.2468 2.41997C29.3297 2.37437 29.4271 2.3626 29.5185 2.38712C29.6099 2.41164 29.6883 2.47055 29.7373 2.55154C29.7862 2.63252 29.802 2.72931 29.7813 2.82164C29.7605 2.91398 29.7049 2.99472 29.626 3.04697L20.9873 8.48537L29.2622 3.70844C29.3453 3.66409 29.4422 3.65337 29.5329 3.67852C29.6236 3.70367 29.7012 3.76276 29.7496 3.84354C29.7979 3.92432 29.8134 4.02061 29.7927 4.11245C29.772 4.2043 29.7167 4.28467 29.6384 4.33691L24.3225 7.63691L29.2637 4.78424C29.3467 4.73561 29.4454 4.72153 29.5387 4.74504C29.6319 4.76854 29.7122 4.82775 29.7623 4.90989C29.8123 4.99204 29.828 5.09055 29.8061 5.18419C29.7842 5.27783 29.7263 5.35911 29.645 5.41051L17.6748 13.1046L29.2615 6.41371C29.3442 6.36821 29.4413 6.35638 29.5325 6.38067C29.6238 6.40497 29.7021 6.46352 29.7513 6.54413C29.8004 6.62475 29.8166 6.72121 29.7964 6.81344C29.7762 6.90567 29.7212 6.98655 29.6428 7.03924L17.4328 14.9064L29.2659 8.07471C29.349 8.03091 29.4457 8.02068 29.5362 8.04612C29.6266 8.07157 29.7038 8.13075 29.7519 8.21146C29.7999 8.29217 29.8152 8.38825 29.7945 8.47988C29.7738 8.57151 29.7187 8.6517 29.6406 8.70391L28.1864 9.59637L29.2666 8.97304C29.35 8.92696 29.448 8.91511 29.5399 8.94002C29.6318 8.96492 29.7105 9.02462 29.7592 9.10647C29.8078 9.18832 29.8228 9.28591 29.8008 9.37857C29.7788 9.47124 29.7216 9.55172 29.6414 9.60297L27.5147 10.9098L29.2674 9.89997C29.3505 9.85486 29.448 9.84366 29.5392 9.86872C29.6305 9.89377 29.7085 9.95314 29.757 10.0344C29.8055 10.1157 29.8207 10.2125 29.7994 10.3048C29.7781 10.397 29.722 10.4774 29.6428 10.5292L26.5548 12.4358L29.2681 10.8694C29.3512 10.819 29.451 10.8036 29.5455 10.8267C29.64 10.8498 29.7214 10.9095 29.7719 10.9926C29.8224 11.0758 29.8377 11.1756 29.8146 11.2701C29.7915 11.3645 29.7318 11.446 29.6487 11.4964L18.5585 18.5731L29.2688 12.3933C29.352 12.3475 29.4496 12.3357 29.5412 12.3605C29.6329 12.3852 29.7113 12.4445 29.7602 12.5259C29.809 12.6073 29.8243 12.7044 29.803 12.7969C29.7817 12.8894 29.7253 12.97 29.6458 13.0218L23.8649 16.6151L29.2696 13.4948C29.3525 13.4461 29.4513 13.4321 29.5445 13.4556C29.6378 13.4791 29.7181 13.5383 29.7681 13.6204C29.8181 13.7026 29.8339 13.8011 29.812 13.8947C29.79 13.9884 29.7322 14.0696 29.6509 14.121L18.274 21.3986L29.274 15.0494C29.3569 15.0008 29.4557 14.9867 29.549 15.0102C29.6422 15.0337 29.7225 15.0929 29.7725 15.1751C29.8225 15.2572 29.8383 15.3557 29.8164 15.4494C29.7944 15.543 29.7366 15.6243 29.6553 15.6757L18.0767 23.0948L29.2718 16.6312C29.3543 16.5858 29.4511 16.5738 29.5422 16.5979C29.6333 16.622 29.7117 16.6802 29.761 16.7604C29.8104 16.8407 29.8269 16.9369 29.8072 17.029C29.7875 17.1212 29.7331 17.2022 29.6553 17.2553L18.9904 24.178L29.2732 18.238C29.3563 18.1873 29.456 18.1717 29.5506 18.1946C29.6451 18.2175 29.7267 18.277 29.7774 18.3601C29.8281 18.4431 29.8437 18.5429 29.8208 18.6374C29.7979 18.732 29.7383 18.8136 29.6553 18.8642L22.352 23.5576L29.274 19.5616C29.3563 19.5162 29.453 19.5041 29.544 19.5279C29.635 19.5517 29.7133 19.6096 29.7629 19.6895C29.8124 19.7695 29.8293 19.8654 29.8101 19.9575C29.7909 20.0496 29.7371 20.1307 29.6597 20.1842L22.3176 25.0242L29.2754 21.007C29.358 20.9601 29.4556 20.947 29.5477 20.9706C29.6397 20.9942 29.719 21.0526 29.7689 21.1335C29.8187 21.2145 29.8351 21.3116 29.8148 21.4044C29.7944 21.4972 29.7388 21.5785 29.6597 21.6311L25.091 24.6194L29.2762 22.2038C29.3579 22.1561 29.455 22.1418 29.5471 22.164C29.6392 22.1862 29.7191 22.2432 29.7701 22.323C29.8211 22.4028 29.8392 22.4993 29.8207 22.5922C29.8021 22.685 29.7484 22.7672 29.6707 22.8213L23.5444 27.1384L29.2776 23.8333C29.3591 23.7861 29.4557 23.772 29.5472 23.794C29.6388 23.816 29.7184 23.8724 29.7695 23.9515C29.8206 24.0307 29.8393 24.1264 29.8218 24.219C29.8042 24.3115 29.7517 24.3937 29.6751 24.4486L25.4218 27.5036L29.282 25.2758C29.3622 25.2298 29.4568 25.2159 29.5469 25.2367C29.6369 25.2575 29.7158 25.3115 29.7677 25.388C29.8196 25.4645 29.8407 25.5577 29.8268 25.6491C29.8129 25.7405 29.765 25.8232 29.6927 25.8808L26.1815 28.6447L29.2798 26.8554C29.3611 26.8091 29.4569 26.7957 29.5478 26.8178C29.6386 26.8399 29.7176 26.8959 29.7686 26.9743C29.8195 27.0527 29.8386 27.1475 29.8219 27.2395C29.8052 27.3315 29.754 27.4137 29.6788 27.4692L29.3275 27.7251C29.4078 27.6932 29.4967 27.6906 29.5787 27.7179C29.6607 27.7452 29.7304 27.8005 29.7755 27.8742C29.8207 27.9478 29.8384 28.0351 29.8255 28.1205C29.8126 28.2059 29.77 28.284 29.7052 28.3411L28.5868 29.3157L29.2791 28.916C29.35 28.876 29.4323 28.8607 29.5129 28.8726C29.5935 28.8846 29.6678 28.923 29.7242 28.9818C29.7805 29.0407 29.8156 29.1166 29.824 29.1977C29.8324 29.2787 29.8135 29.3602 29.7704 29.4294L29.1251 30.4333L29.2828 30.3424C29.3245 30.3158 29.3712 30.298 29.42 30.29C29.4687 30.282 29.5187 30.2839 29.5667 30.2957C29.6147 30.3074 29.6599 30.3288 29.6994 30.3585C29.739 30.3881 29.7722 30.4255 29.7969 30.4683C29.8217 30.5111 29.8375 30.5585 29.8435 30.6076C29.8494 30.6567 29.8454 30.7065 29.8316 30.754C29.8178 30.8015 29.7946 30.8457 29.7633 30.884C29.732 30.9222 29.6932 30.9538 29.6494 30.9767L28.1754 31.8274C28.1042 31.8685 28.0212 31.8845 27.9398 31.8728C27.8585 31.8611 27.7834 31.8224 27.7266 31.7628C27.6699 31.7032 27.6348 31.6263 27.6271 31.5443C27.6194 31.4624 27.6395 31.3802 27.6841 31.3111L28.3324 30.3079L25.6924 31.8296C25.6135 31.8747 25.5208 31.8889 25.4321 31.8695C25.3433 31.8502 25.265 31.7985 25.2121 31.7247C25.1593 31.6509 25.1357 31.56 25.146 31.4698C25.1563 31.3796 25.1996 31.2964 25.2678 31.2363L26.3868 30.2654L23.6691 31.834C23.5878 31.8802 23.492 31.8936 23.4011 31.8715C23.3103 31.8494 23.2313 31.7935 23.1804 31.7151C23.1294 31.6367 23.1103 31.5418 23.127 31.4498C23.1437 31.3578 23.1949 31.2757 23.2702 31.2202L23.5921 30.9862L22.1203 31.8354C22.0401 31.8805 21.9459 31.8938 21.8564 31.8727C21.7669 31.8516 21.6886 31.7977 21.637 31.7215C21.5854 31.6454 21.5643 31.5526 21.5779 31.4617C21.5915 31.3707 21.6388 31.2882 21.7104 31.2304L25.2208 28.4672L19.382 31.8406C19.3005 31.8878 19.204 31.9019 19.1124 31.8799C19.0208 31.8579 18.9412 31.8014 18.8901 31.7223C18.839 31.6432 18.8203 31.5475 18.8379 31.4549C18.8555 31.3624 18.908 31.2802 18.9846 31.2253L23.2379 28.171L16.8777 31.8428C16.7959 31.8905 16.6988 31.9048 16.6067 31.8826C16.5147 31.8604 16.4348 31.8034 16.3838 31.7236C16.3328 31.6438 16.3146 31.5473 16.3332 31.4544C16.3517 31.3616 16.4054 31.2794 16.4832 31.2253L22.6102 26.906L14.061 31.842C13.9784 31.8875 13.8816 31.8994 13.7905 31.8754C13.6994 31.8513 13.621 31.7931 13.5717 31.7128C13.5224 31.6326 13.5058 31.5364 13.5255 31.4442C13.5452 31.3521 13.5996 31.2711 13.6774 31.218L18.2468 28.2282L11.9834 31.8442C11.901 31.8904 11.8039 31.9029 11.7124 31.8791C11.6209 31.8554 11.5421 31.7973 11.4925 31.7169C11.4428 31.6365 11.4261 31.54 11.4459 31.4476C11.4656 31.3552 11.5203 31.274 11.5984 31.2209L18.9384 26.3809L9.47176 31.8464C9.38878 31.8951 9.29002 31.9091 9.19676 31.8856C9.1035 31.8621 9.02321 31.8029 8.97319 31.7208C8.92317 31.6386 8.90743 31.5401 8.92936 31.4465C8.95129 31.3528 9.00913 31.2716 9.09042 31.2202L16.3937 26.5268L7.17349 31.8486C7.11719 31.8823 7.05281 31.9 6.98722 31.9Z" fill="#3B2186"/>
<path d="M20.1578 20.1542C20.0897 20.1542 20.023 20.1353 19.9651 20.0995C19.9071 20.0637 19.8603 20.0124 19.8299 19.9515C19.7994 19.8906 19.7865 19.8225 19.7927 19.7546C19.7988 19.6868 19.8236 19.622 19.8645 19.5676L20.6932 18.4962L17.9358 20.0882C17.8568 20.1336 17.7638 20.148 17.6748 20.1285C17.5858 20.109 17.5072 20.0571 17.4544 19.9829C17.4016 19.9086 17.3783 19.8174 17.3891 19.7269C17.3999 19.6365 17.4439 19.5532 17.5127 19.4935L18.9794 18.2263L17.9395 18.8262C17.8614 18.8737 17.7683 18.8903 17.6786 18.8727C17.5888 18.8552 17.5089 18.8047 17.4544 18.7312C17.4 18.6578 17.3749 18.5666 17.3842 18.4756C17.3935 18.3847 17.4365 18.3004 17.5046 18.2395L19.5814 16.28L17.9388 17.2282C17.86 17.2732 17.7674 17.2874 17.6788 17.2681C17.5903 17.2487 17.512 17.1973 17.4591 17.1236C17.4062 17.05 17.3825 16.9593 17.3926 16.8692C17.4026 16.7791 17.4457 16.6959 17.5134 16.6357L19.0835 15.2578L17.9388 15.9178C17.8592 15.9622 17.766 15.9754 17.6773 15.9548C17.5885 15.9342 17.5106 15.8813 17.4587 15.8065C17.4068 15.7316 17.3847 15.6401 17.3965 15.5498C17.4084 15.4595 17.4535 15.3768 17.523 15.3179L18.4587 14.5464L17.9388 14.8464C17.8653 14.8884 17.7796 14.9037 17.6962 14.8897C17.6128 14.8758 17.5367 14.8334 17.481 14.7698C17.4252 14.7062 17.3932 14.6252 17.3903 14.5407C17.3874 14.4561 17.4138 14.3732 17.465 14.3059L18.4785 12.9859L17.9388 13.2968C17.8752 13.3334 17.802 13.35 17.7289 13.3445C17.6557 13.3391 17.5859 13.3118 17.5284 13.2662C17.4709 13.2207 17.4284 13.1589 17.4064 13.0889C17.3844 13.0189 17.3839 12.944 17.4049 12.8737L17.5809 12.287C17.5237 12.2559 17.4758 12.2102 17.4421 12.1544C17.4084 12.0987 17.3902 12.035 17.3893 11.9699C17.3884 11.9048 17.4049 11.8406 17.437 11.7839C17.4691 11.7273 17.5158 11.6802 17.5721 11.6476L17.9388 11.4342C18.0024 11.3974 18.0756 11.3806 18.1489 11.3859C18.2222 11.3913 18.2922 11.4185 18.3498 11.4641C18.4075 11.5097 18.45 11.5716 18.4721 11.6417C18.4941 11.7118 18.4946 11.7869 18.4734 11.8573L18.3714 12.1954L19.7046 11.4254C19.7781 11.383 19.8639 11.3673 19.9476 11.3811C20.0313 11.3949 20.1076 11.4373 20.1635 11.501C20.2195 11.5647 20.2516 11.6459 20.2545 11.7306C20.2573 11.8154 20.2307 11.8985 20.1791 11.9658L19.1656 13.2858L21.9259 11.6923C22.0056 11.647 22.0993 11.6331 22.1887 11.6535C22.278 11.6738 22.3566 11.7269 22.4087 11.8023C22.4609 11.8776 22.483 11.9698 22.4705 12.0606C22.4581 12.1514 22.4122 12.2343 22.3417 12.2929L21.4074 13.0622L21.9288 12.7615C22.0077 12.7157 22.1008 12.7009 22.1899 12.72C22.2791 12.7391 22.3579 12.7908 22.411 12.8649C22.4642 12.939 22.4878 13.0302 22.4773 13.1208C22.4667 13.2114 22.4229 13.2948 22.3542 13.3548L20.787 14.74L21.9347 14.08C22.0128 14.0325 22.1059 14.0159 22.1956 14.0335C22.2854 14.051 22.3653 14.1015 22.4198 14.175C22.4742 14.2484 22.4993 14.3396 22.49 14.4306C22.4807 14.5215 22.4377 14.6058 22.3696 14.6667L20.2913 16.6276L21.9398 15.6743C22.0188 15.6289 22.1119 15.6145 22.2009 15.634C22.2899 15.6535 22.3685 15.7054 22.4213 15.7797C22.4741 15.8539 22.4974 15.9451 22.4866 16.0356C22.4758 16.1261 22.4317 16.2093 22.363 16.269L20.9014 17.5267L21.9428 16.9261C22.0163 16.8837 22.1022 16.8682 22.1859 16.8821C22.2696 16.896 22.3458 16.9385 22.4017 17.0023C22.4576 17.0661 22.4896 17.1474 22.4923 17.2322C22.495 17.3169 22.4682 17.4 22.4165 17.4673L21.5871 18.5394L21.9472 18.3334C22.0114 18.2962 22.0853 18.2794 22.1592 18.2852C22.2332 18.2909 22.3036 18.319 22.3613 18.3656C22.419 18.4122 22.4611 18.4753 22.4823 18.5464C22.5034 18.6175 22.5024 18.6933 22.4796 18.7638L22.3204 19.253C22.3746 19.2848 22.4193 19.3303 22.4502 19.385C22.4986 19.4691 22.5117 19.569 22.4865 19.6628C22.4613 19.7565 22.4 19.8365 22.316 19.8851L21.9494 20.0985C21.8854 20.1361 21.8115 20.1532 21.7375 20.1474C21.6635 20.1417 21.5931 20.1133 21.5358 20.0662C21.4781 20.0196 21.436 19.9565 21.4149 19.8855C21.3938 19.8144 21.3948 19.7386 21.4177 19.668L21.491 19.448L20.3448 20.108C20.2879 20.1402 20.2232 20.1562 20.1578 20.1542Z" fill="#D3B571"/>
<path d="M13.8671 20.1564C13.7979 20.1564 13.7301 20.1368 13.6716 20.0999C13.6131 20.063 13.5662 20.0103 13.5364 19.9478C13.5065 19.8854 13.495 19.8158 13.503 19.7471C13.5111 19.6784 13.5384 19.6133 13.5818 19.5595L14.7266 18.1478L12.0807 19.6746C12.0001 19.7294 11.901 19.7498 11.8053 19.7315C11.7096 19.7133 11.6251 19.6577 11.5703 19.5771C11.5156 19.4965 11.4951 19.3974 11.5134 19.3017C11.5317 19.206 11.5872 19.1214 11.6678 19.0667L12.0059 18.8019C11.9272 18.8254 11.8428 18.8218 11.7664 18.7916C11.69 18.7614 11.626 18.7064 11.5845 18.6355C11.5431 18.5645 11.5267 18.4817 11.5379 18.4003C11.5492 18.319 11.5875 18.2437 11.6466 18.1867L13.5532 16.4267L12.0719 17.281C11.9943 17.3277 11.9022 17.3441 11.8133 17.3269C11.7244 17.3098 11.645 17.2603 11.5904 17.1881C11.5358 17.1159 11.5098 17.026 11.5174 16.9358C11.5251 16.8456 11.5659 16.7614 11.6319 16.6995L13.8128 14.597L12.0646 15.6061C11.9856 15.6515 11.8925 15.6658 11.8035 15.6463C11.7145 15.6269 11.636 15.575 11.5831 15.5007C11.5303 15.4265 11.507 15.3352 11.5178 15.2448C11.5286 15.1543 11.5727 15.0711 11.6414 15.0113L12.828 13.9847L12.0616 14.4247C11.9872 14.4677 11.9001 14.4832 11.8154 14.4685C11.7307 14.4538 11.6539 14.4098 11.5983 14.3442C11.5427 14.2786 11.512 14.1956 11.5115 14.1096C11.5109 14.0237 11.5406 13.9403 11.5952 13.8739L12.2552 13.0709L12.0565 13.1853C11.9923 13.2226 11.9182 13.2395 11.8442 13.2337C11.7701 13.2279 11.6996 13.1998 11.6418 13.1531C11.5841 13.1063 11.542 13.0431 11.5209 12.9719C11.4999 12.9007 11.501 12.8247 11.5241 12.7541L11.6818 12.2738C11.628 12.2421 11.5836 12.1968 11.5527 12.1425C11.5043 12.0584 11.4913 11.9585 11.5164 11.8647C11.5416 11.771 11.6029 11.691 11.6869 11.6424L12.0536 11.429C12.1178 11.392 12.1918 11.3754 12.2657 11.3812C12.3396 11.3871 12.41 11.4153 12.4675 11.462C12.5251 11.5087 12.5672 11.5717 12.5882 11.6428C12.6092 11.7139 12.6082 11.7897 12.5852 11.8602L12.5163 12.0721L13.6442 11.4209C13.7186 11.3784 13.8056 11.3632 13.89 11.3781C13.9744 11.393 14.051 11.437 14.1063 11.5024C14.1617 11.5679 14.1923 11.6507 14.193 11.7364C14.1936 11.8221 14.1642 11.9054 14.1098 11.9717L13.4498 12.7783L15.8156 11.4129C15.8947 11.3666 15.9883 11.3515 16.0779 11.3708C16.1675 11.39 16.2467 11.4422 16.2998 11.5169C16.3529 11.5916 16.376 11.6835 16.3647 11.7745C16.3534 11.8654 16.3085 11.9489 16.2387 12.0083L15.0544 13.0299L16.0466 12.4667C16.1241 12.42 16.2163 12.4036 16.3052 12.4208C16.3941 12.4379 16.4735 12.4874 16.5281 12.5596C16.5827 12.6318 16.6087 12.7216 16.601 12.8119C16.5934 12.9021 16.5526 12.9863 16.4866 13.0482L14.2998 15.1507L16.0546 14.1379C16.1327 14.0932 16.2245 14.0788 16.3126 14.0974C16.4006 14.116 16.4788 14.1663 16.5321 14.2387C16.5855 14.3112 16.6103 14.4008 16.6019 14.4903C16.5935 14.5799 16.5525 14.6633 16.4866 14.7246L14.5799 16.4795L16.0634 15.6237C16.1437 15.5783 16.2381 15.5649 16.3278 15.586C16.4176 15.6071 16.496 15.6613 16.5476 15.7377C16.5993 15.814 16.6202 15.9071 16.6063 15.9982C16.5924 16.0893 16.5447 16.1719 16.4726 16.2294L16.1346 16.4949C16.2098 16.4697 16.2911 16.4696 16.3664 16.4945C16.4416 16.5194 16.5068 16.5681 16.5521 16.6332C16.5973 16.6983 16.6203 16.7763 16.6175 16.8556C16.6147 16.9348 16.5862 17.011 16.5364 17.0727L15.3954 18.4837L16.0766 18.0906C16.1394 18.0542 16.2115 18.0373 16.2839 18.0419C16.3562 18.0465 16.4256 18.0725 16.4832 18.1165C16.5408 18.1605 16.5841 18.2207 16.6075 18.2893C16.631 18.3579 16.6335 18.4319 16.6149 18.502L16.4198 19.2353C16.4882 19.2661 16.5454 19.3173 16.5834 19.382C16.6318 19.4662 16.6448 19.5661 16.6197 19.6598C16.5945 19.7536 16.5332 19.8335 16.4492 19.8821L16.0781 20.0963C16.0154 20.1324 15.9434 20.1492 15.8712 20.1444C15.7989 20.1397 15.7297 20.1137 15.6722 20.0697C15.6147 20.0257 15.5716 19.9657 15.5481 19.8972C15.5247 19.8287 15.5221 19.7548 15.5406 19.6849L15.6784 19.1671L14.0512 20.1065C13.9954 20.1393 13.9318 20.1565 13.8671 20.1564Z" fill="#D3B571"/>
<path d="M17.6741 20.1513C17.6146 20.1514 17.556 20.137 17.5034 20.1094C17.4507 20.0818 17.4056 20.0418 17.3718 19.9929C17.338 19.944 17.3166 19.8876 17.3095 19.8285C17.3024 19.7695 17.3097 19.7096 17.3309 19.6541L17.7526 18.5453L15.7388 19.7076C15.6607 19.7551 15.5676 19.7717 15.4779 19.7542C15.3881 19.7366 15.3082 19.6861 15.2537 19.6127C15.1993 19.5392 15.1742 19.4481 15.1835 19.3571C15.1928 19.2661 15.2358 19.1819 15.304 19.121L15.9134 18.5482L15.7388 18.6487C15.6611 18.693 15.5699 18.7074 15.4824 18.6891C15.3948 18.6709 15.317 18.6213 15.2634 18.5497C15.2099 18.478 15.1844 18.3893 15.1917 18.3001C15.1991 18.211 15.2387 18.1276 15.3032 18.0657L15.9823 17.4174L15.7388 17.5575C15.6607 17.6028 15.5686 17.6178 15.4802 17.5994C15.3917 17.5811 15.3132 17.5307 15.2596 17.458C15.206 17.3854 15.1811 17.2954 15.1897 17.2055C15.1983 17.1156 15.2397 17.032 15.3062 16.9708L15.8078 16.5066L15.7388 16.5455C15.6616 16.5894 15.5711 16.6039 15.484 16.5861C15.397 16.5683 15.3193 16.5195 15.2655 16.4488C15.2118 16.3781 15.1855 16.2902 15.1916 16.2016C15.1977 16.113 15.2358 16.0296 15.2988 15.9669L16.1517 15.1265L15.7388 15.3641C15.6634 15.4072 15.5751 15.4222 15.4897 15.4063C15.4043 15.3904 15.3273 15.3447 15.2725 15.2773C15.2176 15.21 15.1885 15.1253 15.1902 15.0385C15.1919 14.9516 15.2245 14.8682 15.282 14.8031L16.6592 13.2565L15.7388 13.7874C15.6628 13.8315 15.5735 13.8468 15.4871 13.8306C15.4008 13.8144 15.3231 13.7676 15.2683 13.699C15.2135 13.6303 15.1852 13.5442 15.1885 13.4564C15.1918 13.3686 15.2265 13.2849 15.2864 13.2206L16.533 11.8756L15.741 12.3325C15.6629 12.3785 15.5705 12.394 15.4817 12.3759C15.3928 12.3578 15.3138 12.3074 15.2599 12.2345C15.2061 12.1615 15.1811 12.0712 15.1899 11.981C15.1987 11.8907 15.2407 11.807 15.3076 11.7458L15.8041 11.2853L15.741 11.3205C15.6749 11.3586 15.5985 11.3751 15.5225 11.3677C15.4465 11.3603 15.3747 11.3294 15.3172 11.2793C15.2596 11.2291 15.2191 11.1623 15.2014 11.088C15.1836 11.0138 15.1895 10.9358 15.2182 10.8651L15.7102 9.65876C15.6239 9.68743 15.5299 9.68296 15.4467 9.64623C15.3634 9.60949 15.2968 9.54311 15.2598 9.45999C15.2227 9.37687 15.2179 9.28295 15.2463 9.19649C15.2747 9.11003 15.3342 9.0372 15.4132 8.99216L16.2668 8.5067C16.333 8.46844 16.4095 8.45185 16.4857 8.45923C16.5618 8.46662 16.6337 8.49761 16.6913 8.54788C16.7489 8.59815 16.7894 8.66517 16.807 8.73958C16.8247 8.81398 16.8186 8.89204 16.7897 8.96283L16.3035 10.1567L18.241 9.03763C18.3191 8.99227 18.4112 8.97733 18.4996 8.99568C18.588 9.01403 18.6666 9.06438 18.7202 9.13707C18.7738 9.20976 18.7987 9.29968 18.7901 9.38959C18.7815 9.4795 18.74 9.56308 18.6736 9.62429L18.1786 10.0848L18.2652 10.0357C18.3411 9.99213 18.4301 9.97716 18.5161 9.9935C18.6021 10.0098 18.6794 10.0564 18.7341 10.1248C18.7887 10.1932 18.8171 10.2789 18.8141 10.3664C18.8111 10.4538 18.7769 10.5374 18.7176 10.6018L17.471 11.9475L18.2644 11.4899C18.3398 11.4468 18.4281 11.4318 18.5135 11.4477C18.5989 11.4636 18.6759 11.5093 18.7308 11.5767C18.7856 11.644 18.8148 11.7287 18.813 11.8155C18.8113 11.9024 18.7788 11.9858 18.7213 12.0509L17.3441 13.5982L18.2688 13.0651C18.346 13.0211 18.4366 13.0067 18.5236 13.0245C18.6107 13.0423 18.6883 13.0911 18.7421 13.1618C18.7959 13.2325 18.8222 13.3204 18.816 13.409C18.8099 13.4976 18.7718 13.581 18.7088 13.6437L17.8567 14.4834L18.271 14.2443C18.3491 14.1989 18.4412 14.184 18.5297 14.2023C18.6181 14.2207 18.6967 14.271 18.7503 14.3437C18.8039 14.4164 18.8288 14.5063 18.8202 14.5963C18.8116 14.6862 18.7701 14.7697 18.7037 14.831L18.2021 15.2959L18.2754 15.2541C18.3531 15.2092 18.4446 15.1943 18.5325 15.2123C18.6204 15.2304 18.6987 15.28 18.7525 15.3518C18.8062 15.4237 18.8318 15.5128 18.8243 15.6022C18.8168 15.6916 18.7768 15.7752 18.7118 15.8371L18.0312 16.4861L18.2784 16.3394C18.3565 16.2919 18.4496 16.2753 18.5393 16.2929C18.629 16.3104 18.709 16.3609 18.7634 16.4344C18.8179 16.5078 18.8429 16.599 18.8336 16.69C18.8244 16.7809 18.7814 16.8651 18.7132 16.9261L18.1046 17.4988L18.2813 17.3976C18.3468 17.3597 18.4225 17.343 18.4978 17.3498C18.5732 17.3566 18.6447 17.3865 18.7024 17.4355C18.7601 17.4845 18.8012 17.5502 18.8201 17.6235C18.8389 17.6968 18.8347 17.7742 18.8078 17.845L18.3788 18.9728C18.4645 18.9515 18.5549 18.9617 18.6336 19.0017C18.7123 19.0416 18.774 19.1087 18.8072 19.1904C18.8405 19.2722 18.8431 19.3632 18.8147 19.4468C18.7862 19.5303 18.7286 19.6008 18.6524 19.6453L17.8611 20.1029C17.8042 20.1354 17.7396 20.1522 17.6741 20.1513Z" fill="#F2CF7E"/>
<path d="M21.4071 16.4069C21.3349 16.407 21.2642 16.3858 21.2039 16.3459C21.1437 16.306 21.0966 16.2492 21.0685 16.1826C21.0405 16.116 21.0327 16.0426 21.0463 15.9716C21.0598 15.9006 21.094 15.8352 21.1446 15.7836L22.1713 14.7364L21.5912 15.0708C21.5132 15.1137 21.4222 15.1268 21.3352 15.1075C21.2483 15.0883 21.1713 15.038 21.1187 14.9662C21.066 14.8943 21.0413 14.8058 21.0492 14.7171C21.0571 14.6284 21.097 14.5455 21.1615 14.4841L21.5281 14.149C21.451 14.1767 21.3667 14.1777 21.2889 14.1519C21.2111 14.1261 21.1441 14.075 21.0988 14.0066C21.0534 13.9383 21.0323 13.8568 21.0387 13.775C21.0452 13.6933 21.0788 13.6161 21.1343 13.5557L22.4265 12.147L21.5934 12.628C21.5158 12.6747 21.4237 12.6911 21.3348 12.6739C21.2459 12.6568 21.1665 12.6073 21.1119 12.5351C21.0572 12.4629 21.0313 12.3731 21.0389 12.2829C21.0466 12.1926 21.0874 12.1084 21.1534 12.0465L21.6557 11.5632L21.5912 11.5992C21.5229 11.6397 21.4431 11.6566 21.3642 11.6472C21.2853 11.6378 21.2117 11.6026 21.1549 11.5471C21.0975 11.4925 21.0593 11.4207 21.0461 11.3426C21.0328 11.2645 21.0453 11.1842 21.0815 11.1137L21.4438 10.4134C21.3636 10.4124 21.2859 10.3852 21.2226 10.3359C21.1593 10.2866 21.1139 10.2179 21.0935 10.1403C21.073 10.0627 21.0785 9.98056 21.1092 9.90643C21.1399 9.8323 21.1941 9.77028 21.2634 9.72989L22.1155 9.23856C22.1837 9.19804 22.2634 9.18118 22.3422 9.19059C22.4209 9.20001 22.4944 9.23517 22.5511 9.29063C22.6085 9.34524 22.6467 9.41699 22.6599 9.49512C22.6732 9.57325 22.6607 9.65356 22.6245 9.72403L22.3062 10.3408L23.8836 9.42996C23.9612 9.38326 24.0533 9.36691 24.1422 9.38406C24.2311 9.40121 24.3105 9.45065 24.3651 9.52285C24.4198 9.59506 24.4457 9.68492 24.4381 9.77514C24.4304 9.86535 24.3896 9.94955 24.3236 10.0115L23.8235 10.4948L24.1168 10.3246C24.1927 10.2806 24.2818 10.2652 24.3681 10.2812C24.4543 10.2973 24.532 10.3437 24.5869 10.4121C24.6418 10.4805 24.6704 10.5664 24.6674 10.6541C24.6645 10.7418 24.6302 10.8255 24.5707 10.89L23.2837 12.2966L24.1205 11.8133C24.1985 11.7704 24.2895 11.7573 24.3764 11.7765C24.4634 11.7958 24.5404 11.846 24.593 11.9179C24.6456 11.9897 24.6703 12.0783 24.6624 12.167C24.6546 12.2557 24.6147 12.3385 24.5502 12.4L24.1835 12.7336C24.2617 12.7055 24.3471 12.7047 24.4258 12.7314C24.5045 12.7581 24.5718 12.8108 24.6166 12.8808C24.6614 12.9507 24.6812 13.0339 24.6726 13.1165C24.664 13.1992 24.6275 13.2765 24.5693 13.3357L23.5426 14.3836L24.1293 14.047C24.171 14.0205 24.2177 14.0027 24.2665 13.9947C24.3153 13.9866 24.3652 13.9886 24.4132 14.0003C24.4612 14.0121 24.5064 14.0335 24.546 14.0631C24.5855 14.0928 24.6187 14.1302 24.6434 14.173C24.6682 14.2158 24.684 14.2632 24.69 14.3123C24.6959 14.3613 24.6919 14.4111 24.6781 14.4586C24.6643 14.5061 24.6411 14.5503 24.6098 14.5886C24.5785 14.6269 24.5397 14.6584 24.4959 14.6814L21.5905 16.3578C21.5349 16.3903 21.4715 16.4073 21.4071 16.4069Z" fill="#F2CF7E"/>
<path d="M11.802 16.4143C11.7403 16.4143 11.6796 16.3988 11.6255 16.3691C11.5714 16.3394 11.5256 16.2965 11.4925 16.2445C11.4594 16.1924 11.4399 16.1328 11.4359 16.0712C11.432 16.0097 11.4436 15.9481 11.4698 15.8922L11.7528 15.2879L11.0004 15.7213C10.9273 15.7632 10.842 15.7785 10.7588 15.7648C10.6756 15.7511 10.5998 15.7092 10.5439 15.6461C10.488 15.583 10.4556 15.5026 10.4521 15.4184C10.4485 15.3342 10.4741 15.2513 10.5245 15.1838L11.2036 14.2811L9.92538 15.0188C9.84731 15.0629 9.75578 15.0768 9.66812 15.058C9.58045 15.0392 9.50271 14.9889 9.44961 14.9167C9.39651 14.8444 9.37172 14.7552 9.37993 14.6659C9.38814 14.5767 9.42879 14.4935 9.49418 14.4321L9.87991 14.0765L9.87185 14.0809C9.79372 14.1276 9.70099 14.1436 9.61171 14.1258C9.52243 14.1079 9.44298 14.0575 9.38882 13.9843C9.33466 13.9111 9.30967 13.8204 9.31871 13.7298C9.32774 13.6392 9.37016 13.5552 9.43771 13.4942L9.98845 12.9809L9.87185 13.0483C9.7954 13.092 9.7058 13.1066 9.61942 13.0897C9.53305 13.0727 9.45565 13.0252 9.40138 12.9559C9.34711 12.8866 9.31959 12.8001 9.32383 12.7122C9.32808 12.6243 9.36382 12.5408 9.42451 12.4771L10.3896 11.4731L9.87185 11.7716C9.8043 11.8098 9.72639 11.8256 9.6493 11.8167C9.57222 11.8078 9.49995 11.7747 9.44288 11.7221C9.38582 11.6695 9.34691 11.6002 9.33175 11.5241C9.31659 11.448 9.32596 11.369 9.35851 11.2986L9.77578 10.4105C9.70358 10.4212 9.62986 10.4096 9.56438 10.3774C9.49889 10.3452 9.44475 10.2938 9.40911 10.2301C9.36072 10.146 9.34768 10.0461 9.37283 9.95231C9.39799 9.85856 9.4593 9.77861 9.54331 9.72999L10.3947 9.23865C10.4622 9.20062 10.54 9.18493 10.6169 9.19384C10.6939 9.20275 10.766 9.23579 10.823 9.28823C10.88 9.34067 10.9189 9.40982 10.9342 9.48576C10.9495 9.56169 10.9403 9.64051 10.908 9.71092L10.5128 10.5535L12.261 9.54519C12.3375 9.50155 12.4271 9.48687 12.5135 9.50383C12.5998 9.52079 12.6772 9.56826 12.7315 9.63757C12.7858 9.70687 12.8133 9.79339 12.8091 9.88131C12.8048 9.96924 12.7691 10.0527 12.7084 10.1165L11.7484 11.1175L12.3945 10.7449C12.4726 10.6982 12.5654 10.6822 12.6546 10.7C12.7439 10.7178 12.8234 10.7683 12.8775 10.8414C12.9317 10.9146 12.9567 11.0054 12.9477 11.0959C12.9386 11.1865 12.8962 11.2705 12.8286 11.3316L12.2779 11.8449L12.3945 11.7782C12.4726 11.7341 12.5641 11.7201 12.6518 11.7389C12.7394 11.7578 12.8172 11.808 12.8703 11.8803C12.9234 11.9525 12.9482 12.0417 12.94 12.131C12.9318 12.2203 12.8911 12.3035 12.8257 12.3649L12.4312 12.7315C12.5055 12.6989 12.5884 12.6919 12.6671 12.7115C12.7458 12.7311 12.8158 12.7763 12.8661 12.8399C12.9164 12.9035 12.9442 12.9821 12.9451 13.0632C12.946 13.1443 12.92 13.2234 12.8712 13.2881L12.1921 14.1909L12.3952 14.0743C12.4627 14.0362 12.5405 14.0205 12.6175 14.0294C12.6944 14.0383 12.7665 14.0714 12.8235 14.1238C12.8805 14.1763 12.9195 14.2454 12.9348 14.3214C12.95 14.3973 12.9409 14.4761 12.9086 14.5465L12.5859 15.2359C12.6658 15.2379 12.7429 15.266 12.8053 15.3159C12.8678 15.3657 12.9123 15.4347 12.932 15.5121C12.9516 15.5896 12.9455 15.6714 12.9144 15.745C12.8833 15.8187 12.829 15.8801 12.7597 15.9201L11.9838 16.3681C11.9283 16.399 11.8656 16.415 11.802 16.4143Z" fill="#F2CF7E"/>
<path d="M15.2964 4.74468C15.2194 4.74468 15.1444 4.72046 15.082 4.67547C15.0196 4.63047 14.9729 4.56697 14.9485 4.49396C14.9242 4.42095 14.9234 4.34214 14.9464 4.26868C14.9693 4.19523 15.0148 4.13085 15.0764 4.08468L15.1974 3.99301L13.9808 4.69335C13.9019 4.73858 13.809 4.75288 13.7201 4.73345C13.6313 4.71402 13.5528 4.66226 13.5 4.58822C13.4471 4.51419 13.4237 4.42315 13.4342 4.33281C13.4447 4.24246 13.4885 4.15925 13.5569 4.09934L14.8571 2.97148L11.8945 4.68161C11.8155 4.727 11.7224 4.74136 11.6334 4.72188C11.5444 4.7024 11.4658 4.65049 11.413 4.57625C11.3602 4.50202 11.3369 4.41078 11.3477 4.32031C11.3585 4.22984 11.4025 4.14663 11.4713 4.08688L12.74 2.98688L10.8649 4.07294C10.7867 4.11898 10.6943 4.13444 10.6055 4.11634C10.5166 4.09824 10.4376 4.04786 10.3838 3.97493C10.3299 3.90199 10.3049 3.81169 10.3138 3.72144C10.3226 3.6312 10.3645 3.54742 10.4315 3.48628L11.3005 2.67961L10.6053 3.08001C10.5287 3.12367 10.439 3.13831 10.3526 3.12127C10.2662 3.10422 10.1888 3.05662 10.1345 2.98718C10.0803 2.91774 10.0529 2.8311 10.0574 2.74311C10.0618 2.65512 10.0977 2.57166 10.1587 2.50801L10.4153 2.24328C10.3579 2.24217 10.3015 2.22758 10.2508 2.2007C10.2 2.17381 10.1563 2.13538 10.1231 2.08851C10.09 2.04163 10.0682 1.98761 10.0598 1.93081C10.0513 1.874 10.0563 1.816 10.0743 1.76148L10.2313 1.28188C10.1786 1.25037 10.1351 1.20562 10.1051 1.15208C10.0808 1.11036 10.0649 1.06424 10.0585 1.01638C10.052 0.968521 10.0551 0.919854 10.0675 0.873177C10.0799 0.8265 10.1014 0.782733 10.1307 0.744389C10.1601 0.706046 10.1968 0.673882 10.2386 0.649744L10.6053 0.43781C10.6696 0.400695 10.7436 0.383976 10.8176 0.389865C10.8916 0.395754 10.9621 0.423973 11.0197 0.470789C11.0774 0.517606 11.1194 0.580814 11.1404 0.652052C11.1613 0.72329 11.1601 0.799201 11.1369 0.869744L11.0687 1.07728L12.1827 0.434877C12.2592 0.391219 12.3489 0.376573 12.4353 0.393619C12.5217 0.410666 12.5991 0.458265 12.6534 0.527707C12.7076 0.59715 12.735 0.683792 12.7306 0.771783C12.7261 0.859773 12.6902 0.943228 12.6293 1.00688L12.5061 1.13448L13.7219 0.432677C13.8 0.38664 13.8924 0.371179 13.9813 0.389282C14.0701 0.407384 14.1491 0.457765 14.203 0.530696C14.2569 0.603627 14.2818 0.693934 14.273 0.784179C14.2642 0.874424 14.2223 0.958205 14.1553 1.01934L13.287 1.82601L15.707 0.427544C15.786 0.382153 15.8791 0.367797 15.9681 0.387274C16.0571 0.406751 16.1357 0.458665 16.1885 0.532901C16.2413 0.607138 16.2646 0.698379 16.2538 0.788847C16.243 0.879315 16.199 0.962529 16.1302 1.02228L14.8615 2.12228L17.8066 0.425344C17.8856 0.379202 17.979 0.36427 18.0685 0.38348C18.1579 0.402691 18.237 0.454655 18.2901 0.529168C18.3432 0.60368 18.3665 0.695355 18.3555 0.786188C18.3444 0.87702 18.2998 0.960445 18.2304 1.02008L16.9266 2.14868L19.9171 0.421677C19.9978 0.37665 20.0925 0.363744 20.1823 0.38554C20.2721 0.407336 20.3503 0.462227 20.4014 0.539233C20.4524 0.61624 20.4726 0.709684 20.4577 0.800876C20.4428 0.892068 20.3941 0.974283 20.3212 1.03108L20.1987 1.12421L21.4197 0.419477C21.4986 0.374239 21.5915 0.359946 21.6804 0.379372C21.7692 0.398798 21.8477 0.450558 21.9005 0.524597C21.9534 0.598636 21.9768 0.68967 21.9663 0.780015C21.9557 0.870361 21.912 0.953569 21.8436 1.01348L20.5199 2.16848L23.3946 0.50821C23.4751 0.462896 23.5698 0.44965 23.6596 0.471122C23.7495 0.492594 23.8279 0.547201 23.8793 0.624021C23.9306 0.70084 23.951 0.794209 23.9365 0.885452C23.922 0.976695 23.8735 1.05909 23.8008 1.11614L23.484 1.36034C23.5545 1.34239 23.6286 1.34546 23.6973 1.36918C23.766 1.3929 23.8262 1.43623 23.8705 1.49381C23.9245 1.56532 23.9504 1.6541 23.9433 1.74341C23.9363 1.83271 23.8968 1.91635 23.8324 1.97854L23.2134 2.57988L23.3946 2.47501C23.4784 2.43117 23.5759 2.42141 23.6667 2.44776C23.7575 2.47411 23.8347 2.53454 23.882 2.61641C23.9293 2.69829 23.9432 2.79529 23.9207 2.88714C23.8982 2.979 23.8411 3.05861 23.7612 3.10934L21.0156 4.69335C20.9382 4.73929 20.8465 4.75511 20.7581 4.73777C20.6697 4.72044 20.5908 4.67117 20.5364 4.59937C20.482 4.52757 20.4559 4.43825 20.4631 4.34847C20.4704 4.25868 20.5104 4.1747 20.5756 4.11254L21.196 3.51121L19.1493 4.69335C19.0688 4.73958 18.9737 4.75353 18.8832 4.73236C18.7928 4.7112 18.7138 4.65651 18.6621 4.57933C18.6104 4.50215 18.59 4.40823 18.6049 4.31656C18.6197 4.22488 18.6689 4.14227 18.7423 4.08541L18.9821 3.90061L17.6086 4.69335C17.5298 4.73776 17.4373 4.75148 17.349 4.73186C17.2607 4.71224 17.1828 4.66068 17.1302 4.58707C17.0776 4.51347 17.0541 4.42303 17.0642 4.33313C17.0742 4.24324 17.1172 4.16023 17.1847 4.10008L18.5113 2.94434L15.4797 4.69335C15.4243 4.72653 15.361 4.74425 15.2964 4.74468Z" fill="#E1EFFF"/>
<path d="M21.4579 16.8843C21.3894 16.8841 21.3224 16.8647 21.2643 16.8284C21.2063 16.792 21.1596 16.7401 21.1295 16.6786C21.0995 16.6171 21.0872 16.5484 21.0942 16.4803C21.1012 16.4122 21.1271 16.3474 21.169 16.2932L21.8114 15.4653C21.7733 15.4364 21.7416 15.3999 21.7182 15.3582C21.6698 15.2741 21.6566 15.1743 21.6816 15.0806C21.7067 14.9868 21.7678 14.9068 21.8517 14.8581L22.695 14.3719C22.7686 14.33 22.8544 14.3148 22.9379 14.329C23.0213 14.3432 23.0973 14.3858 23.1529 14.4496C23.2085 14.5134 23.2404 14.5945 23.243 14.6791C23.2456 14.7637 23.2189 14.8467 23.1673 14.9138L22.8945 15.2651L24.4433 14.3733C24.485 14.3468 24.5317 14.329 24.5805 14.321C24.6293 14.3129 24.6792 14.3149 24.7273 14.3266C24.7753 14.3384 24.8204 14.3598 24.86 14.3894C24.8996 14.4191 24.9327 14.4565 24.9575 14.4993C24.9822 14.5421 24.998 14.5895 25.004 14.6386C25.01 14.6876 25.0059 14.7374 24.9922 14.7849C24.9784 14.8324 24.9551 14.8766 24.9238 14.9149C24.8925 14.9532 24.8538 14.9847 24.81 15.0077L21.6412 16.8366C21.5855 16.8686 21.5222 16.8851 21.4579 16.8843Z" fill="#CAB5CF"/>
<path d="M10.9766 30.4289C10.8978 30.4288 10.8212 30.4033 10.7581 30.3562C10.6949 30.3091 10.6486 30.243 10.626 30.1676C10.6034 30.0921 10.6056 30.0114 10.6325 29.9374C10.6593 29.8633 10.7092 29.7999 10.7749 29.7564L14.7136 27.1538L10.3004 29.7C10.2183 29.7476 10.1208 29.7616 10.0286 29.7388C9.93635 29.7161 9.85655 29.6584 9.80598 29.578C9.75541 29.4976 9.73803 29.4007 9.75748 29.3077C9.77694 29.2148 9.83172 29.133 9.91029 29.0796L17.0449 24.2117L10.1002 28.2201C10.0178 28.2662 9.92065 28.2787 9.82918 28.255C9.73771 28.2313 9.65893 28.1732 9.60927 28.0928C9.55962 28.0124 9.54292 27.9159 9.56266 27.8235C9.5824 27.7311 9.63705 27.6499 9.71522 27.5968L14.3638 24.552L9.94769 27.1018C9.90652 27.1268 9.86083 27.1434 9.81323 27.1507C9.76564 27.1581 9.71706 27.1559 9.67027 27.1445C9.62349 27.1331 9.57942 27.1125 9.54058 27.084C9.50174 27.0556 9.46888 27.0197 9.44389 26.9786C9.4189 26.9374 9.40226 26.8917 9.39493 26.8441C9.3876 26.7965 9.38971 26.7479 9.40115 26.7011C9.41259 26.6544 9.43313 26.6103 9.46161 26.5715C9.49008 26.5326 9.52592 26.4998 9.56709 26.4748L11.0147 25.5544L9.83036 26.2379C9.74754 26.285 9.64963 26.2981 9.55737 26.2743C9.4651 26.2505 9.38572 26.1917 9.33605 26.1104C9.28638 26.029 9.27032 25.9316 9.29127 25.8386C9.31222 25.7457 9.36854 25.6645 9.44829 25.6124L12.455 23.6837L9.70056 25.2736C9.62027 25.3198 9.52545 25.3339 9.43517 25.3131C9.34489 25.2923 9.26584 25.2381 9.21392 25.1613C9.16199 25.0846 9.14103 24.9911 9.15526 24.8995C9.16949 24.808 9.21785 24.7252 9.29062 24.6678L12.7087 21.9853L9.50329 23.8333C9.42329 23.8787 9.32913 23.8924 9.2395 23.8717C9.14987 23.8509 9.07132 23.7972 9.01944 23.7212C8.96756 23.6452 8.94613 23.5525 8.95942 23.4615C8.9727 23.3705 9.01973 23.2877 9.09116 23.2298L11.2142 21.5284L9.33756 22.6123C9.25947 22.657 9.16766 22.6715 9.07962 22.6529C8.99157 22.6343 8.91344 22.584 8.86009 22.5115C8.80674 22.439 8.7819 22.3495 8.79029 22.2599C8.79869 22.1703 8.83974 22.0869 8.90562 22.0256L11.1144 19.9921L9.13442 21.1332C9.05503 21.1779 8.96182 21.1915 8.87295 21.1713C8.78408 21.1511 8.70593 21.0985 8.65373 21.0238C8.60154 20.949 8.57904 20.8576 8.59063 20.7672C8.60223 20.6768 8.64707 20.5939 8.71642 20.5348L9.61769 19.7824L8.99949 20.1388C8.92146 20.1817 8.83047 20.1948 8.74351 20.1755C8.65655 20.1563 8.57957 20.106 8.52694 20.0342C8.47431 19.9623 8.44963 19.8738 8.45751 19.7851C8.46539 19.6964 8.50529 19.6136 8.56976 19.5521L9.72182 18.5078L8.84622 19.0138C8.76738 19.0596 8.6743 19.0744 8.58514 19.0553C8.49599 19.0362 8.41715 18.9846 8.36402 18.9104C8.31089 18.8363 8.28728 18.7451 8.29779 18.6545C8.30831 18.5639 8.3522 18.4805 8.42089 18.4206L9.09776 17.8273L8.71496 18.0473C8.63697 18.0892 8.54648 18.1014 8.46019 18.0817C8.37389 18.0621 8.29762 18.0119 8.24543 17.9404C8.19325 17.8689 8.16868 17.781 8.17627 17.6928C8.18385 17.6046 8.22307 17.5222 8.28669 17.4606L8.88582 16.9216L8.58516 17.0954C8.52057 17.1326 8.44618 17.1493 8.37191 17.1431C8.29763 17.137 8.22699 17.1083 8.1694 17.061C8.11181 17.0137 8.07001 16.95 8.04957 16.8783C8.02912 16.8066 8.031 16.7304 8.05496 16.6598L8.45169 15.496L8.43996 15.5034C8.39821 15.5274 8.35213 15.5431 8.30435 15.5493C8.25656 15.5556 8.20802 15.5524 8.16147 15.5399C8.11493 15.5274 8.0713 15.5059 8.03308 15.4765C7.99486 15.4471 7.9628 15.4106 7.93872 15.3688C7.91465 15.3271 7.89903 15.281 7.89276 15.2332C7.8865 15.1854 7.8897 15.1369 7.9022 15.0903C7.91469 15.0438 7.93624 15.0002 7.96559 14.9619C7.99495 14.9237 8.03154 14.8916 8.07329 14.8676L8.93349 14.3733C8.99809 14.3359 9.07258 14.319 9.14701 14.3251C9.22143 14.3311 9.29224 14.3597 9.34997 14.407C9.40769 14.4544 9.44958 14.5183 9.47004 14.5901C9.49049 14.6619 9.48853 14.7382 9.46443 14.8089L9.06842 15.9712L11.5618 14.5317C11.6397 14.4899 11.7302 14.4776 11.8165 14.4973C11.9028 14.5169 11.9791 14.5671 12.0313 14.6386C12.0835 14.7101 12.108 14.798 12.1004 14.8862C12.0929 14.9744 12.0536 15.0568 11.99 15.1184L11.3902 15.6581L11.9519 15.3332C12.0307 15.2874 12.1238 15.2726 12.213 15.2918C12.3021 15.3109 12.381 15.3625 12.4341 15.4366C12.4872 15.5107 12.5108 15.602 12.5003 15.6926C12.4898 15.7831 12.4459 15.8665 12.3772 15.9265L11.7018 16.5198L12.3376 16.1531C12.4157 16.1102 12.5066 16.0971 12.5936 16.1164C12.6806 16.1356 12.7575 16.1858 12.8102 16.2577C12.8628 16.3295 12.8875 16.4181 12.8796 16.5068C12.8717 16.5955 12.8318 16.6783 12.7674 16.7398L11.6138 17.7848L12.9338 17.0236C13.0132 16.9781 13.1068 16.9639 13.1961 16.9839C13.2855 17.0038 13.3641 17.0565 13.4166 17.1315C13.469 17.2065 13.4916 17.2984 13.4797 17.3891C13.4679 17.4799 13.4225 17.563 13.3526 17.622L12.4513 18.3751L13.6166 17.7026C13.6946 17.6579 13.7865 17.6435 13.8745 17.6621C13.9625 17.6807 14.0407 17.731 14.094 17.8034C14.1474 17.8759 14.1722 17.9655 14.1638 18.055C14.1554 18.1446 14.1144 18.228 14.0485 18.2893L11.8404 20.3228L15.0202 18.4866C15.1002 18.4411 15.1943 18.4275 15.2839 18.4482C15.3736 18.469 15.4521 18.5227 15.504 18.5986C15.5559 18.6746 15.5773 18.7673 15.564 18.8584C15.5507 18.9494 15.5037 19.0321 15.4323 19.0901L13.31 20.7907L16.808 18.7711C16.8883 18.7249 16.9831 18.7107 17.0734 18.7316C17.1637 18.7524 17.2427 18.8066 17.2947 18.8833C17.3466 18.9601 17.3675 19.0536 17.3533 19.1452C17.3391 19.2367 17.2907 19.3195 17.218 19.3768L13.8006 22.0586L25.5802 15.2614C25.663 15.2142 25.7609 15.2012 25.8531 15.225C25.9454 15.2488 26.0248 15.3076 26.0745 15.3889C26.1241 15.4702 26.1402 15.5677 26.1192 15.6606C26.0983 15.7536 26.042 15.8348 25.9622 15.8869L22.9556 17.8156L25.4269 16.3892C25.5098 16.3429 25.6074 16.3305 25.6992 16.3547C25.791 16.3789 25.8698 16.4377 25.9191 16.5189C25.9684 16.6 25.9844 16.6971 25.9635 16.7897C25.9427 16.8823 25.8868 16.9633 25.8075 17.0155L24.3526 17.941L25.2912 17.3998C25.3736 17.3549 25.4701 17.3434 25.5607 17.3675C25.6514 17.3916 25.7294 17.4496 25.7786 17.5294C25.8278 17.6093 25.8446 17.705 25.8254 17.7968C25.8062 17.8886 25.7526 17.9696 25.6755 18.0231L21.0298 21.0664L25.1152 18.7073C25.1973 18.6604 25.2942 18.647 25.3859 18.6699C25.4776 18.6927 25.5569 18.7501 25.6073 18.83C25.6577 18.9099 25.6753 19.0062 25.6565 19.0988C25.6376 19.1914 25.5837 19.2731 25.5061 19.327L18.3708 24.1963L24.882 20.4372C24.9645 20.3911 25.0616 20.3786 25.1531 20.4023C25.2445 20.426 25.3233 20.4842 25.373 20.5646C25.4226 20.645 25.4393 20.7414 25.4196 20.8338C25.3999 20.9263 25.3452 21.0075 25.267 21.0606L21.3268 23.6639L24.7104 21.7103C24.7925 21.6641 24.8892 21.6513 24.9805 21.6745C25.0718 21.6977 25.1506 21.7552 25.2007 21.835C25.2508 21.9147 25.2682 22.0107 25.2495 22.103C25.2307 22.1953 25.1771 22.2768 25.0998 22.3307L21.4163 24.8424L24.5308 23.045C24.6128 23 24.7089 22.9881 24.7994 23.0117C24.89 23.0352 24.9681 23.0925 25.0177 23.1718C25.0674 23.2511 25.0849 23.3464 25.0666 23.4381C25.0483 23.5299 24.9957 23.6112 24.9194 23.6654L23.5708 24.5776L24.3878 24.1061C24.468 24.0599 24.5629 24.0457 24.6531 24.0666C24.7434 24.0874 24.8225 24.1416 24.8744 24.2183C24.9263 24.2951 24.9473 24.3886 24.9331 24.4802C24.9188 24.5717 24.8705 24.6545 24.7977 24.7118L21.6876 27.1516L24.1707 25.718C24.2494 25.6724 24.3421 25.6578 24.431 25.6768C24.5199 25.6958 24.5985 25.7471 24.6517 25.8209C24.7049 25.8946 24.7288 25.9854 24.7187 26.0758C24.7087 26.1661 24.6655 26.2495 24.5975 26.3098L22.7781 27.9231L23.9661 27.2382C24.0414 27.195 24.1295 27.1799 24.2148 27.1956C24.3001 27.2113 24.3771 27.2568 24.4321 27.3239C24.4871 27.391 24.5165 27.4755 24.5151 27.5622C24.5137 27.649 24.4816 27.7324 24.4244 27.7977L23.7094 28.608L23.7879 28.5626C23.855 28.5238 23.9328 28.5073 24.0099 28.5155C24.087 28.5237 24.1595 28.5561 24.217 28.6081C24.2745 28.6601 24.3141 28.729 24.33 28.8048C24.346 28.8807 24.3374 28.9597 24.3056 29.0304L24.079 29.5328C24.1124 29.5607 24.1407 29.5942 24.1626 29.6318C24.2112 29.716 24.2244 29.8161 24.1993 29.91C24.1741 30.0039 24.1126 30.084 24.0284 30.1326L23.6302 30.3622C23.5631 30.4008 23.4856 30.4171 23.4086 30.4089C23.3316 30.4008 23.2592 30.3684 23.2018 30.3166C23.1443 30.2647 23.1047 30.196 23.0887 30.1203C23.0726 30.0446 23.081 29.9657 23.1125 29.895L23.1704 29.766L22.1335 30.3644C22.0582 30.4075 21.9701 30.4226 21.8848 30.4069C21.7994 30.3912 21.7224 30.3457 21.6675 30.2786C21.6125 30.2115 21.5831 30.1271 21.5845 30.0403C21.5859 29.9536 21.618 29.8701 21.6752 29.8048L22.3909 28.9938L20.0068 30.3673C19.9283 30.412 19.8359 30.4261 19.7476 30.4069C19.6593 30.3877 19.5811 30.3365 19.5282 30.2633C19.4753 30.19 19.4513 30.0997 19.4609 30.0098C19.4704 29.9199 19.5129 29.8367 19.58 29.7762L21.4002 28.16L17.5744 30.3688C17.4941 30.4141 17.3997 30.4276 17.31 30.4064C17.2202 30.3853 17.1418 30.3312 17.0902 30.2548C17.0386 30.1784 17.0176 30.0854 17.0315 29.9942C17.0454 29.9031 17.0931 29.8206 17.1652 29.763L20.2745 27.324L14.9945 30.3724C14.9122 30.4212 14.8141 30.4359 14.7212 30.4133C14.6282 30.3908 14.5477 30.3328 14.4969 30.2517C14.4461 30.1707 14.429 30.073 14.4492 29.9795C14.4694 29.886 14.5253 29.8041 14.6051 29.7513L15.9537 28.8398L13.2946 30.3746C13.2125 30.4208 13.1158 30.4336 13.0245 30.4104C12.9333 30.3872 12.8544 30.3297 12.8043 30.25C12.7543 30.1702 12.7368 30.0742 12.7556 29.9819C12.7744 29.8896 12.828 29.8081 12.9052 29.7542L16.5895 27.2418L11.1584 30.3776C11.1034 30.4105 11.0407 30.4282 10.9766 30.4289Z" fill="#CAB5CF"/>
<path d="M16.1844 27.3181C16.1105 27.3181 16.0384 27.2957 15.9774 27.2539C15.9165 27.2121 15.8696 27.1529 15.8429 27.084C15.8161 27.0151 15.8109 26.9398 15.8277 26.8678C15.8446 26.7959 15.8828 26.7307 15.9373 26.6809L16.3362 26.3142L15.6029 26.7388C15.527 26.7829 15.4377 26.7982 15.3514 26.7821C15.2651 26.7659 15.1875 26.7194 15.1326 26.6508C15.0777 26.5823 15.0493 26.4963 15.0524 26.4086C15.0555 26.3208 15.0901 26.2371 15.1497 26.1727L16.4638 24.7449L15.0331 25.5706C14.9597 25.6126 14.874 25.6279 14.7905 25.614C14.7071 25.6 14.6311 25.5576 14.5753 25.494C14.5195 25.4304 14.4875 25.3495 14.4846 25.2649C14.4817 25.1804 14.5081 25.0974 14.5594 25.0301L15.3587 23.9888C15.2795 24.0113 15.1952 24.0069 15.1188 23.9764C15.0424 23.9459 14.9782 23.8909 14.9363 23.8201C14.8878 23.7361 14.8747 23.6362 14.8997 23.5425C14.9247 23.4487 14.9859 23.3687 15.0698 23.32L16.5731 22.4517C16.6465 22.4093 16.7324 22.3937 16.8161 22.4075C16.8998 22.4213 16.9761 22.4636 17.032 22.5274C17.088 22.5911 17.1201 22.6722 17.1229 22.757C17.1258 22.8417 17.0991 22.9249 17.0476 22.9922L16.2629 24.0145L18.1754 22.9145C18.2514 22.8704 18.3406 22.855 18.4269 22.8712C18.5132 22.8873 18.5909 22.9339 18.6457 23.0024C18.7006 23.071 18.7291 23.1569 18.7259 23.2447C18.7228 23.3324 18.6883 23.4161 18.6286 23.4806L17.3152 24.9077L18.9036 23.9903C18.9817 23.9468 19.0729 23.9333 19.1602 23.9523C19.2475 23.9713 19.3249 24.0216 19.3778 24.0936C19.4306 24.1657 19.4554 24.2545 19.4473 24.3435C19.4393 24.4325 19.399 24.5155 19.3341 24.5769L18.9337 24.9436L18.9762 24.9187C19.0604 24.8708 19.1601 24.8582 19.2535 24.8835C19.347 24.9089 19.4266 24.9702 19.475 25.0541C19.5234 25.1379 19.5367 25.2375 19.5119 25.3311C19.4872 25.4247 19.4264 25.5048 19.3429 25.5537L16.3707 27.2697C16.314 27.3022 16.2497 27.3189 16.1844 27.3181Z" fill="#3B2186"/>
<path d="M16.0173 43.4602C15.9386 43.4601 15.862 43.4347 15.7989 43.3878C15.7357 43.3409 15.6893 43.2749 15.6666 43.1996C15.6438 43.1243 15.6459 43.0437 15.6724 42.9697C15.699 42.8956 15.7487 42.8321 15.8141 42.7884L23.4789 37.6698L14.8579 42.6469C14.7753 42.6917 14.6786 42.7031 14.5879 42.6788C14.4971 42.6544 14.4192 42.5961 14.3701 42.5159C14.3211 42.4358 14.3047 42.3398 14.3244 42.2479C14.3441 42.156 14.3983 42.0752 14.4758 42.0221L20.1034 38.3833L13.9067 41.9605C13.8243 42.0066 13.7272 42.0191 13.6357 41.9954C13.5442 41.9717 13.4654 41.9136 13.4158 41.8332C13.3661 41.7528 13.3494 41.6563 13.3692 41.5639C13.3889 41.4715 13.4436 41.3903 13.5217 41.3372L20.7883 36.539L12.795 41.159C12.7128 41.2066 12.6154 41.2206 12.5231 41.1978C12.4309 41.1751 12.3511 41.1174 12.3005 41.037C12.25 40.9566 12.2326 40.8597 12.252 40.7667C12.2715 40.6737 12.3263 40.5919 12.4049 40.5386L20.0799 35.3033L10.8517 40.6266C10.7692 40.6708 10.6729 40.6819 10.5826 40.6575C10.4922 40.633 10.4146 40.575 10.3657 40.4952C10.3168 40.4154 10.3002 40.32 10.3194 40.2284C10.3385 40.1367 10.392 40.0559 10.4689 40.0025L14.6965 37.2532L8.84599 40.6266C8.76352 40.6727 8.66642 40.6852 8.57495 40.6615C8.48347 40.6378 8.4047 40.5796 8.35504 40.4992C8.30538 40.4188 8.28868 40.3224 8.30842 40.23C8.32816 40.1375 8.38282 40.0563 8.46099 40.0032L13.5276 36.6688L6.67092 40.6288C6.58827 40.673 6.49181 40.6839 6.40136 40.6592C6.31091 40.6346 6.23335 40.5762 6.18462 40.4961C6.13589 40.416 6.11969 40.3203 6.13935 40.2286C6.15901 40.1369 6.21303 40.0563 6.29032 40.0032L8.94059 38.3034L4.91312 40.6266C4.83057 40.6744 4.73261 40.6882 4.64005 40.665C4.54749 40.6418 4.46762 40.5834 4.41741 40.5023C4.3672 40.4212 4.35059 40.3236 4.37113 40.2304C4.39166 40.1373 4.44772 40.0557 4.52739 40.0032L9.67759 36.6101L2.80625 40.5767C2.72422 40.6266 2.62588 40.6424 2.53236 40.6205C2.43884 40.5987 2.35762 40.5411 2.30613 40.46C2.25465 40.379 2.23703 40.2809 2.25705 40.187C2.27706 40.0931 2.33313 40.0108 2.41319 39.9578L9.76266 34.8692L1.45325 39.6688C1.37028 39.7175 1.27152 39.7315 1.17826 39.708C1.085 39.6845 1.00471 39.6253 0.954687 39.5432C0.904668 39.461 0.888927 39.3625 0.910856 39.2689C0.932786 39.1752 0.990629 39.094 1.07192 39.0426L1.79792 38.5791L1.13792 38.9597C1.05557 39.0074 0.957882 39.0213 0.865515 38.9983C0.773148 38.9753 0.69334 38.9173 0.642961 38.8365C0.592582 38.7558 0.575582 38.6586 0.595555 38.5655C0.615527 38.4725 0.670907 38.3908 0.749987 38.3378L4.61612 35.736L1.07192 37.7812C0.990998 37.8279 0.895299 37.842 0.804369 37.8205C0.713438 37.799 0.634135 37.7437 0.582654 37.6657C0.531174 37.5877 0.5114 37.493 0.52737 37.401C0.543341 37.3089 0.593852 37.2264 0.668587 37.1704L5.58192 33.4993L1.07192 36.1012C0.989887 36.148 0.892919 36.1615 0.801237 36.1386C0.709556 36.1157 0.630239 36.0584 0.579829 35.9784C0.529419 35.8985 0.511807 35.8022 0.530666 35.7096C0.549525 35.6171 0.603399 35.5353 0.681054 35.4815L1.25232 35.0892L1.07192 35.1926C0.991692 35.2371 0.897684 35.2499 0.808456 35.2285C0.719228 35.2071 0.641267 35.153 0.589965 35.077C0.538664 35.0009 0.517751 34.9083 0.531357 34.8176C0.544962 34.7269 0.592097 34.6445 0.663453 34.5868L2.66839 33.0182L1.07192 33.9393C0.991945 33.9839 0.898162 33.997 0.809024 33.976C0.719885 33.9549 0.641846 33.9013 0.590261 33.8256C0.538675 33.75 0.517279 33.6577 0.530281 33.567C0.543284 33.4764 0.589744 33.3939 0.66052 33.3358L1.26845 32.8503L1.07192 32.9632C0.998623 33.0053 0.913025 33.0208 0.829614 33.0071C0.746204 32.9933 0.670105 32.9512 0.6142 32.8878C0.558295 32.8244 0.526018 32.7436 0.522833 32.6591C0.519647 32.5746 0.545749 32.4917 0.59672 32.4242L1.43639 31.3205C1.35599 31.3478 1.26861 31.3464 1.18917 31.3164C1.10973 31.2865 1.04315 31.2299 1.00079 31.1563C0.952337 31.0722 0.93918 30.9724 0.964196 30.8786C0.989212 30.7849 1.05036 30.7049 1.13425 30.6562L2.63759 29.7879C2.71088 29.7458 2.79648 29.7303 2.87989 29.744C2.9633 29.7578 3.0394 29.7999 3.09531 29.8633C3.15121 29.9267 3.18349 30.0075 3.18667 30.092C3.18986 30.1765 3.16376 30.2594 3.11279 30.3269L2.28412 31.4173L5.13459 29.7732C5.21459 29.7278 5.30875 29.7141 5.39838 29.7349C5.48801 29.7556 5.56656 29.8093 5.61844 29.8853C5.67032 29.9613 5.69174 30.054 5.67846 30.145C5.66517 30.236 5.61815 30.3188 5.54672 30.3767L4.93805 30.8622L6.82565 29.7732C6.90591 29.7279 7.00031 29.7144 7.09004 29.7355C7.17977 29.7567 7.25826 29.8108 7.30986 29.8872C7.36146 29.9636 7.3824 30.0566 7.3685 30.1477C7.3546 30.2389 7.30688 30.3214 7.23485 30.3789L5.22845 31.9475L8.99706 29.7732C9.07891 29.7281 9.17489 29.716 9.26539 29.7393C9.35589 29.7626 9.43407 29.8196 9.48397 29.8986C9.53387 29.9776 9.55172 30.0727 9.53387 30.1644C9.51602 30.2562 9.46381 30.3376 9.38792 30.3921L8.82106 30.7823L10.5686 29.7732C10.6495 29.7265 10.7452 29.7125 10.8361 29.7339C10.9271 29.7554 11.0064 29.8108 11.0579 29.8888C11.1093 29.9667 11.1291 30.0614 11.1131 30.1535C11.0972 30.2455 11.0467 30.328 10.9719 30.3841L6.05859 34.0559L13.4799 29.7732C13.5621 29.7264 13.6593 29.7131 13.7511 29.7362C13.8428 29.7593 13.9221 29.8171 13.9723 29.8973C14.0225 29.9775 14.0397 30.074 14.0204 30.1667C14.0011 30.2593 13.9467 30.3409 13.8686 30.3943L10.0017 32.9962L15.5853 29.7695C15.6681 29.7241 15.7651 29.7122 15.8564 29.7365C15.9476 29.7608 16.026 29.8194 16.0751 29.9C16.1242 29.9806 16.1404 30.0771 16.1202 30.1693C16.1 30.2615 16.045 30.3424 15.9667 30.3951L15.2451 30.8556L17.1275 29.7732C17.2093 29.7275 17.3055 29.7149 17.3963 29.7378C17.4872 29.7608 17.5658 29.8177 17.616 29.8968C17.6662 29.9759 17.6842 30.0713 17.6663 30.1632C17.6484 30.2552 17.596 30.3369 17.5199 30.3914L10.1675 35.4822L20.0594 29.7732C20.1419 29.7271 20.239 29.7146 20.3304 29.7383C20.4219 29.762 20.5007 29.8201 20.5503 29.9005C20.6 29.9809 20.6167 30.0774 20.597 30.1698C20.5772 30.2622 20.5226 30.3435 20.4444 30.3965L15.2986 33.786L22.2521 29.7732C22.3348 29.7277 22.4319 29.7159 22.5231 29.7402C22.6143 29.7645 22.6927 29.823 22.7418 29.9036C22.791 29.9843 22.8071 30.0807 22.7869 30.1729C22.7667 30.2652 22.7117 30.3461 22.6334 30.3987L19.978 32.1008L24.0113 29.7732C24.0937 29.7284 24.1902 29.7168 24.2808 29.7409C24.3715 29.7651 24.4495 29.823 24.4987 29.9029C24.5479 29.9827 24.5647 30.0784 24.5455 30.1703C24.5263 30.2621 24.4727 30.3431 24.3956 30.3965L19.3297 33.7332L26.1857 29.7732C26.2682 29.7278 26.3651 29.7158 26.4562 29.7399C26.5473 29.7639 26.6256 29.8221 26.6749 29.9024C26.7243 29.9827 26.7408 30.0789 26.7211 30.171C26.7014 30.2632 26.647 30.3442 26.5692 30.3973L22.3445 33.1466L28.1913 29.7732C28.2732 29.7287 28.369 29.7171 28.4592 29.7407C28.5494 29.7643 28.6272 29.8214 28.6768 29.9003C28.7264 29.9792 28.7441 30.0741 28.7262 30.1656C28.7084 30.2571 28.6564 30.3384 28.5807 30.3929L20.9093 35.6223L31.0139 29.7886C31.0965 29.7408 31.1944 29.727 31.287 29.7502C31.3796 29.7734 31.4594 29.8317 31.5096 29.9129C31.5599 29.994 31.5765 30.0915 31.5559 30.1847C31.5354 30.2779 31.4793 30.3594 31.3997 30.4119L24.1301 35.2124L32.3435 30.4706C32.4261 30.4258 32.5227 30.4144 32.6135 30.4388C32.7042 30.4631 32.7822 30.5214 32.8312 30.6016C32.8802 30.6818 32.8966 30.7777 32.8769 30.8696C32.8573 30.9615 32.8031 31.0423 32.7255 31.0954L27.1016 34.7313L32.8583 31.4086C32.9407 31.3617 33.038 31.3485 33.1299 31.3719C33.2218 31.3953 33.3011 31.4533 33.3511 31.5339C33.4011 31.6144 33.4179 31.7112 33.3981 31.804C33.3783 31.8967 33.3233 31.9781 33.2447 32.0312L25.5799 37.1491L32.9279 32.9068C33.0095 32.8602 33.1058 32.8468 33.197 32.8691C33.2881 32.8915 33.3673 32.948 33.418 33.027C33.4688 33.1059 33.4874 33.2014 33.4698 33.2936C33.4523 33.3859 33.4001 33.4679 33.3239 33.5228L29.6866 36.11L32.9309 34.2378C33.0117 34.1921 33.107 34.1788 33.1972 34.2006C33.2875 34.2224 33.3662 34.2777 33.4173 34.3553C33.4684 34.4328 33.4882 34.5269 33.4726 34.6185C33.4571 34.71 33.4073 34.7923 33.3335 34.8486L30.6634 36.8345L32.9309 35.5255C33.0112 35.4789 33.1063 35.4646 33.1968 35.4855C33.2874 35.5063 33.3666 35.5607 33.4186 35.6377C33.4705 35.7147 33.4913 35.8086 33.4767 35.9003C33.4622 35.992 33.4133 36.0748 33.3401 36.132L31.6923 37.427L32.9309 36.7128C33.0077 36.671 33.0969 36.6581 33.1824 36.6763C33.268 36.6946 33.3442 36.7428 33.3973 36.8123C33.4504 36.8817 33.4769 36.9679 33.472 37.0552C33.4672 37.1425 33.4313 37.2252 33.3709 37.2884L32.0509 38.6084L32.9037 38.1164C32.9879 38.0685 33.0876 38.0559 33.181 38.0813C33.2745 38.1066 33.3541 38.1679 33.4025 38.2518C33.4509 38.3356 33.4642 38.4352 33.4394 38.5288C33.4147 38.6224 33.3539 38.7025 33.2704 38.7514L30.0261 40.6266C29.9493 40.6683 29.8601 40.6812 29.7745 40.663C29.689 40.6447 29.6128 40.5965 29.5597 40.5271C29.5066 40.4576 29.4801 40.3714 29.4849 40.2841C29.4898 40.1968 29.5257 40.1141 29.5861 40.0509L30.9061 38.7309L27.6113 40.6266C27.531 40.6728 27.4362 40.6869 27.3459 40.6661C27.2556 40.6453 27.1765 40.5911 27.1246 40.5143C27.0727 40.4376 27.0517 40.344 27.066 40.2525C27.0802 40.1609 27.1286 40.0782 27.2013 40.0208L28.8506 38.725L25.555 40.6266C25.474 40.6737 25.378 40.688 25.2867 40.6666C25.1954 40.6451 25.1159 40.5895 25.0643 40.5112C25.0128 40.4329 24.9932 40.3379 25.0096 40.2456C25.0259 40.1533 25.0771 40.0707 25.1524 40.015L27.8225 38.0298L23.3235 40.6266C23.2421 40.6715 23.1466 40.6839 23.0564 40.6612C22.9663 40.6384 22.8881 40.5823 22.8378 40.5041C22.7874 40.4259 22.7687 40.3315 22.7854 40.24C22.802 40.1485 22.8528 40.0667 22.9275 40.0113L26.5655 37.4248L16.2006 43.4132C16.1446 43.4446 16.0814 43.4608 16.0173 43.4602Z" fill="#D3B571"/>
<path d="M14.2542 37.7095C14.1905 37.7095 14.1279 37.693 14.0726 37.6615C14.0172 37.63 13.971 37.5847 13.9386 37.5299C13.9061 37.4751 13.8884 37.4128 13.8873 37.3492C13.8862 37.2855 13.9017 37.2227 13.9322 37.1668L13.9828 37.0744L13.3514 37.4411C13.276 37.4847 13.1875 37.5 13.1018 37.4843C13.0162 37.4686 12.9389 37.4229 12.8838 37.3554C12.8287 37.2879 12.7995 37.203 12.8013 37.1159C12.8032 37.0288 12.836 36.9452 12.8938 36.8801L13.6572 36.0199L11.9332 37.015C11.855 37.0625 11.762 37.0791 11.6722 37.0616C11.5825 37.044 11.5025 36.9935 11.4481 36.9201C11.3936 36.8466 11.3686 36.7554 11.3779 36.6645C11.3872 36.5735 11.4301 36.4893 11.4983 36.4283L11.9918 35.9619L11.8063 36.069C11.734 36.1106 11.6497 36.1263 11.5673 36.1135C11.4849 36.1007 11.4093 36.0602 11.353 35.9987C11.2967 35.9372 11.2631 35.8583 11.2576 35.7751C11.2522 35.6919 11.2752 35.6093 11.323 35.541L12.5264 33.8316C12.4752 33.7999 12.4328 33.7558 12.4032 33.7033C12.3546 33.6191 12.3413 33.5191 12.3663 33.4252C12.3913 33.3313 12.4526 33.2512 12.5367 33.2024L13.3331 32.7419C13.4054 32.7003 13.4897 32.6846 13.5721 32.6974C13.6545 32.7102 13.7301 32.7506 13.7864 32.8122C13.8427 32.8737 13.8763 32.9525 13.8818 33.0357C13.8872 33.119 13.8642 33.2015 13.8164 33.2699L12.8792 34.6045L14.3378 33.7627C14.4159 33.7152 14.509 33.6986 14.5987 33.7161C14.6885 33.7337 14.7684 33.7841 14.8228 33.8576C14.8773 33.9311 14.9023 34.0222 14.8931 34.1132C14.8838 34.2042 14.8408 34.2884 14.7726 34.3493L14.2791 34.8157L15.2486 34.2562C15.324 34.2126 15.4125 34.1973 15.4982 34.213C15.5839 34.2287 15.6612 34.2744 15.7162 34.3419C15.7713 34.4094 15.8005 34.4943 15.7987 34.5814C15.7968 34.6685 15.764 34.7521 15.7062 34.8172L14.8863 35.7412C14.9536 35.732 15.0221 35.7417 15.0842 35.7692C15.1464 35.7966 15.1996 35.8408 15.2381 35.8968C15.2766 35.9527 15.2988 36.0183 15.3022 36.0861C15.3056 36.154 15.2901 36.2214 15.2574 36.2809L15.0601 36.6417C15.127 36.6731 15.1826 36.7243 15.2192 36.7884C15.2679 36.8725 15.2812 36.9726 15.2562 37.0665C15.2312 37.1604 15.1699 37.2405 15.0858 37.2893L14.439 37.6618C14.3828 37.6941 14.3189 37.7105 14.2542 37.7095Z" fill="#F2CF7E"/>
<path d="M28.5784 37.609C28.5118 37.6089 28.4465 37.5907 28.3894 37.5563C28.3324 37.5219 28.2858 37.4726 28.2547 37.4138C28.2235 37.3549 28.209 37.2886 28.2127 37.2221C28.2164 37.1556 28.2381 37.0914 28.2755 37.0363L28.9656 36.0228L26.6299 37.3714C26.5536 37.415 26.464 37.4298 26.3777 37.4129C26.2914 37.396 26.214 37.3487 26.1597 37.2795C26.1054 37.2103 26.0777 37.1239 26.0818 37.0361C26.0859 36.9482 26.1214 36.8647 26.1819 36.8009L27.2269 35.7082L26.5038 36.1255C26.432 36.1669 26.3482 36.1827 26.2663 36.1704C26.1843 36.158 26.1089 36.1183 26.0524 36.0576C25.9959 35.997 25.9617 35.919 25.9552 35.8363C25.9488 35.7537 25.9705 35.6713 26.0169 35.6026L27.2093 33.8426C27.1501 33.8105 27.1011 33.7625 27.0677 33.704C27.0191 33.6199 27.0058 33.5199 27.0308 33.426C27.0558 33.332 27.1171 33.2519 27.2012 33.2031L27.9998 32.7419C28.0716 32.7005 28.1554 32.6847 28.2373 32.697C28.3193 32.7093 28.3947 32.7491 28.4512 32.8097C28.5076 32.8704 28.5419 32.9484 28.5484 33.031C28.5548 33.1137 28.5331 33.196 28.4867 33.2647L27.5202 34.6933L29.0837 33.7905C29.16 33.7469 29.2496 33.7322 29.3359 33.7491C29.4222 33.766 29.4996 33.8133 29.5539 33.8825C29.6082 33.9516 29.6359 34.038 29.6318 34.1259C29.6277 34.2138 29.5922 34.2972 29.5317 34.3611L28.486 35.4537L29.9923 34.5847C30.0642 34.5435 30.1479 34.5277 30.2299 34.5402C30.3119 34.5526 30.3872 34.5924 30.4436 34.6532C30.5 34.7139 30.5342 34.792 30.5405 34.8747C30.5468 34.9573 30.525 35.0397 30.4785 35.1083L29.6637 36.3044C29.7362 36.3201 29.8021 36.3573 29.853 36.4111C29.9038 36.465 29.9372 36.533 29.9486 36.6062C29.96 36.6794 29.949 36.7544 29.917 36.8212C29.885 36.888 29.8335 36.9436 29.7693 36.9805L28.7632 37.5606C28.707 37.5928 28.6432 37.6095 28.5784 37.609Z" fill="#F2CF7E"/>
<path d="M6.09606 37.4735C6.02796 37.4735 5.96121 37.4545 5.90329 37.4187C5.84536 37.3829 5.79855 37.3317 5.7681 37.2708C5.73765 37.2099 5.72476 37.1417 5.73087 37.0739C5.73699 37.006 5.76187 36.9413 5.80272 36.8868L6.69152 35.6929L4.59786 36.9007C4.5228 36.9439 4.43488 36.9592 4.34965 36.9438C4.26443 36.9284 4.18741 36.8833 4.13225 36.8165C4.07708 36.7498 4.04733 36.6656 4.04826 36.579C4.04919 36.4924 4.08074 36.4089 4.13732 36.3434L5.12586 35.2038L4.23706 35.7171C4.16135 35.7607 4.07257 35.7758 3.98671 35.7597C3.90085 35.7437 3.82355 35.6975 3.76872 35.6295C3.71389 35.5615 3.68514 35.4761 3.68765 35.3888C3.69016 35.3015 3.72375 35.2179 3.78239 35.1532L5.08259 33.7217C5.0775 33.7148 5.07308 33.7075 5.06939 33.6997C5.02071 33.6156 5.00742 33.5156 5.03245 33.4217C5.05747 33.3277 5.11877 33.2476 5.20286 33.1989L5.99999 32.742C6.0757 32.6984 6.16448 32.6833 6.25034 32.6994C6.3362 32.7154 6.4135 32.7616 6.46833 32.8296C6.52315 32.8976 6.5519 32.983 6.5494 33.0703C6.54689 33.1576 6.51329 33.2412 6.45465 33.3059L5.90466 33.9109L6.64899 33.4819C6.72404 33.4387 6.81197 33.4235 6.89719 33.4389C6.98241 33.4543 7.05943 33.4994 7.1146 33.5661C7.16976 33.6329 7.19952 33.717 7.19859 33.8036C7.19766 33.8902 7.16611 33.9737 7.10952 34.0393L6.12025 35.1803L7.86119 34.1757C7.93421 34.1337 8.01946 34.1181 8.10259 34.1316C8.18573 34.1451 8.26169 34.1868 8.3177 34.2497C8.37371 34.3126 8.40637 34.3929 8.41017 34.477C8.41397 34.5611 8.38869 34.644 8.33858 34.7117L7.44832 35.9093C7.53375 35.8724 7.62997 35.8695 7.7175 35.9009C7.80504 35.9324 7.87734 35.996 7.91975 36.0788C7.96217 36.1616 7.97154 36.2574 7.94596 36.3468C7.92038 36.4362 7.86177 36.5126 7.78199 36.5605L6.28086 37.4273C6.22455 37.459 6.16069 37.475 6.09606 37.4735Z" fill="#F2CF7E"/>
<path d="M21.5271 37.6934C21.4629 37.6934 21.3999 37.6766 21.3442 37.6446C21.2886 37.6127 21.2423 37.5667 21.21 37.5112C21.1777 37.4558 21.1606 37.3928 21.1602 37.3286C21.1599 37.2645 21.1764 37.2013 21.2081 37.1456L21.6701 36.3345L19.4701 37.6046C19.391 37.6495 19.2981 37.6633 19.2094 37.6435C19.1207 37.6238 19.0425 37.5717 18.99 37.4976C18.9375 37.4234 18.9144 37.3324 18.9252 37.2421C18.936 37.1519 18.9799 37.0688 19.0484 37.0092L19.3894 36.7158L19.2604 36.7892C19.1838 36.8328 19.094 36.8474 19.0075 36.8303C18.921 36.8132 18.8436 36.7655 18.7894 36.6959C18.7352 36.6263 18.7079 36.5395 18.7126 36.4515C18.7172 36.3634 18.7534 36.28 18.8145 36.2164L19.4745 35.5366L18.9744 35.8256C18.8997 35.868 18.8126 35.883 18.7281 35.8678C18.6436 35.8526 18.5671 35.8083 18.5119 35.7425C18.4568 35.6767 18.4265 35.5936 18.4263 35.5077C18.4261 35.4219 18.456 35.3387 18.5109 35.2726L19.7781 33.7634C19.7617 33.745 19.7474 33.7249 19.7356 33.7033C19.6869 33.6192 19.6736 33.5191 19.6986 33.4252C19.7236 33.3313 19.7849 33.2512 19.869 33.2024L20.6669 32.7419C20.7415 32.699 20.8289 32.6837 20.9136 32.6987C20.9984 32.7137 21.0752 32.758 21.1305 32.824C21.1859 32.8899 21.2163 32.9732 21.2164 33.0593C21.2165 33.1454 21.1863 33.2288 21.1311 33.2948L20.4139 34.1477L21.3958 33.5815C21.4724 33.5373 21.5624 33.5223 21.6493 33.5392C21.7361 33.5562 21.8139 33.6039 21.8683 33.6737C21.9226 33.7434 21.95 33.8305 21.9452 33.9188C21.9405 34.0071 21.904 34.0908 21.8424 34.1543L21.1824 34.8341L22.4584 34.1008C22.5376 34.0542 22.6314 34.0391 22.7212 34.0584C22.811 34.0777 22.8902 34.13 22.9433 34.2049C22.9964 34.2799 23.0195 34.372 23.0079 34.4631C22.9963 34.5542 22.951 34.6377 22.8808 34.697L22.5252 35.0013C22.5957 34.9732 22.6732 34.9677 22.747 34.9856C22.8208 35.0034 22.8873 35.0437 22.9372 35.101C22.9871 35.1582 23.018 35.2295 23.0256 35.305C23.0333 35.3806 23.0173 35.4566 22.9798 35.5227L22.3822 36.5728C22.4466 36.5981 22.5026 36.6411 22.5436 36.6968C22.5847 36.7525 22.6091 36.8188 22.6141 36.8878C22.6191 36.9568 22.6044 37.0259 22.5718 37.0869C22.5392 37.148 22.49 37.1986 22.4298 37.2328L21.7134 37.6464C21.6567 37.6787 21.5923 37.6949 21.5271 37.6934Z" fill="#F2CF7E"/>
<path d="M33.6657 32.2095C33.6657 32.1933 33.6562 32.1845 33.654 32.1706C33.6518 32.1567 33.6657 32.1435 33.6643 32.1281C33.5484 29.9677 31.7107 29.7367 29.9976 29.7345V4.21815C30.0247 3.66248 30.0203 3.10572 29.9844 2.55055C29.8077 1.02082 28.4283 0.454683 27.0753 0.454683H8.27333C7.45621 0.381579 6.63262 0.44829 5.83792 0.65195C5.26904 0.847699 4.78082 1.22601 4.44924 1.72802C4.11767 2.23002 3.96134 2.82755 4.00459 3.42762C3.99946 5.91142 4.00459 8.39521 4.00459 10.879V29.7396C3.77286 29.7396 3.54186 29.7396 3.31012 29.7477C2.56548 29.7089 1.8356 29.9654 1.27888 30.4614C0.722162 30.9575 0.383523 31.653 0.336455 32.3972C0.283655 33.8976 0.336455 35.4083 0.336455 36.9094C0.336455 38.3841 0.336455 39.9806 2.05172 40.524C3.11726 40.8606 8.77859 40.6523 10.3787 40.6523C10.9611 40.6005 11.5451 40.7326 12.0485 41.03C12.644 41.4099 13.2035 41.8638 13.7763 42.2767C14.3297 42.7417 14.9522 43.1178 15.6213 43.3913C16.1847 43.5669 16.7789 43.621 17.3647 43.5499C17.9505 43.4789 18.5145 43.2844 19.0196 42.9792C19.5872 42.6367 20.1115 42.2063 20.6483 41.8191C21.2116 41.2774 21.8955 40.8773 22.6437 40.6516C23.8053 40.5145 29.1301 40.6707 30.5777 40.6516C32.1617 40.6303 33.6085 39.7049 33.6679 38.0021C33.7193 36.5273 33.6679 35.0423 33.6679 33.5676L33.6657 32.2095ZM22.3533 4.13675H13.5189C12.8944 4.22673 12.2581 4.18578 11.6503 4.01648C10.708 3.54568 10.862 2.04088 10.917 1.00982H23.072C23.1057 1.82748 23.3573 4.07882 22.3533 4.13675ZM5.06499 2.86955C5.03464 2.43376 5.16743 2.00226 5.43756 1.65894C5.70768 1.31563 6.09583 1.08504 6.52652 1.01202C6.72049 1.00212 6.91483 1.00212 7.10879 1.01202H9.86906V2.34668C9.79796 2.873 9.88341 3.40861 10.1147 3.88668C10.6281 4.69775 11.5352 4.66108 12.3741 4.66108H21.9133C23.0317 4.59655 24.0957 3.97175 24.128 2.75442C24.1434 2.17508 24.1353 1.59355 24.128 1.01275H25.5272C26.3339 1.01275 27.3693 0.861683 28.066 1.35888C28.946 1.98735 28.9299 2.93922 28.9299 3.88302V22.7377C28.9299 25.0675 28.8411 27.4171 28.9299 29.7455H28.6981H24.3803L25.7047 20.0068C25.9034 18.5453 26.1652 17.0735 26.3023 15.6068C26.3896 14.6725 25.6863 14.3653 24.8518 14.2868V11.6167C24.8518 11.1672 24.8555 10.7177 24.8518 10.2681C24.8542 10.1208 24.8255 9.97457 24.7676 9.83905C24.7097 9.70352 24.6238 9.58172 24.5157 9.4816C24.4075 9.38147 24.2795 9.30527 24.1399 9.25796C24.0003 9.21065 23.8523 9.19329 23.7056 9.20702C22.7046 9.19235 20.8661 8.99801 20.8522 10.4449V11.4063H19.0005V10.0041C19.0691 9.60363 18.9926 9.19179 18.7849 8.84255C18.6119 8.68545 18.4053 8.5698 18.1809 8.50436C17.9566 8.43893 17.7202 8.42543 17.4899 8.46488C16.5923 8.46488 15.0897 8.34021 14.9965 9.59495C14.9518 10.2153 14.9489 10.8416 14.9562 11.4745H13.139V10.5534C13.1753 10.3318 13.1534 10.1045 13.0753 9.89392C12.9973 9.68333 12.8658 9.49665 12.6939 9.35221C12.1105 9.10691 11.4698 9.03067 10.8451 9.13221C10.5874 9.11509 10.3285 9.13535 10.0766 9.19235C9.8384 9.25407 9.62292 9.38286 9.45576 9.56342C9.28859 9.74397 9.17675 9.96871 9.13353 10.2109C9.10973 10.5527 9.10777 10.8956 9.12766 11.2376V14.3601C8.46766 14.4093 7.80766 14.5992 7.67713 15.3413C7.66079 15.713 7.69734 16.0851 7.78566 16.4465L8.09806 18.7425L9.58746 29.6985C8.07924 29.6946 6.57175 29.7025 5.06499 29.722V4.88622C5.06499 4.21595 5.03712 3.53908 5.06499 2.86955ZM19.3936 29.7477C16.4947 29.7477 13.5915 29.7169 10.6889 29.7051C10.2792 26.6936 9.86979 23.682 9.46059 20.6705C9.28606 18.9229 8.88713 17.1915 8.74999 15.4411C8.70966 14.9336 9.08293 14.9783 9.46793 14.9776C10.0443 14.9776 11.0145 14.7503 11.4061 15.312C11.9481 16.0893 12.1827 17.0757 12.8354 17.7716C14.4898 19.536 17.3183 19.7809 19.4515 18.8144C20.9145 18.1544 21.8429 16.6767 22.5543 15.0671C22.709 14.7165 23.8347 14.982 24.1573 14.9827C24.6472 14.9827 25.2375 14.9871 25.2507 15.6303C25.1747 16.8774 25.0063 18.1172 24.7469 19.3395C24.2747 22.8106 23.8029 26.28 23.3316 29.7477H19.3936ZM12.0603 10.1831C12.0603 10.56 12.0537 13.6246 12.0537 14.4987C11.4596 14.296 10.8257 14.2387 10.2049 14.3315C10.2049 13.5461 10.1998 10.3107 10.2049 10.2293C10.2196 9.97848 10.2783 9.93595 10.4902 9.93595H11.3247C11.4465 9.93301 12.061 9.90001 12.061 10.1831H12.0603ZM22.9202 9.85968C23.3397 9.85968 23.7503 9.83548 23.7848 10.3862C23.8097 10.7888 23.7848 11.2009 23.7848 11.6043V14.2861C23.4599 14.3044 23.1556 14.3323 22.9143 14.3469C22.5669 14.3565 22.2282 14.4577 21.9324 14.6403C21.9331 10.098 21.4271 9.85968 22.9209 9.85968H22.9202ZM20.8515 16.6357C20.4136 17.3775 19.7706 17.9767 18.9998 18.3612V12.0604H20.8515C20.8537 12.5715 20.8522 15.62 20.8522 16.6357H20.8515ZM17.9321 10.2505V18.6839C17.3118 18.7834 16.678 18.7607 16.0665 18.6171C16.0665 15.7432 15.5979 9.93081 16.0665 9.13515C16.2285 8.86161 17.3909 9.01855 17.6849 9.17695C18.0333 9.36321 17.9328 9.93301 17.9328 10.2505H17.9321ZM14.9877 18.2167C14.5517 17.9938 14.1565 17.6988 13.8188 17.3441C13.5592 17.0591 13.3313 16.7468 13.139 16.4127V11.9922H14.965C14.9723 12.3552 14.9877 18.1911 14.9877 18.2167ZM31.2406 40.007C30.2264 40.1537 25.107 40.0143 23.6235 40.0143C22.5577 39.9876 21.5147 40.3252 20.6667 40.9713C20.0514 41.4157 19.4391 41.8645 18.8209 42.3038C18.354 42.681 17.7756 42.8933 17.1757 42.9078C16.5757 42.9222 15.9877 42.738 15.5033 42.3837C14.5338 41.7377 13.6545 40.8833 12.6279 40.3304C11.6819 39.8222 10.3545 40.0136 9.31833 40.0136C7.73506 40.0136 3.73106 40.0319 3.31599 40.0136C2.80741 39.9944 2.32545 39.7813 1.969 39.418C1.61255 39.0548 1.40862 38.5689 1.39906 38.06C1.31986 36.7957 1.39906 35.5021 1.39906 34.2357C1.39906 32.9509 1.03239 30.569 2.86572 30.3849C3.28152 30.3431 29.1843 30.3116 30.7163 30.3849C31.2292 30.4145 31.711 30.6404 32.0618 31.0158C32.4126 31.3911 32.6054 31.8871 32.6002 32.4009V35.9861C32.6009 37.2357 32.9999 39.7511 31.2406 40.007Z" fill="#2A2A38"/>
<path d="M16.8584 22.3432C16.1949 22.4209 15.5823 22.7372 15.1348 23.2332C14.6872 23.7292 14.4353 24.371 14.426 25.0389C14.4264 25.375 14.4946 25.7075 14.6265 26.0165C14.7585 26.3256 14.9514 26.6049 15.1937 26.8377C15.4361 27.0704 15.7229 27.2519 16.0371 27.3713C16.3512 27.4906 16.6862 27.5454 17.022 27.5323C17.7074 27.4804 18.3488 27.1746 18.8208 26.6748C19.2927 26.1751 19.5613 25.5172 19.574 24.8299C19.5792 24.7733 19.5709 24.7163 19.5498 24.6635C19.5286 24.3333 19.4418 24.0106 19.2944 23.7143C19.147 23.4181 18.942 23.1542 18.6914 22.9381C18.4407 22.7221 18.1496 22.5582 17.8348 22.456C17.5201 22.3539 17.1882 22.3155 16.8584 22.3432ZM15.1718 24.8277C15.1718 22.4253 18.7035 22.8147 18.8238 25.0389C18.6969 27.4267 15.1754 27.0725 15.174 24.8277H15.1718Z" fill="#2A2A38"/>
<path d="M15.3918 33.9409C15.1114 33.8517 14.841 33.7335 14.5851 33.5881C14.2485 33.308 14.1334 32.8152 13.6831 32.6737C13.4761 32.6326 13.2616 32.6523 13.0656 32.7304C12.8695 32.8084 12.7001 32.9416 12.578 33.1137C12.446 33.2662 12.3426 33.4803 12.1901 33.627C11.9862 33.8221 11.7288 33.8257 11.4831 33.9379C11.3372 33.9909 11.2042 34.0742 11.0928 34.1823C10.9814 34.2903 10.8941 34.4208 10.8366 34.565C10.7792 34.7092 10.753 34.8639 10.7596 35.019C10.7663 35.1741 10.8057 35.326 10.8752 35.4648C10.9771 35.6664 11.1759 35.8395 11.2639 36.0588C11.3287 36.3473 11.3509 36.6438 11.3299 36.9388C11.3264 37.0659 11.3528 37.1922 11.407 37.3073C11.4612 37.4224 11.5416 37.5233 11.6418 37.6017C11.742 37.6801 11.8591 37.734 11.9839 37.759C12.1087 37.7839 12.2376 37.7793 12.3602 37.7454C12.6088 37.7022 12.8486 37.557 13.0994 37.5254C13.399 37.5349 13.6947 37.5959 13.9735 37.7058C14.2277 37.7913 14.5049 37.7761 14.7483 37.6634C14.9916 37.5508 15.1825 37.3492 15.2818 37.1001C15.4571 36.6117 15.2598 36.1284 15.5407 35.6679C15.9073 35.0651 16.1889 34.364 15.3918 33.9409ZM14.8418 35.4809C14.5397 35.9488 14.668 36.2524 14.5367 36.7474C14.4561 37.0517 14.5653 36.9674 14.2434 36.9402C14.0234 36.9197 13.8115 36.7892 13.5871 36.7642C13.0935 36.71 12.3499 37.2695 12.1321 36.6909C11.9803 36.2861 12.1593 35.8923 11.9385 35.4758C11.7977 35.2103 11.412 34.8663 11.7031 34.5752C11.8227 34.4549 12.1248 34.4476 12.2788 34.3684C12.4758 34.2642 12.6489 34.1201 12.787 33.9453C12.9593 33.7451 13.1221 33.3029 13.3964 33.4935C13.6083 33.8509 13.8968 34.1567 14.2412 34.3889C14.4311 34.4872 14.6812 34.4982 14.8587 34.6133C15.2825 34.8876 15.0398 35.1758 14.8418 35.4823V35.4809Z" fill="#2A2A38"/>
<path d="M29.8905 33.8961C29.6194 33.8103 29.357 33.6994 29.1066 33.5646C28.8243 33.3358 28.7165 32.9589 28.4187 32.758C28.3279 32.6918 28.2242 32.6451 28.1144 32.621C28.0046 32.5968 27.891 32.5957 27.7808 32.6177C27.6705 32.6397 27.566 32.6843 27.4739 32.7487C27.3817 32.8131 27.3039 32.8959 27.2454 32.9919C27.091 33.2347 26.8995 33.4517 26.6778 33.635C26.4424 33.7817 26.1373 33.7898 25.9019 33.9474C25.671 34.1243 25.5186 34.3846 25.4774 34.6725C25.4363 34.9605 25.5097 35.2531 25.6819 35.4875C25.8155 35.659 25.9319 35.8432 26.0295 36.0375C26.071 36.2904 26.0821 36.5475 26.0625 36.8031C26.1227 37.4257 26.5165 37.9031 27.1809 37.7894C27.4309 37.7469 27.6685 37.6046 27.9201 37.5731C28.2267 37.5772 28.5299 37.6376 28.8147 37.7513C28.9377 37.8012 29.0709 37.8205 29.203 37.8077C29.3351 37.795 29.4622 37.7504 29.5733 37.6778C29.6844 37.6052 29.7763 37.5069 29.8411 37.391C29.9059 37.2752 29.9418 37.1455 29.9455 37.0128C29.98 36.7547 29.9191 36.4819 29.977 36.2274C30.0563 36.0096 30.17 35.8058 30.3136 35.6239C30.4103 35.4859 30.4764 35.329 30.5075 35.1634C30.5386 34.9979 30.534 34.8276 30.4939 34.664C30.4538 34.5004 30.3793 34.3473 30.2752 34.2148C30.1712 34.0824 30.04 33.9737 29.8905 33.8961ZM29.4601 35.4361C29.2401 35.849 29.427 36.2824 29.2598 36.6711C29.0303 37.2042 28.2332 36.6476 27.7485 36.7151C27.4984 36.7495 27.1677 36.9739 26.9249 36.9527C26.7497 36.9373 26.7702 36.8749 26.7335 36.6835C26.7313 36.2469 26.6339 35.8159 26.4483 35.4207C26.2657 35.1274 25.9855 34.9873 26.3955 34.6713C26.5517 34.551 26.8186 34.5488 26.9946 34.4557C27.2498 34.3207 27.956 33.2823 28.1943 33.4928C28.4177 33.8668 28.7197 34.1879 29.0795 34.4337C29.2459 34.5202 29.5847 34.529 29.6976 34.6617C29.9602 34.9712 29.5979 35.1817 29.4601 35.4391V35.4361Z" fill="#2A2A38"/>
<path d="M8.20588 34.1081C7.94335 33.9218 7.57228 33.9233 7.32001 33.7414C6.94821 33.4701 6.84555 32.992 6.41288 32.7881C6.21807 32.6948 5.99864 32.6658 5.78628 32.7053C5.57392 32.7449 5.37963 32.8509 5.23148 33.0081C5.05255 33.1907 4.94548 33.4591 4.75335 33.6278C4.54181 33.7712 4.30856 33.8797 4.06255 33.949C3.92159 33.9916 3.79237 34.0662 3.68493 34.167C3.5775 34.2677 3.49474 34.3918 3.44309 34.5298C3.39144 34.6677 3.3723 34.8156 3.38714 34.9622C3.40198 35.1087 3.45042 35.2498 3.52868 35.3746C3.67329 35.5637 3.80182 35.7646 3.91295 35.9752C3.95852 36.2644 3.97571 36.5574 3.96428 36.85C3.97479 36.985 4.01392 37.1162 4.07907 37.2348C4.14421 37.3535 4.23388 37.4569 4.34211 37.5382C4.45034 37.6195 4.57464 37.6769 4.70674 37.7064C4.83885 37.7359 4.97573 37.737 5.10828 37.7095C5.36055 37.6765 5.59375 37.543 5.84161 37.5056C6.08355 37.4802 6.32805 37.5144 6.55368 37.6054C7.05895 37.7476 7.69915 37.8158 7.96828 37.2387C8.17655 36.7936 7.95068 36.2722 8.18828 35.8278C8.50508 35.236 8.95241 34.6383 8.20588 34.1081ZM7.39921 35.5014C7.12715 35.9517 7.28261 36.3022 7.16161 36.7833C7.07875 37.114 7.03255 37.0517 6.71061 36.9571C6.50239 36.8852 6.28701 36.836 6.06821 36.8104C5.81578 36.8027 5.56417 36.843 5.32681 36.9292C4.97921 37.0312 4.94255 37.1397 4.83108 36.842C4.65728 36.3785 4.86775 35.9862 4.58175 35.522C4.38595 35.2037 4.03175 34.9162 4.51281 34.5408C4.66975 34.4176 4.94475 34.4102 5.12515 34.3142C5.28061 34.2313 6.00881 33.3909 6.04548 33.3887C6.24868 33.7288 6.51442 34.0274 6.82868 34.2687C7.01568 34.3816 7.28408 34.3904 7.45568 34.5151C7.95068 34.8686 7.60528 35.1663 7.40215 35.5022L7.39921 35.5014Z" fill="#2A2A38"/>
<path d="M22.5543 33.8954C22.2833 33.8098 22.021 33.6986 21.7711 33.5632C21.4888 33.333 21.3839 32.959 21.0832 32.7566C20.9921 32.6907 20.8882 32.6445 20.7783 32.6207C20.6684 32.597 20.5548 32.5962 20.4446 32.6186C20.3343 32.6409 20.2299 32.6858 20.1379 32.7504C20.0459 32.8151 19.9683 32.8981 19.9099 32.9942C19.7554 33.2371 19.5633 33.4539 19.3408 33.6366C19.1054 33.7832 18.8004 33.7906 18.5657 33.9482C18.3335 34.1251 18.1802 34.3863 18.139 34.6753C18.0979 34.9643 18.1721 35.2579 18.3457 35.4926C18.4805 35.6625 18.5991 35.8447 18.6999 36.0368C18.7285 36.2929 18.7361 36.5509 18.7226 36.8082C18.7842 37.4323 19.1832 37.9082 19.8454 37.7916C20.0954 37.7484 20.3338 37.6061 20.5846 37.5716C20.8914 37.5765 21.1948 37.6371 21.48 37.7506C21.603 37.8001 21.7362 37.8191 21.8682 37.806C22.0002 37.7928 22.1271 37.7479 22.2379 37.675C22.3488 37.6021 22.4403 37.5035 22.5047 37.3876C22.5691 37.2716 22.6045 37.1418 22.6078 37.0092C22.6408 36.7642 22.5807 36.4958 22.6306 36.2568C22.7076 36.026 22.825 35.8107 22.9774 35.621C23.0737 35.4831 23.1395 35.3263 23.1704 35.161C23.2013 34.9957 23.1965 34.8257 23.1565 34.6624C23.1164 34.4991 23.042 34.3462 22.9382 34.2139C22.8343 34.0817 22.7034 33.9731 22.5543 33.8954ZM22.159 35.3907C21.8906 35.8366 22.0945 36.2377 21.9258 36.677C21.7161 37.2211 20.9182 36.6579 20.4592 36.7107C20.2641 36.7479 20.0723 36.8006 19.8857 36.8684C19.7346 36.9223 19.5754 36.9501 19.4149 36.9505C19.3632 36.4712 19.2868 35.9949 19.1861 35.5234C19.016 35.2162 18.6918 34.972 19.0922 34.6647C19.2433 34.5488 19.4985 34.5474 19.6679 34.4579C19.929 34.32 20.6212 33.2846 20.8669 33.4972C21.0897 33.8718 21.3921 34.1927 21.7528 34.4374C21.9119 34.5195 22.2617 34.5349 22.3717 34.6647C22.5983 34.9368 22.2954 35.1641 22.159 35.3907Z" fill="#2A2A38"/>
<path d="M27.0642 3.78106C27.0642 3.48742 26.8264 3.24939 26.5329 3.24939C26.2395 3.24939 26.0016 3.48742 26.0016 3.78106V4.28632C26.0016 4.57995 26.2395 4.81799 26.5329 4.81799C26.8264 4.81799 27.0642 4.57995 27.0642 4.28632V3.78106Z" fill="#2A2A38"/>
<path d="M7.9976 3.78106C7.9976 3.48742 7.75973 3.24939 7.4663 3.24939C7.17287 3.24939 6.935 3.48742 6.935 3.78106V4.28632C6.935 4.57995 7.17287 4.81799 7.4663 4.81799C7.75973 4.81799 7.9976 4.57995 7.9976 4.28632V3.78106Z" fill="#2A2A38"/>
</svg>
